%FSLAX25Y25*%
%MOIN*%
G70*
G01*
G75*
G04 Layer_Physical_Order=1*
G04 Layer_Color=255*
%ADD10C,0.02000*%
%ADD11C,0.01000*%
%ADD12R,0.05906X0.05906*%
%ADD13R,0.04331X0.05512*%
%ADD14R,0.04724X0.05512*%
%ADD15R,0.05512X0.04331*%
%ADD16R,0.05906X0.05906*%
%ADD17R,0.05906X0.05512*%
%ADD18R,0.05512X0.05906*%
%ADD19R,0.01400X0.06600*%
%ADD20C,0.05906*%
%ADD21C,0.05512*%
%ADD22C,0.05906*%
%ADD23C,0.05900*%
%ADD24C,0.06000*%
%ADD25C,0.05000*%
G36*
X354638Y286772D02*
X355141Y285556D01*
X355847Y284637D01*
Y273415D01*
X355141Y272496D01*
X354638Y271280D01*
X354562Y270704D01*
X354063Y270737D01*
Y275546D01*
X340158D01*
Y273585D01*
X330906D01*
Y275298D01*
X311134D01*
X310942Y275760D01*
X317833Y282650D01*
X330906D01*
Y284363D01*
X340158D01*
Y282505D01*
X354063D01*
Y287315D01*
X354562Y287348D01*
X354638Y286772D01*
D02*
G37*
G36*
X311095Y296123D02*
Y290176D01*
X310904Y289986D01*
X310892Y289976D01*
X310893Y289975D01*
X303961Y283043D01*
X297566D01*
X297469Y283534D01*
X297708Y283632D01*
X298752Y284434D01*
X310633Y296315D01*
X311095Y296123D01*
D02*
G37*
G36*
X162060Y411560D02*
Y411440D01*
X161191Y410381D01*
X160545Y409174D01*
X160148Y407863D01*
X160014Y406500D01*
X160148Y405137D01*
X160545Y403826D01*
X161191Y402619D01*
X162060Y401560D01*
Y401440D01*
X161191Y400381D01*
X160545Y399174D01*
X160148Y397863D01*
X160014Y396500D01*
X160148Y395137D01*
X160545Y393826D01*
X161191Y392619D01*
X162060Y391560D01*
Y391440D01*
X161191Y390381D01*
X160545Y389174D01*
X160148Y387863D01*
X160014Y386500D01*
X160148Y385137D01*
X160545Y383826D01*
X161191Y382619D01*
X161703Y381995D01*
X161489Y381543D01*
X145543D01*
Y398240D01*
X145914Y398576D01*
X147000Y398469D01*
X148274Y398594D01*
X149499Y398966D01*
X150629Y399569D01*
X151618Y400382D01*
X152431Y401371D01*
X153034Y402500D01*
X153406Y403726D01*
X153466Y404334D01*
X159566Y410434D01*
X160368Y411478D01*
X160740Y412377D01*
X160925Y412477D01*
X161266Y412527D01*
X162060Y411560D01*
D02*
G37*
G36*
X101047Y445547D02*
X114953D01*
Y445739D01*
X115354Y446037D01*
X116637Y445648D01*
X118000Y445514D01*
X119363Y445648D01*
X120674Y446045D01*
X121881Y446691D01*
X122505Y447203D01*
X122957Y446989D01*
Y439500D01*
X122957Y439500D01*
X122957D01*
X123129Y438195D01*
X123633Y436978D01*
X124434Y435934D01*
X135457Y424911D01*
Y376500D01*
X135629Y375195D01*
X136133Y373978D01*
X136934Y372934D01*
X137978Y372132D01*
X139195Y371629D01*
X140500Y371457D01*
X161489D01*
X161703Y371005D01*
X161191Y370381D01*
X160545Y369174D01*
X160148Y367863D01*
X160014Y366500D01*
X160148Y365137D01*
X160545Y363826D01*
X161191Y362619D01*
X162060Y361560D01*
X163119Y360691D01*
X163395Y360543D01*
X163434Y360066D01*
X162633Y359022D01*
X162129Y357805D01*
X161957Y356500D01*
X162129Y355195D01*
X162633Y353978D01*
X163434Y352934D01*
X164215Y352334D01*
X164815Y351553D01*
X165859Y350752D01*
X167076Y350248D01*
X168381Y350076D01*
X169686Y350248D01*
X170902Y350752D01*
X171821Y351457D01*
X172411D01*
X187957Y335911D01*
Y271584D01*
X187572Y271082D01*
X187367Y270587D01*
X186872Y270660D01*
X186852Y270863D01*
X186455Y272174D01*
X185809Y273381D01*
X184940Y274440D01*
Y274560D01*
X185809Y275619D01*
X186455Y276826D01*
X186852Y278137D01*
X186986Y279500D01*
X186852Y280863D01*
X186455Y282174D01*
X185809Y283381D01*
X184940Y284440D01*
Y284560D01*
X185809Y285619D01*
X186455Y286826D01*
X186852Y288137D01*
X186986Y289500D01*
X186852Y290863D01*
X186455Y292174D01*
X185809Y293381D01*
X184940Y294440D01*
Y294560D01*
X185809Y295619D01*
X186455Y296826D01*
X186852Y298137D01*
X186986Y299500D01*
X186852Y300863D01*
X186455Y302174D01*
X185809Y303381D01*
X184940Y304440D01*
Y304560D01*
X185809Y305619D01*
X186455Y306826D01*
X186852Y308137D01*
X186986Y309500D01*
X186852Y310863D01*
X186455Y312174D01*
X185809Y313381D01*
X184940Y314440D01*
Y314560D01*
X185809Y315619D01*
X186455Y316826D01*
X186852Y318137D01*
X186986Y319500D01*
X186852Y320863D01*
X186455Y322174D01*
X185809Y323381D01*
X184940Y324440D01*
Y324560D01*
X185809Y325619D01*
X186455Y326826D01*
X186852Y328137D01*
X186986Y329500D01*
X186852Y330863D01*
X186455Y332174D01*
X185809Y333381D01*
X184940Y334440D01*
X183881Y335309D01*
X182674Y335955D01*
X181363Y336352D01*
X180000Y336486D01*
X178637Y336352D01*
X177326Y335955D01*
X176119Y335309D01*
X175060Y334440D01*
X174191Y333381D01*
X173545Y332174D01*
X173148Y330863D01*
X173014Y329500D01*
X173148Y328137D01*
X173545Y326826D01*
X174191Y325619D01*
X175060Y324560D01*
Y324440D01*
X174191Y323381D01*
X173545Y322174D01*
X173148Y320863D01*
X173014Y319500D01*
X173148Y318137D01*
X173545Y316826D01*
X174191Y315619D01*
X175060Y314560D01*
Y314440D01*
X174191Y313381D01*
X173545Y312174D01*
X173148Y310863D01*
X173014Y309500D01*
X173148Y308137D01*
X173545Y306826D01*
X174191Y305619D01*
X175060Y304560D01*
Y304440D01*
X174191Y303381D01*
X174005Y303033D01*
X173506Y302992D01*
X173066Y303566D01*
X156975Y319657D01*
X156958Y319787D01*
X156852Y320863D01*
X156463Y322146D01*
X156761Y322547D01*
X156953D01*
Y336453D01*
X143047D01*
Y336453D01*
X142987D01*
X142906Y337274D01*
X142534Y338499D01*
X141931Y339629D01*
X141543Y340101D01*
Y355500D01*
X141371Y356805D01*
X140867Y358022D01*
X140066Y359066D01*
X119566Y379566D01*
X118522Y380367D01*
X117305Y380871D01*
X116000Y381043D01*
X67011D01*
X66797Y381495D01*
X67309Y382119D01*
X67955Y383326D01*
X68352Y384637D01*
X68486Y386000D01*
X68352Y387363D01*
X67955Y388674D01*
X67309Y389881D01*
X66440Y390940D01*
Y391060D01*
X67309Y392119D01*
X67955Y393326D01*
X68352Y394637D01*
X68486Y396000D01*
X68352Y397363D01*
X67955Y398674D01*
X67309Y399881D01*
X66440Y400940D01*
Y401060D01*
X67309Y402119D01*
X67955Y403326D01*
X68352Y404637D01*
X68486Y406000D01*
X68352Y407363D01*
X67955Y408674D01*
X67309Y409881D01*
X66440Y410940D01*
Y411060D01*
X67309Y412119D01*
X67955Y413326D01*
X68352Y414637D01*
X68486Y416000D01*
X68352Y417363D01*
X67955Y418674D01*
X67309Y419881D01*
X66440Y420940D01*
Y421060D01*
X67309Y422119D01*
X67955Y423326D01*
X68352Y424637D01*
X68486Y426000D01*
X68352Y427363D01*
X67955Y428674D01*
X67309Y429881D01*
X66440Y430940D01*
Y431060D01*
X67309Y432119D01*
X67955Y433326D01*
X68352Y434637D01*
X68486Y436000D01*
X68352Y437363D01*
X67955Y438674D01*
X67309Y439881D01*
X66440Y440940D01*
Y441060D01*
X67309Y442119D01*
X67955Y443326D01*
X68352Y444637D01*
X68486Y446000D01*
X68352Y447363D01*
X67955Y448674D01*
X67309Y449881D01*
X66440Y450940D01*
X65381Y451809D01*
X64174Y452455D01*
X62863Y452852D01*
X61500Y452986D01*
X60137Y452852D01*
X58826Y452455D01*
X57619Y451809D01*
X56560Y450940D01*
X55691Y449881D01*
X55045Y448674D01*
X54648Y447363D01*
X54514Y446000D01*
X54648Y444637D01*
X55045Y443326D01*
X55691Y442119D01*
X56560Y441060D01*
Y440940D01*
X55691Y439881D01*
X55045Y438674D01*
X54648Y437363D01*
X54514Y436000D01*
X54648Y434637D01*
X55045Y433326D01*
X55691Y432119D01*
X56560Y431060D01*
Y430940D01*
X55691Y429881D01*
X55045Y428674D01*
X54648Y427363D01*
X54514Y426000D01*
X54648Y424637D01*
X55045Y423326D01*
X55691Y422119D01*
X56560Y421060D01*
Y420940D01*
X55691Y419881D01*
X55045Y418674D01*
X54648Y417363D01*
X54514Y416000D01*
X54648Y414637D01*
X55045Y413326D01*
X55691Y412119D01*
X56560Y411060D01*
Y410940D01*
X55691Y409881D01*
X55045Y408674D01*
X54648Y407363D01*
X54514Y406000D01*
X54648Y404637D01*
X55045Y403326D01*
X55691Y402119D01*
X56560Y401060D01*
Y400940D01*
X55691Y399881D01*
X55045Y398674D01*
X54648Y397363D01*
X54514Y396000D01*
X54648Y394637D01*
X55045Y393326D01*
X55691Y392119D01*
X56560Y391060D01*
Y390940D01*
X55691Y389881D01*
X55045Y388674D01*
X54648Y387363D01*
X54542Y386286D01*
X54525Y386157D01*
X46934Y378566D01*
X46132Y377522D01*
X45629Y376305D01*
X45457Y375000D01*
Y350601D01*
X45069Y350129D01*
X44896Y349804D01*
X44401Y349731D01*
X21043Y373089D01*
Y390172D01*
X21050D01*
X21043Y390241D01*
Y391582D01*
X21534Y392500D01*
X21906Y393726D01*
X22031Y395000D01*
X21906Y396274D01*
X21534Y397499D01*
X20931Y398629D01*
X20118Y399618D01*
X19129Y400431D01*
X18000Y401034D01*
X16774Y401406D01*
X15500Y401531D01*
X14226Y401406D01*
X13001Y401034D01*
X11871Y400431D01*
X10882Y399618D01*
X10069Y398629D01*
X10028Y398552D01*
X9543Y398673D01*
Y405411D01*
X17754Y413622D01*
X17805Y413629D01*
X19022Y414132D01*
X20066Y414934D01*
X20867Y415978D01*
X21371Y417195D01*
X21543Y418500D01*
Y419500D01*
Y455457D01*
X101047D01*
Y445547D01*
D02*
G37*
G36*
X140363Y292005D02*
X140172Y291543D01*
X103146D01*
X102955Y292174D01*
X102309Y293381D01*
X101440Y294440D01*
Y294560D01*
X102309Y295619D01*
X102955Y296826D01*
X103352Y298137D01*
X103486Y299500D01*
X103352Y300863D01*
X102955Y302174D01*
X102309Y303381D01*
X101440Y304440D01*
Y304560D01*
X102309Y305619D01*
X102955Y306826D01*
X103352Y308137D01*
X103486Y309500D01*
X103352Y310863D01*
X102955Y312174D01*
X102309Y313381D01*
X101440Y314440D01*
Y314560D01*
X102309Y315619D01*
X102955Y316826D01*
X103352Y318137D01*
X103486Y319500D01*
X103352Y320863D01*
X102955Y322174D01*
X102309Y323381D01*
X101440Y324440D01*
Y324560D01*
X102309Y325619D01*
X102955Y326826D01*
X103352Y328137D01*
X103374Y328355D01*
X103844Y328523D01*
X140363Y292005D01*
D02*
G37*
G36*
X268547Y314762D02*
Y303043D01*
X260043D01*
Y306911D01*
X268085Y314953D01*
X268547Y314762D01*
D02*
G37*
G36*
X184396Y445196D02*
X184457Y445082D01*
Y443741D01*
X184450Y443672D01*
X184457D01*
Y391589D01*
X184411Y391543D01*
X172511D01*
X172297Y391995D01*
X172809Y392619D01*
X173455Y393826D01*
X173852Y395137D01*
X173958Y396214D01*
X173975Y396343D01*
X179066Y401434D01*
X179867Y402478D01*
X180371Y403695D01*
X180543Y405000D01*
X180543Y405000D01*
Y441911D01*
X183901Y445269D01*
X184396Y445196D01*
D02*
G37*
G36*
X311095Y315809D02*
Y311041D01*
X310904Y310851D01*
X310892Y310840D01*
X310893Y310839D01*
X293097Y293043D01*
X291011D01*
X290797Y293495D01*
X291309Y294119D01*
X291955Y295326D01*
X292352Y296637D01*
X292458Y297713D01*
X292475Y297843D01*
X310633Y316001D01*
X311095Y315809D01*
D02*
G37*
G36*
X59525Y289343D02*
X59542Y289213D01*
X59648Y288137D01*
X60045Y286826D01*
X60691Y285619D01*
X61560Y284560D01*
X62619Y283691D01*
X62895Y283543D01*
X62934Y283066D01*
X62133Y282022D01*
X61629Y280805D01*
X61457Y279500D01*
X61585Y278524D01*
X61457Y277547D01*
X61629Y276242D01*
X62133Y275026D01*
X62934Y273981D01*
X63978Y273180D01*
X65195Y272676D01*
X66343Y272525D01*
X74087Y264781D01*
X73789Y264380D01*
X73500Y264534D01*
X72274Y264906D01*
X71000Y265031D01*
X69726Y264906D01*
X68501Y264534D01*
X67371Y263931D01*
X66899Y263543D01*
X63589D01*
X34066Y293066D01*
X33022Y293867D01*
X31805Y294371D01*
X30500Y294543D01*
X2043D01*
Y296638D01*
X2419Y296968D01*
X2500Y296957D01*
X11679D01*
X12598Y296252D01*
X13814Y295748D01*
X15119Y295576D01*
X16424Y295748D01*
X17641Y296252D01*
X18685Y297053D01*
X19285Y297834D01*
X20066Y298434D01*
X20867Y299478D01*
X21371Y300695D01*
X21543Y302000D01*
X21371Y303305D01*
X20867Y304522D01*
X20066Y305566D01*
X20105Y306043D01*
X20381Y306191D01*
X21440Y307060D01*
X22309Y308119D01*
X22955Y309326D01*
X23352Y310637D01*
X23486Y312000D01*
X23352Y313363D01*
X23294Y313555D01*
X23592Y313957D01*
X34911D01*
X59525Y289343D01*
D02*
G37*
G36*
X89934Y337195D02*
X90045Y336826D01*
X90691Y335619D01*
X91560Y334560D01*
Y334440D01*
X90691Y333381D01*
X90045Y332174D01*
X89648Y330863D01*
X89514Y329500D01*
X89648Y328137D01*
X90045Y326826D01*
X90691Y325619D01*
X91560Y324560D01*
Y324440D01*
X90691Y323381D01*
X90045Y322174D01*
X89648Y320863D01*
X89514Y319500D01*
X89648Y318137D01*
X90045Y316826D01*
X90691Y315619D01*
X91560Y314560D01*
Y314440D01*
X90691Y313381D01*
X90045Y312174D01*
X89648Y310863D01*
X89514Y309500D01*
X89648Y308137D01*
X90045Y306826D01*
X90691Y305619D01*
X91560Y304560D01*
Y304440D01*
X90691Y303381D01*
X90045Y302174D01*
X89648Y300863D01*
X89514Y299500D01*
X89648Y298137D01*
X90045Y296826D01*
X90691Y295619D01*
X91560Y294560D01*
Y294440D01*
X90691Y293381D01*
X90045Y292174D01*
X89648Y290863D01*
X89514Y289500D01*
X89648Y288137D01*
X90045Y286826D01*
X90691Y285619D01*
X91560Y284560D01*
Y284440D01*
X90691Y283381D01*
X90045Y282174D01*
X89648Y280863D01*
X89514Y279500D01*
X89648Y278137D01*
X90045Y276826D01*
X90691Y275619D01*
X91560Y274560D01*
X92619Y273691D01*
X93826Y273045D01*
X95137Y272648D01*
X96500Y272514D01*
X97863Y272648D01*
X99174Y273045D01*
X100381Y273691D01*
X101440Y274560D01*
X102309Y275619D01*
X102955Y276826D01*
X103352Y278137D01*
X103486Y279500D01*
X103352Y280863D01*
X103294Y281055D01*
X103592Y281457D01*
X140911D01*
X143025Y279343D01*
X143042Y279214D01*
X143148Y278137D01*
X143545Y276826D01*
X144191Y275619D01*
X145060Y274560D01*
Y274440D01*
X144191Y273381D01*
X143545Y272174D01*
X143148Y270863D01*
X143014Y269500D01*
X143148Y268137D01*
X143545Y266826D01*
X143710Y266519D01*
X143453Y266090D01*
X141591D01*
X141550Y266094D01*
Y266090D01*
X87042D01*
X73475Y279657D01*
X73324Y280805D01*
X72820Y282022D01*
X72019Y283066D01*
X71098Y283772D01*
X71090Y284273D01*
X71440Y284560D01*
X72309Y285619D01*
X72955Y286826D01*
X73352Y288137D01*
X73486Y289500D01*
X73352Y290863D01*
X72955Y292174D01*
X72309Y293381D01*
X71797Y294005D01*
X72011Y294457D01*
X74000D01*
X75305Y294629D01*
X76522Y295132D01*
X77566Y295934D01*
X78966Y297334D01*
X79768Y298378D01*
X80271Y299595D01*
X80443Y300900D01*
Y316534D01*
X80820Y317026D01*
X81177Y317886D01*
X81324Y318242D01*
X81496Y319547D01*
Y329364D01*
X89449Y337316D01*
X89934Y337195D01*
D02*
G37*
G36*
X310893Y247109D02*
X310892Y247108D01*
X310904Y247097D01*
X311095Y246907D01*
Y240960D01*
X310633Y240769D01*
X299835Y251566D01*
X298791Y252367D01*
X298552Y252467D01*
X298650Y252957D01*
X305045D01*
X310893Y247109D01*
D02*
G37*
G36*
X354638Y245043D02*
X355141Y243827D01*
X355847Y242908D01*
Y231686D01*
X355141Y230767D01*
X354638Y229551D01*
X354562Y228975D01*
X354063Y229008D01*
Y233817D01*
X340158D01*
Y231856D01*
X330906D01*
Y233569D01*
X317833D01*
X310942Y240459D01*
X311134Y240921D01*
X330906D01*
Y242634D01*
X340158D01*
Y240776D01*
X354063D01*
Y245586D01*
X354562Y245619D01*
X354638Y245043D01*
D02*
G37*
G36*
Y224179D02*
X355141Y222962D01*
X355847Y222043D01*
Y210821D01*
X355141Y209902D01*
X354638Y208686D01*
X354562Y208110D01*
X354063Y208143D01*
Y212953D01*
X340158D01*
Y210991D01*
X330906D01*
Y212704D01*
X317833D01*
X310942Y219595D01*
X311134Y220057D01*
X330906D01*
Y221769D01*
X340158D01*
Y219912D01*
X354063D01*
Y224722D01*
X354562Y224754D01*
X354638Y224179D01*
D02*
G37*
G36*
X206957Y245449D02*
Y241589D01*
X189005Y223637D01*
X188543Y223829D01*
Y242000D01*
X188371Y243305D01*
X187867Y244522D01*
X187500Y245000D01*
X187494Y245008D01*
X187715Y245457D01*
X205000D01*
X206305Y245629D01*
X206541Y245726D01*
X206957Y245449D01*
D02*
G37*
G36*
X270203Y282505D02*
X269691Y281881D01*
X269045Y280674D01*
X268648Y279363D01*
X268542Y278287D01*
X268525Y278157D01*
X248434Y258066D01*
X247633Y257022D01*
X247129Y255805D01*
X246957Y254500D01*
Y253619D01*
X246555Y253321D01*
X246274Y253406D01*
X245000Y253531D01*
X243726Y253406D01*
X242500Y253034D01*
X241371Y252431D01*
X240382Y251618D01*
X239569Y250629D01*
X238966Y249500D01*
X238594Y248274D01*
X238469Y247000D01*
X238594Y245726D01*
X238966Y244500D01*
X239569Y243371D01*
X240157Y242655D01*
X240373Y242373D01*
X240382Y242382D01*
X240426Y242345D01*
X240983Y241620D01*
X241355Y240721D01*
X241457Y239947D01*
Y176829D01*
X240995Y176637D01*
X237043Y180589D01*
Y231399D01*
X237431Y231871D01*
X238034Y233000D01*
X238406Y234226D01*
X238531Y235500D01*
X238406Y236774D01*
X238034Y238000D01*
X237431Y239129D01*
X236618Y240118D01*
X235629Y240931D01*
X234500Y241534D01*
X233274Y241906D01*
X232000Y242031D01*
X230726Y241906D01*
X229501Y241534D01*
X228371Y240931D01*
X227995Y240622D01*
X227543Y240836D01*
Y268411D01*
X242089Y282957D01*
X269989D01*
X270203Y282505D01*
D02*
G37*
G36*
X190887Y383187D02*
X191191Y382619D01*
X192060Y381560D01*
Y381440D01*
X191191Y380381D01*
X190545Y379174D01*
X190148Y377863D01*
X190014Y376500D01*
X190148Y375137D01*
X190545Y373826D01*
X191191Y372619D01*
X192060Y371560D01*
Y371440D01*
X191191Y370381D01*
X190545Y369174D01*
X190148Y367863D01*
X190014Y366500D01*
X190148Y365137D01*
X190545Y363826D01*
X191191Y362619D01*
X192060Y361560D01*
Y361440D01*
X191191Y360381D01*
X190545Y359174D01*
X190148Y357863D01*
X190014Y356500D01*
X190148Y355137D01*
X190545Y353826D01*
X191191Y352619D01*
X192060Y351560D01*
X193119Y350691D01*
X194326Y350045D01*
X195637Y349648D01*
X197000Y349514D01*
X198363Y349648D01*
X199555Y350009D01*
X199957Y349712D01*
Y255543D01*
X186255D01*
X185998Y255972D01*
X186455Y256826D01*
X186852Y258137D01*
X186986Y259500D01*
X186852Y260863D01*
X186455Y262174D01*
X185809Y263381D01*
X184940Y264440D01*
Y264560D01*
X185809Y265619D01*
X186455Y266826D01*
X186565Y267189D01*
X186919Y267236D01*
X187073Y267243D01*
X187572Y266039D01*
X188373Y264995D01*
X188973Y264534D01*
X189434Y263934D01*
X190478Y263133D01*
X191695Y262629D01*
X193000Y262457D01*
X194305Y262629D01*
X195522Y263133D01*
X196566Y263934D01*
X197027Y264534D01*
X197627Y264995D01*
X198428Y266039D01*
X198932Y267255D01*
X199104Y268561D01*
X198932Y269866D01*
X198428Y271082D01*
X198043Y271584D01*
Y338000D01*
X197871Y339305D01*
X197368Y340522D01*
X196566Y341566D01*
X178066Y360066D01*
X177022Y360868D01*
X175805Y361371D01*
X174500Y361543D01*
X172511D01*
X172297Y361995D01*
X172809Y362619D01*
X173455Y363826D01*
X173852Y365137D01*
X173986Y366500D01*
X173852Y367863D01*
X173455Y369174D01*
X172809Y370381D01*
X171940Y371440D01*
Y371560D01*
X172809Y372619D01*
X173455Y373826D01*
X173852Y375137D01*
X173986Y376500D01*
X173852Y377863D01*
X173455Y379174D01*
X172809Y380381D01*
X172297Y381005D01*
X172511Y381457D01*
X186500D01*
X187805Y381629D01*
X189022Y382133D01*
X190066Y382934D01*
X190393Y383260D01*
X190887Y383187D01*
D02*
G37*
G36*
X164457Y297911D02*
Y254000D01*
X164457Y254000D01*
X164457D01*
X164629Y252695D01*
X165132Y251478D01*
X165934Y250434D01*
X168863Y247505D01*
X168672Y247043D01*
X152000D01*
X150695Y246871D01*
X149478Y246368D01*
X148434Y245566D01*
X145434Y242566D01*
X144632Y241522D01*
X144129Y240305D01*
X143957Y239000D01*
Y235011D01*
X143505Y234797D01*
X142881Y235309D01*
X141674Y235955D01*
X140363Y236352D01*
X139000Y236486D01*
X137637Y236352D01*
X136326Y235955D01*
X135119Y235309D01*
X134060Y234440D01*
X133940D01*
X132881Y235309D01*
X131674Y235955D01*
X130363Y236352D01*
X129000Y236486D01*
X127637Y236352D01*
X126326Y235955D01*
X125119Y235309D01*
X124060Y234440D01*
X123940D01*
X122881Y235309D01*
X121674Y235955D01*
X120363Y236352D01*
X119000Y236486D01*
X117637Y236352D01*
X116326Y235955D01*
X115119Y235309D01*
X114060Y234440D01*
X113940D01*
X112881Y235309D01*
X111674Y235955D01*
X110363Y236352D01*
X109000Y236486D01*
X107637Y236352D01*
X106326Y235955D01*
X105119Y235309D01*
X104060Y234440D01*
X103940D01*
X102881Y235309D01*
X101674Y235955D01*
X100363Y236352D01*
X99000Y236486D01*
X97637Y236352D01*
X96326Y235955D01*
X95119Y235309D01*
X94060Y234440D01*
X93940D01*
X92881Y235309D01*
X91674Y235955D01*
X90363Y236352D01*
X89000Y236486D01*
X87637Y236352D01*
X86326Y235955D01*
X85119Y235309D01*
X84542Y234836D01*
X84090Y235050D01*
Y237244D01*
X85212D01*
Y238991D01*
X86258Y239129D01*
X87474Y239633D01*
X88519Y240434D01*
X89320Y241478D01*
X89627Y242219D01*
X90144Y242893D01*
X90648Y244109D01*
X90820Y245415D01*
X90648Y246720D01*
X90144Y247936D01*
X89996Y248130D01*
Y256004D01*
X141823D01*
X142842Y255870D01*
X144045Y255371D01*
X145050Y254600D01*
X145053Y254553D01*
Y254553D01*
X146098Y253752D01*
X147314Y253248D01*
X148619Y253076D01*
X149925Y253248D01*
X151141Y253752D01*
X152185Y254553D01*
X152785Y255334D01*
X153566Y255934D01*
X153580Y255953D01*
X153600Y255967D01*
X154401Y257012D01*
X154905Y258228D01*
X155077Y259533D01*
X154905Y260839D01*
X154401Y262055D01*
X153600Y263099D01*
X153604Y263104D01*
Y263104D01*
X153649Y263567D01*
X153881Y263691D01*
X154940Y264560D01*
X155809Y265619D01*
X156455Y266826D01*
X156852Y268137D01*
X156986Y269500D01*
X156852Y270863D01*
X156455Y272174D01*
X155809Y273381D01*
X154940Y274440D01*
Y274560D01*
X155809Y275619D01*
X156455Y276826D01*
X156852Y278137D01*
X156986Y279500D01*
X156852Y280863D01*
X156455Y282174D01*
X155809Y283381D01*
X154940Y284440D01*
Y284560D01*
X155809Y285619D01*
X156455Y286826D01*
X156852Y288137D01*
X156986Y289500D01*
X156852Y290863D01*
X156455Y292174D01*
X155809Y293381D01*
X154940Y294440D01*
Y294560D01*
X155809Y295619D01*
X156455Y296826D01*
X156852Y298137D01*
X156986Y299500D01*
X156852Y300863D01*
X156455Y302174D01*
X155809Y303381D01*
X154940Y304440D01*
Y304560D01*
X155809Y305619D01*
X155939Y305861D01*
X156433Y305935D01*
X164457Y297911D01*
D02*
G37*
G36*
X210457Y439911D02*
Y406180D01*
X209958Y406147D01*
X209871Y406805D01*
X209367Y408022D01*
X208566Y409066D01*
X207522Y409867D01*
X206305Y410371D01*
X205000Y410543D01*
X203979D01*
X203325Y410629D01*
X202576Y410940D01*
X202159Y411260D01*
X202101Y411757D01*
X202809Y412619D01*
X203455Y413826D01*
X203852Y415137D01*
X203986Y416500D01*
X203852Y417863D01*
X203455Y419174D01*
X202809Y420381D01*
X201940Y421440D01*
Y421560D01*
X202809Y422619D01*
X203455Y423826D01*
X203852Y425137D01*
X203986Y426500D01*
X203852Y427863D01*
X203455Y429174D01*
X202809Y430381D01*
X201940Y431440D01*
X200881Y432309D01*
X199674Y432955D01*
X198363Y433352D01*
X197000Y433486D01*
X195637Y433352D01*
X194945Y433142D01*
X194543Y433440D01*
Y443710D01*
X194599Y443846D01*
X194627Y443873D01*
X194627Y443873D01*
X194843Y444156D01*
X195431Y444871D01*
X196034Y446000D01*
X196406Y447226D01*
X196531Y448500D01*
X196406Y449774D01*
X196321Y450055D01*
X196619Y450457D01*
X199911D01*
X210457Y439911D01*
D02*
G37*
G36*
X354638Y265908D02*
X355141Y264691D01*
X355847Y263772D01*
Y252551D01*
X355141Y251632D01*
X354638Y250415D01*
X354562Y249839D01*
X354063Y249872D01*
Y254682D01*
X340158D01*
Y252720D01*
X330906D01*
Y254433D01*
X317833D01*
X310942Y261324D01*
X311134Y261786D01*
X330906D01*
Y263499D01*
X340158D01*
Y261641D01*
X354063D01*
Y266451D01*
X354562Y266483D01*
X354638Y265908D01*
D02*
G37*
G36*
Y349366D02*
X355141Y348150D01*
X355847Y347231D01*
Y336009D01*
X355141Y335090D01*
X354638Y333874D01*
X354562Y333298D01*
X354063Y333330D01*
Y338140D01*
X340158D01*
Y336178D01*
X330906D01*
Y337891D01*
X311134D01*
X310942Y338353D01*
X317833Y345244D01*
X330906D01*
Y346957D01*
X340158D01*
Y345099D01*
X354063D01*
Y349909D01*
X354562Y349942D01*
X354638Y349366D01*
D02*
G37*
G36*
X311095Y352770D02*
X310904Y352580D01*
X310892Y352570D01*
X310893Y352569D01*
X304331Y346006D01*
X303929Y346304D01*
X304034Y346500D01*
X304406Y347726D01*
X304531Y349000D01*
X304406Y350274D01*
X304034Y351500D01*
X303431Y352629D01*
X302618Y353618D01*
X301629Y354431D01*
X301552Y354472D01*
X301673Y354957D01*
X311095D01*
Y352770D01*
D02*
G37*
G36*
X131457Y353411D02*
Y343276D01*
X131028Y343019D01*
X131000Y343034D01*
X129774Y343406D01*
X129166Y343466D01*
X102137Y370495D01*
X102329Y370957D01*
X113911D01*
X131457Y353411D01*
D02*
G37*
G36*
X27034Y338834D02*
X27094Y338226D01*
X27466Y337000D01*
X28069Y335871D01*
X28882Y334882D01*
X29871Y334069D01*
X31001Y333466D01*
X32226Y333094D01*
X33500Y332969D01*
X34774Y333094D01*
X36000Y333466D01*
X37129Y334069D01*
X38118Y334882D01*
X38931Y335871D01*
X38972Y335948D01*
X39457Y335827D01*
Y331500D01*
X39629Y330195D01*
X40132Y328978D01*
X40934Y327934D01*
X59525Y309343D01*
X59542Y309213D01*
X59648Y308137D01*
X60045Y306826D01*
X60691Y305619D01*
X61560Y304560D01*
Y304440D01*
X60691Y303381D01*
X60561Y303139D01*
X60067Y303065D01*
X40566Y322566D01*
X39522Y323368D01*
X38305Y323871D01*
X37000Y324043D01*
X23146D01*
X22963Y324646D01*
X23261Y325047D01*
X23453D01*
Y338953D01*
X16828D01*
X16657Y338975D01*
X11042Y344590D01*
X11256Y345042D01*
X12000Y344969D01*
X13274Y345094D01*
X14500Y345466D01*
X15629Y346069D01*
X16101Y346457D01*
X19411D01*
X27034Y338834D01*
D02*
G37*
G36*
X83163Y357895D02*
X71721Y346453D01*
X65543D01*
Y347911D01*
X75989Y358357D01*
X82972D01*
X83163Y357895D01*
D02*
G37*
G36*
X264368Y384500D02*
X259005Y379137D01*
X258543Y379328D01*
Y389671D01*
X259005Y389863D01*
X264368Y384500D01*
D02*
G37*
G36*
X10069Y391371D02*
X10657Y390655D01*
X10873Y390373D01*
X10873Y390373D01*
X10901Y390346D01*
X10957Y390210D01*
Y371000D01*
X10957Y371000D01*
X10957D01*
X11129Y369695D01*
X11632Y368478D01*
X12434Y367434D01*
X23082Y356786D01*
X22805Y356371D01*
X21500Y356543D01*
X16101D01*
X15629Y356931D01*
X14500Y357534D01*
X13274Y357906D01*
X12000Y358031D01*
X10726Y357906D01*
X10445Y357821D01*
X10043Y358119D01*
Y374657D01*
X9871Y375962D01*
X9543Y376754D01*
Y391327D01*
X10028Y391448D01*
X10069Y391371D01*
D02*
G37*
G36*
X56560Y371060D02*
X57619Y370191D01*
X58826Y369545D01*
X60137Y369148D01*
X61500Y369014D01*
X62863Y369148D01*
X64174Y369545D01*
X65381Y370191D01*
X66217Y370877D01*
X66321Y370957D01*
X74240D01*
X74576Y370586D01*
X74469Y369500D01*
X74536Y368814D01*
X74200Y368443D01*
X73900D01*
X72595Y368271D01*
X71378Y367768D01*
X70334Y366966D01*
X56934Y353566D01*
X56133Y352522D01*
X56033Y352283D01*
X55543Y352380D01*
Y371557D01*
X56014Y371725D01*
X56560Y371060D01*
D02*
G37*
G36*
X11457Y455672D02*
Y421589D01*
X934Y411066D01*
X132Y410022D01*
X-371Y408805D01*
X-543Y407500D01*
Y380796D01*
X-919Y380467D01*
X-1500Y380543D01*
X-1581Y380533D01*
X-1957Y380862D01*
Y442911D01*
X10995Y455863D01*
X11457Y455672D01*
D02*
G37*
G36*
X55457Y341575D02*
Y335000D01*
X55629Y333695D01*
X56133Y332478D01*
X56934Y331434D01*
X59434Y328934D01*
X59434D01*
X59434Y328934D01*
X59434Y328934D01*
Y328934D01*
X59580Y328822D01*
X59648Y328137D01*
X60045Y326826D01*
X60691Y325619D01*
X61560Y324560D01*
Y324440D01*
X60691Y323381D01*
X60561Y323139D01*
X60067Y323065D01*
X49543Y333589D01*
Y339690D01*
X49914Y340026D01*
X50500Y339969D01*
X51774Y340094D01*
X53000Y340466D01*
X54129Y341069D01*
X55005Y341788D01*
X55457Y341575D01*
D02*
G37*
G36*
X243978Y307632D02*
X245195Y307129D01*
X246500Y306957D01*
X247476Y307085D01*
X248453Y306957D01*
X249581Y307105D01*
X249957Y306776D01*
Y298000D01*
X250129Y296695D01*
X250633Y295478D01*
X251434Y294434D01*
X252478Y293633D01*
X252717Y293533D01*
X252620Y293043D01*
X240000D01*
X238695Y292871D01*
X237478Y292368D01*
X236434Y291566D01*
X218934Y274066D01*
X218132Y273022D01*
X217629Y271805D01*
X217457Y270500D01*
Y270201D01*
X216983Y270040D01*
X216627Y270505D01*
X216026Y270966D01*
X215566Y271566D01*
X214522Y272368D01*
X213305Y272871D01*
X212000Y273043D01*
X210695Y272871D01*
X210459Y272774D01*
X210043Y273051D01*
Y305047D01*
X223453D01*
Y305239D01*
X223854Y305537D01*
X225137Y305148D01*
X226500Y305014D01*
X227863Y305148D01*
X229174Y305545D01*
X230381Y306191D01*
X231440Y307060D01*
X231560D01*
X232619Y306191D01*
X233826Y305545D01*
X235137Y305148D01*
X236500Y305014D01*
X237863Y305148D01*
X239174Y305545D01*
X240381Y306191D01*
X241440Y307060D01*
X242309Y308119D01*
X242457Y308395D01*
X242934Y308434D01*
X243978Y307632D01*
D02*
G37*
G36*
X9525Y331843D02*
X9547Y331672D01*
Y325047D01*
X9739D01*
X10037Y324646D01*
X9648Y323363D01*
X9514Y322000D01*
X9648Y320637D01*
X10045Y319326D01*
X10691Y318119D01*
X11560Y317060D01*
Y316940D01*
X10691Y315881D01*
X10045Y314674D01*
X9648Y313363D01*
X9514Y312000D01*
X9648Y310637D01*
X10045Y309326D01*
X10691Y308119D01*
X11203Y307495D01*
X10989Y307043D01*
X6043D01*
Y334671D01*
X6505Y334863D01*
X9525Y331843D01*
D02*
G37*
G36*
X354638Y307637D02*
X355141Y306420D01*
X355847Y305502D01*
Y294280D01*
X355141Y293361D01*
X354638Y292144D01*
X354562Y291568D01*
X354063Y291601D01*
Y296411D01*
X340158D01*
Y294449D01*
X330906D01*
Y296162D01*
X311134D01*
X310942Y296624D01*
X317833Y303515D01*
X330906D01*
Y305228D01*
X340158D01*
Y303370D01*
X354063D01*
Y308180D01*
X354562Y308213D01*
X354638Y307637D01*
D02*
G37*
G36*
X-12629Y306069D02*
X-11500Y305466D01*
X-10274Y305094D01*
X-9000Y304969D01*
X-8414Y305026D01*
X-8043Y304691D01*
Y289500D01*
X-7871Y288195D01*
X-7367Y286978D01*
X-6566Y285934D01*
X-5522Y285133D01*
X-4305Y284629D01*
X-3000Y284457D01*
X28411D01*
X57934Y254934D01*
X58978Y254133D01*
X60195Y253629D01*
X61500Y253457D01*
X66899D01*
X67371Y253069D01*
X68501Y252466D01*
X69726Y252094D01*
X71000Y251969D01*
X72274Y252094D01*
X73500Y252466D01*
X74629Y253069D01*
X75618Y253882D01*
X76431Y254871D01*
X77034Y256000D01*
X77406Y257226D01*
X77531Y258500D01*
X77406Y259774D01*
X77034Y260999D01*
X76880Y261289D01*
X77281Y261587D01*
X79910Y258958D01*
Y250756D01*
X74693D01*
Y250953D01*
X60391D01*
X60220Y250975D01*
X38629Y272566D01*
X37585Y273368D01*
X36368Y273871D01*
X35063Y274043D01*
X23101D01*
X22629Y274431D01*
X21499Y275034D01*
X20274Y275406D01*
X19000Y275531D01*
X17726Y275406D01*
X16500Y275034D01*
X15371Y274431D01*
X14382Y273618D01*
X13569Y272629D01*
X12966Y271499D01*
X12594Y270274D01*
X12469Y269000D01*
X12594Y267726D01*
X12966Y266500D01*
X13569Y265371D01*
X14382Y264382D01*
X15371Y263569D01*
X16500Y262966D01*
X17726Y262594D01*
X19000Y262469D01*
X20274Y262594D01*
X21499Y262966D01*
X22629Y263569D01*
X23101Y263957D01*
X32974D01*
X53163Y243767D01*
X53163Y243767D01*
X53161Y243765D01*
X53191Y243740D01*
X53307Y243624D01*
Y240878D01*
X52834Y240717D01*
X52566Y241066D01*
X37066Y256566D01*
X36022Y257367D01*
X34805Y257871D01*
X33500Y258043D01*
X25953D01*
Y259953D01*
X12047D01*
Y246047D01*
X25953D01*
Y247957D01*
X31411D01*
X43957Y235411D01*
Y234321D01*
X43877Y234218D01*
X43191Y233381D01*
X43043Y233105D01*
X42566Y233066D01*
X41522Y233868D01*
X40305Y234371D01*
X39000Y234543D01*
X37695Y234371D01*
X36478Y233868D01*
X35434Y233066D01*
X34834Y232285D01*
X34053Y231685D01*
X33252Y230641D01*
X32748Y229425D01*
X32576Y228119D01*
X32748Y226814D01*
X33252Y225598D01*
X33957Y224679D01*
Y219000D01*
X34129Y217695D01*
X34633Y216478D01*
X35434Y215434D01*
X47213Y203655D01*
X47022Y203193D01*
X37753D01*
X36496Y204450D01*
Y210466D01*
X36324Y211771D01*
X35820Y212987D01*
X35019Y214032D01*
X31532Y217519D01*
X30487Y218320D01*
X29271Y218824D01*
X27966Y218996D01*
X13034D01*
X11729Y218824D01*
X10513Y218320D01*
X9468Y217519D01*
X5981Y214032D01*
X5180Y212987D01*
X4676Y211771D01*
X4504Y210466D01*
Y183453D01*
X4504Y183453D01*
X4504D01*
X4676Y182148D01*
X5180Y180931D01*
X5981Y179887D01*
X8584Y177284D01*
X8648Y176637D01*
X9045Y175326D01*
X9691Y174119D01*
X10560Y173060D01*
Y172940D01*
X9691Y171881D01*
X9045Y170674D01*
X8648Y169363D01*
X8514Y168000D01*
X8648Y166637D01*
X9045Y165326D01*
X9691Y164119D01*
X10560Y163060D01*
Y162940D01*
X9691Y161881D01*
X9045Y160674D01*
X8648Y159363D01*
X8639Y159271D01*
X4981Y155613D01*
X4180Y154569D01*
X3676Y153352D01*
X3504Y152047D01*
Y102953D01*
X3676Y101647D01*
X4180Y100431D01*
X4981Y99387D01*
X7639Y96729D01*
X7648Y96637D01*
X8045Y95326D01*
X8691Y94119D01*
X9377Y93283D01*
X9457Y93179D01*
Y79321D01*
X9377Y79217D01*
X8691Y78381D01*
X8045Y77174D01*
X7648Y75863D01*
X7514Y74500D01*
X7648Y73137D01*
X8045Y71826D01*
X8691Y70619D01*
X9560Y69560D01*
X10619Y68691D01*
X10559Y68453D01*
X10547D01*
Y67562D01*
X10132Y67022D01*
X9629Y65805D01*
X9457Y64500D01*
X9629Y63195D01*
X10132Y61978D01*
X10547Y61438D01*
Y60547D01*
X11438D01*
X11715Y60334D01*
X12315Y59553D01*
X13359Y58752D01*
X14575Y58248D01*
X15881Y58076D01*
X17186Y58248D01*
X18402Y58752D01*
X19321Y59457D01*
X28938D01*
X29868Y58743D01*
X30728Y58386D01*
X31084Y58239D01*
X32390Y58067D01*
X60179D01*
X61098Y57362D01*
X62314Y56858D01*
X63619Y56686D01*
X64925Y56858D01*
X65391Y57051D01*
X66110Y56957D01*
X88911D01*
X93934Y51934D01*
X94978Y51133D01*
X96195Y50629D01*
X97500Y50457D01*
X100679D01*
X101598Y49752D01*
X102814Y49248D01*
X104119Y49076D01*
X105424Y49248D01*
X106641Y49752D01*
X107685Y50553D01*
X108285Y51335D01*
X109066Y51934D01*
X109868Y52978D01*
X110371Y54195D01*
X110543Y55500D01*
X110371Y56805D01*
X109868Y58022D01*
X109066Y59066D01*
X109105Y59543D01*
X109381Y59691D01*
X110440Y60560D01*
X111309Y61619D01*
X111955Y62826D01*
X112352Y64137D01*
X112486Y65500D01*
X112352Y66863D01*
X111955Y68174D01*
X111309Y69381D01*
X110440Y70440D01*
Y70560D01*
X111309Y71619D01*
X111955Y72826D01*
X112352Y74137D01*
X112486Y75500D01*
X112352Y76863D01*
X111963Y78146D01*
X112261Y78547D01*
X112453D01*
Y92453D01*
X112146D01*
X111925Y92901D01*
X112367Y93478D01*
X112871Y94695D01*
X113043Y96000D01*
X113032Y96081D01*
X113362Y96457D01*
X117411D01*
X128525Y85343D01*
X128542Y85214D01*
X128648Y84137D01*
X129045Y82826D01*
X129691Y81619D01*
X130560Y80560D01*
Y80440D01*
X129691Y79381D01*
X129045Y78174D01*
X128648Y76863D01*
X128514Y75500D01*
X128648Y74137D01*
X129045Y72826D01*
X129691Y71619D01*
X130560Y70560D01*
Y70440D01*
X129691Y69381D01*
X129045Y68174D01*
X128648Y66863D01*
X128514Y65500D01*
X128648Y64137D01*
X129045Y62826D01*
X129691Y61619D01*
X130560Y60560D01*
Y60440D01*
X129691Y59381D01*
X129045Y58174D01*
X128648Y56863D01*
X128514Y55500D01*
X128648Y54137D01*
X129045Y52826D01*
X129691Y51619D01*
X130377Y50783D01*
X130457Y50679D01*
Y49729D01*
X126178Y45450D01*
X126178Y45450D01*
X126178Y45450D01*
X125737Y44875D01*
X125377Y44406D01*
X125376Y44406D01*
X125376Y44406D01*
X125128Y43805D01*
X124873Y43190D01*
X124873Y43189D01*
X124873Y43189D01*
X124803Y42658D01*
X124701Y41884D01*
X124701Y41884D01*
X124701Y41884D01*
Y33744D01*
X124701Y33744D01*
X124701Y33744D01*
X124803Y32971D01*
X124873Y32439D01*
X124873Y32439D01*
X124873Y32439D01*
X125128Y31823D01*
X125376Y31222D01*
X125376Y31222D01*
X125377Y31222D01*
X125737Y30753D01*
X126178Y30178D01*
X126178Y30178D01*
X126178Y30178D01*
X130457Y25899D01*
Y22453D01*
X119547D01*
Y8547D01*
X133453D01*
Y8739D01*
X133854Y9037D01*
X135137Y8648D01*
X136500Y8514D01*
X137863Y8648D01*
X139174Y9045D01*
X140381Y9691D01*
X141440Y10560D01*
X141560D01*
X142619Y9691D01*
X143826Y9045D01*
X145137Y8648D01*
X146500Y8514D01*
X147863Y8648D01*
X149174Y9045D01*
X150381Y9691D01*
X151440Y10560D01*
X151560D01*
X152619Y9691D01*
X153826Y9045D01*
X155137Y8648D01*
X156500Y8514D01*
X157863Y8648D01*
X159174Y9045D01*
X160381Y9691D01*
X161440Y10560D01*
X161560D01*
X162619Y9691D01*
X163826Y9045D01*
X165137Y8648D01*
X166500Y8514D01*
X167863Y8648D01*
X169174Y9045D01*
X170381Y9691D01*
X171440Y10560D01*
X172309Y11619D01*
X172955Y12826D01*
X173352Y14137D01*
X173486Y15500D01*
X173352Y16863D01*
X172991Y18055D01*
X173288Y18457D01*
X182903D01*
X183695Y18129D01*
X185000Y17957D01*
X186305Y18129D01*
X187522Y18632D01*
X188566Y19434D01*
X189367Y20478D01*
X189871Y21695D01*
X190043Y23000D01*
Y32327D01*
X190528Y32448D01*
X190569Y32371D01*
X191382Y31382D01*
X192371Y30569D01*
X193500Y29966D01*
X194726Y29594D01*
X196000Y29469D01*
X197274Y29594D01*
X198500Y29966D01*
X199629Y30569D01*
X200618Y31382D01*
X201431Y32371D01*
X202034Y33500D01*
X202406Y34726D01*
X202466Y35334D01*
X204089Y36957D01*
X262996D01*
X263728Y36356D01*
X264902Y35728D01*
X266176Y35342D01*
X267500Y35211D01*
X268824Y35342D01*
X270098Y35728D01*
X271271Y36356D01*
X272004Y36957D01*
X286608D01*
X286904Y36898D01*
X287154Y36730D01*
Y36730D01*
X287154Y36730D01*
X287192Y36692D01*
X287192Y36692D01*
X287444Y36499D01*
X288229Y35855D01*
X289402Y35228D01*
X290676Y34842D01*
X292000Y34711D01*
X293324Y34842D01*
X294598Y35228D01*
X295772Y35855D01*
X296504Y36457D01*
X313172D01*
X313363Y35995D01*
X294831Y17463D01*
X294598Y17560D01*
X293293Y17732D01*
X292143Y17580D01*
X292064Y17613D01*
X290758Y17785D01*
X289453Y17613D01*
X288237Y17109D01*
X288151Y17043D01*
X272001D01*
X271263Y17609D01*
X270047Y18113D01*
X268742Y18285D01*
X267500Y18121D01*
X266258Y18285D01*
X264953Y18113D01*
X263737Y17609D01*
X262999Y17043D01*
X251500D01*
X250195Y16871D01*
X249838Y16724D01*
X248978Y16367D01*
X247934Y15566D01*
X242411Y10043D01*
X219043D01*
Y15500D01*
X218871Y16805D01*
X218368Y18022D01*
X217566Y19066D01*
X217066Y19566D01*
X216022Y20368D01*
X214805Y20871D01*
X213500Y21043D01*
X211584D01*
X211082Y21428D01*
X209866Y21932D01*
X208561Y22104D01*
X207255Y21932D01*
X206039Y21428D01*
X204995Y20627D01*
X204534Y20027D01*
X203934Y19566D01*
X203133Y18522D01*
X202629Y17305D01*
X202457Y16000D01*
X202629Y14695D01*
X203133Y13478D01*
X203934Y12434D01*
X204534Y11973D01*
X204995Y11373D01*
X206039Y10572D01*
X207255Y10068D01*
X208561Y9896D01*
X208581Y9899D01*
X208957Y9569D01*
Y5500D01*
X209129Y4195D01*
X209632Y2978D01*
X210006Y2492D01*
X209785Y2043D01*
X-25895D01*
X-26228Y304963D01*
X-25826Y305262D01*
X-25274Y305094D01*
X-24000Y304969D01*
X-22726Y305094D01*
X-21500Y305466D01*
X-20371Y306069D01*
X-19899Y306457D01*
X-13101D01*
X-12629Y306069D01*
D02*
G37*
G36*
X311095Y337852D02*
Y331069D01*
X311052Y330742D01*
X311052D01*
X311054Y330738D01*
X311017Y330649D01*
X291933Y311565D01*
X291439Y311639D01*
X291309Y311881D01*
X290623Y312718D01*
X290543Y312821D01*
Y317954D01*
X310633Y338044D01*
X311095Y337852D01*
D02*
G37*
G36*
X354638Y328501D02*
X355141Y327285D01*
X355847Y326366D01*
Y315144D01*
X355141Y314225D01*
X354638Y313009D01*
X354562Y312433D01*
X354063Y312466D01*
Y317276D01*
X340158D01*
Y315314D01*
X330906D01*
Y317027D01*
X312312D01*
X312121Y317489D01*
X318142Y323510D01*
X318147Y323506D01*
X318186Y323554D01*
X319012Y324379D01*
X330906D01*
Y326092D01*
X340158D01*
Y324235D01*
X354063D01*
Y329045D01*
X354562Y329077D01*
X354638Y328501D01*
D02*
G37*
G36*
X291487Y349189D02*
X291469Y349000D01*
X291594Y347726D01*
X291966Y346500D01*
X292569Y345371D01*
X292957Y344899D01*
Y342589D01*
X282072Y331704D01*
X281587Y331826D01*
X281534Y331999D01*
X280931Y333129D01*
X280118Y334118D01*
X279129Y334931D01*
X277999Y335534D01*
X277826Y335587D01*
X277704Y336072D01*
X291035Y349403D01*
X291487Y349189D01*
D02*
G37*
G36*
X143047Y322547D02*
X143239D01*
X143537Y322146D01*
X143148Y320863D01*
X143014Y319500D01*
X143148Y318137D01*
X143545Y316826D01*
X144191Y315619D01*
X145060Y314560D01*
Y314440D01*
X144191Y313381D01*
X144061Y313139D01*
X143567Y313065D01*
X132637Y323995D01*
X132828Y324457D01*
X143047D01*
Y322547D01*
D02*
G37*
G36*
X210629Y398695D02*
X211133Y397478D01*
X211934Y396434D01*
X231457Y376911D01*
Y317511D01*
X231005Y317297D01*
X230381Y317809D01*
X229174Y318455D01*
X227863Y318852D01*
X226500Y318986D01*
X225137Y318852D01*
X223854Y318463D01*
X223453Y318761D01*
Y318953D01*
X210043D01*
Y399320D01*
X210542Y399353D01*
X210629Y398695D01*
D02*
G37*
G36*
X310893Y226244D02*
X310892Y226243D01*
X310904Y226233D01*
X311095Y226043D01*
Y220096D01*
X310633Y219904D01*
X292494Y238043D01*
X292489Y238055D01*
Y238055D01*
D01*
D01*
Y238055D01*
X292489D01*
X292489Y238055D01*
D01*
X292458Y238286D01*
X292352Y239363D01*
X291955Y240674D01*
X291309Y241881D01*
X290797Y242505D01*
X291011Y242957D01*
X294180D01*
X310893Y226244D01*
D02*
G37*
G36*
X384957Y108200D02*
Y79800D01*
X384457Y79776D01*
X384399Y80372D01*
X383998Y81692D01*
X383348Y82908D01*
X382474Y83974D01*
X381408Y84848D01*
X380192Y85498D01*
X378872Y85899D01*
X377500Y86034D01*
X376128Y85899D01*
X374808Y85498D01*
X373828Y84974D01*
X373475Y85328D01*
X373998Y86308D01*
X374399Y87628D01*
X374534Y89000D01*
X374399Y90372D01*
X373998Y91692D01*
X373348Y92908D01*
X372474Y93974D01*
Y94026D01*
X373348Y95092D01*
X373998Y96308D01*
X374399Y97628D01*
X374534Y99000D01*
X374399Y100372D01*
X373998Y101692D01*
X373475Y102672D01*
X373828Y103025D01*
X374808Y102501D01*
X376128Y102101D01*
X377500Y101966D01*
X378872Y102101D01*
X380192Y102501D01*
X381408Y103152D01*
X382474Y104026D01*
X383348Y105092D01*
X383998Y106308D01*
X384399Y107628D01*
X384457Y108224D01*
X384957Y108200D01*
D02*
G37*
G36*
X58047Y95681D02*
Y87807D01*
X59957D01*
Y83843D01*
X58047D01*
Y69937D01*
X62857D01*
X62890Y69438D01*
X62314Y69362D01*
X61098Y68858D01*
X60179Y68153D01*
X42439D01*
X42247Y68615D01*
X43383Y69751D01*
X44305Y69873D01*
X45522Y70377D01*
X46566Y71178D01*
X47368Y72223D01*
X47871Y73439D01*
X48043Y74744D01*
X47928Y75622D01*
X48043Y76500D01*
X47928Y77378D01*
X48043Y78256D01*
X47871Y79561D01*
X47368Y80778D01*
X46566Y81822D01*
X45522Y82623D01*
X44305Y83127D01*
X43383Y83249D01*
X35043Y91589D01*
Y97008D01*
X35192Y97202D01*
X35695Y98418D01*
X35867Y99723D01*
X35842Y99911D01*
X36172Y100287D01*
X36756D01*
Y101457D01*
X38496D01*
X39228Y100856D01*
X40402Y100228D01*
X41676Y99842D01*
X43000Y99711D01*
X44324Y99842D01*
X45598Y100228D01*
X46771Y100856D01*
X47504Y101457D01*
X58047D01*
Y95681D01*
D02*
G37*
G36*
X241457Y87240D02*
Y48500D01*
X241599Y47419D01*
X241269Y47043D01*
X238331D01*
X238110Y47492D01*
X238867Y48478D01*
X239371Y49695D01*
X239543Y51000D01*
Y87141D01*
X239914Y87477D01*
X240000Y87469D01*
X241086Y87576D01*
X241457Y87240D01*
D02*
G37*
G36*
X208026Y141326D02*
X208152Y141092D01*
X208848Y140243D01*
X208957Y140102D01*
Y121589D01*
X181434Y94066D01*
X180632Y93022D01*
X180129Y91805D01*
X179957Y90500D01*
Y36844D01*
X179541Y36566D01*
X178805Y36871D01*
X177500Y37043D01*
X171543D01*
Y50679D01*
X171623Y50783D01*
X172309Y51619D01*
X172955Y52826D01*
X173352Y54137D01*
X173486Y55500D01*
X173352Y56863D01*
X172955Y58174D01*
X172309Y59381D01*
X171440Y60440D01*
Y60560D01*
X172309Y61619D01*
X172955Y62826D01*
X173352Y64137D01*
X173486Y65500D01*
X173352Y66863D01*
X172955Y68174D01*
X172309Y69381D01*
X171440Y70440D01*
Y70560D01*
X172309Y71619D01*
X172955Y72826D01*
X173352Y74137D01*
X173486Y75500D01*
X173352Y76863D01*
X172955Y78174D01*
X172309Y79381D01*
X171440Y80440D01*
Y80560D01*
X172309Y81619D01*
X172955Y82826D01*
X173352Y84137D01*
X173486Y85500D01*
X173352Y86863D01*
X172955Y88174D01*
X172309Y89381D01*
X171440Y90440D01*
X170381Y91309D01*
X169174Y91955D01*
X167863Y92352D01*
X166500Y92486D01*
X165137Y92352D01*
X163826Y91955D01*
X162619Y91309D01*
X161560Y90440D01*
X160691Y89381D01*
X160045Y88174D01*
X159648Y86863D01*
X159514Y85500D01*
X159648Y84137D01*
X160045Y82826D01*
X160691Y81619D01*
X161560Y80560D01*
Y80440D01*
X160691Y79381D01*
X160045Y78174D01*
X159798Y77359D01*
X159313Y77237D01*
X131056Y105495D01*
X131247Y105957D01*
X187000D01*
X188305Y106129D01*
X189522Y106632D01*
X190566Y107434D01*
X190566Y107434D01*
X190566Y107434D01*
X191566Y108434D01*
X191566Y108434D01*
X191566Y108434D01*
X192367Y109478D01*
X192724Y110338D01*
X192871Y110695D01*
X193043Y112000D01*
X193043Y112000D01*
X193043Y112000D01*
Y112000D01*
Y126911D01*
X207532Y141400D01*
X208026Y141326D01*
D02*
G37*
G36*
X170957Y147724D02*
Y133089D01*
X168843Y130975D01*
X168713Y130958D01*
X167637Y130852D01*
X166326Y130455D01*
X165119Y129809D01*
X164495Y129297D01*
X164043Y129511D01*
Y141973D01*
X165274Y142094D01*
X166499Y142466D01*
X167629Y143069D01*
X168618Y143882D01*
X169431Y144871D01*
X170034Y146001D01*
X170406Y147226D01*
X170457Y147749D01*
X170957Y147724D01*
D02*
G37*
G36*
X55119Y118191D02*
X56326Y117545D01*
X57637Y117148D01*
X59000Y117014D01*
X60363Y117148D01*
X61674Y117545D01*
X62881Y118191D01*
X63738Y118894D01*
X64232Y118820D01*
X64370Y118614D01*
X64457Y118179D01*
Y110667D01*
X64008Y110446D01*
X63459Y110868D01*
X62242Y111371D01*
X60937Y111543D01*
X47504D01*
X46771Y112144D01*
X45598Y112772D01*
X44324Y113158D01*
X43000Y113289D01*
X41676Y113158D01*
X40402Y112772D01*
X39228Y112144D01*
X38496Y111543D01*
X36756D01*
Y112618D01*
X36756Y112618D01*
X36756D01*
X36608Y112976D01*
X38172Y114540D01*
D01*
Y114540D01*
X38172D01*
X38172Y114540D01*
D01*
X38172Y114540D01*
D01*
D01*
D01*
D01*
D01*
D01*
D01*
Y114540D01*
Y114540D01*
X38172Y114540D01*
X40679Y117047D01*
X45953D01*
Y117239D01*
X46354Y117537D01*
X47637Y117148D01*
X49000Y117014D01*
X50363Y117148D01*
X51674Y117545D01*
X52881Y118191D01*
X53940Y119060D01*
X54060D01*
X55119Y118191D01*
D02*
G37*
G36*
X85119D02*
X86326Y117545D01*
X87637Y117148D01*
X89000Y117014D01*
X90363Y117148D01*
X91674Y117545D01*
X92881Y118191D01*
X93505Y118703D01*
X93957Y118489D01*
Y115089D01*
X89334Y110466D01*
X88726Y110406D01*
X87501Y110034D01*
X86527Y109514D01*
X85931Y110629D01*
X85343Y111345D01*
X85127Y111627D01*
X85118Y111618D01*
X85074Y111655D01*
X84517Y112380D01*
X84145Y113279D01*
X84043Y114053D01*
Y118489D01*
X84495Y118703D01*
X85119Y118191D01*
D02*
G37*
G36*
X149575Y455086D02*
X149469Y454000D01*
X149594Y452726D01*
X149966Y451501D01*
X150569Y450371D01*
X150957Y449899D01*
Y416089D01*
X146334Y411466D01*
X145914Y411424D01*
X145543Y411760D01*
Y427000D01*
X145371Y428305D01*
X144868Y429522D01*
X144066Y430566D01*
X133043Y441589D01*
Y447679D01*
X133123Y447783D01*
X133809Y448619D01*
X134455Y449826D01*
X134470Y449877D01*
X134962Y449966D01*
X135181Y449681D01*
X136007Y449047D01*
X136968Y448649D01*
X137500Y448579D01*
Y452500D01*
X138000D01*
Y453000D01*
X141921D01*
X141851Y453532D01*
X141453Y454493D01*
X141058Y455008D01*
X141279Y455457D01*
X149240D01*
X149575Y455086D01*
D02*
G37*
G36*
X98547Y82854D02*
Y78547D01*
X98739D01*
X99037Y78146D01*
X98648Y76863D01*
X98514Y75500D01*
X98648Y74137D01*
X99045Y72826D01*
X99691Y71619D01*
X100560Y70560D01*
Y70440D01*
X99691Y69381D01*
X99045Y68174D01*
X98648Y66863D01*
X98514Y65500D01*
X98648Y64137D01*
X99045Y62826D01*
X99691Y61619D01*
X100203Y60995D01*
X100046Y60664D01*
X99554Y60579D01*
X94566Y65566D01*
X93522Y66368D01*
X92305Y66871D01*
X91000Y67043D01*
X86043D01*
Y81957D01*
X95000D01*
X96305Y82129D01*
X97522Y82632D01*
X98099Y83075D01*
X98547Y82854D01*
D02*
G37*
G36*
X155193Y67093D02*
X155189Y67089D01*
X155249Y67038D01*
X160352Y61934D01*
X160641Y61713D01*
X160691Y61619D01*
X161560Y60560D01*
Y60440D01*
X160691Y59381D01*
X160190Y58444D01*
X159691Y58403D01*
X159566Y58566D01*
X142475Y75657D01*
X142458Y75787D01*
X142352Y76863D01*
X141955Y78174D01*
X141309Y79381D01*
X140440Y80440D01*
Y80560D01*
X140784Y80979D01*
X141283Y81003D01*
X155193Y67093D01*
D02*
G37*
G36*
X150957Y52911D02*
Y23500D01*
X151129Y22195D01*
X151632Y20978D01*
X151744Y20834D01*
X151384Y20486D01*
X150381Y21309D01*
X149174Y21955D01*
X147863Y22352D01*
X146500Y22486D01*
X145137Y22352D01*
X143826Y21955D01*
X142619Y21309D01*
X141756Y20602D01*
X141260Y20659D01*
X140939Y21076D01*
X140629Y21825D01*
X140543Y22479D01*
Y27988D01*
X140543Y27988D01*
X140543Y27988D01*
X140441Y28762D01*
X140371Y29294D01*
X140371Y29294D01*
X140371Y29294D01*
X140116Y29909D01*
X139867Y30510D01*
X139867Y30510D01*
X139867Y30510D01*
X139507Y30979D01*
X139066Y31554D01*
X139066Y31554D01*
X139066Y31554D01*
X134787Y35833D01*
Y39795D01*
X139066Y44074D01*
X139066Y44074D01*
X139066Y44074D01*
X139507Y44649D01*
X139867Y45118D01*
X139867Y45118D01*
X139867Y45118D01*
X140116Y45719D01*
X140371Y46335D01*
X140371Y46335D01*
X140371Y46335D01*
X140441Y46867D01*
X140543Y47640D01*
X140543Y47640D01*
X140543Y47640D01*
Y50679D01*
X140623Y50783D01*
X141309Y51619D01*
X141955Y52826D01*
X142352Y54137D01*
X142486Y55500D01*
X142352Y56863D01*
X141955Y58174D01*
X141309Y59381D01*
X140440Y60440D01*
Y60560D01*
X141309Y61619D01*
X141439Y61861D01*
X141933Y61935D01*
X150957Y52911D01*
D02*
G37*
G36*
X384957Y68710D02*
Y2043D01*
X349358D01*
X349149Y2497D01*
X349264Y2632D01*
X350153Y4082D01*
X350803Y5652D01*
X351200Y7305D01*
X351333Y9000D01*
X351200Y10695D01*
X350803Y12348D01*
X350153Y13918D01*
X349264Y15368D01*
X348160Y16660D01*
X346868Y17764D01*
X345418Y18653D01*
X343848Y19303D01*
X342195Y19700D01*
X340500Y19833D01*
X338805Y19700D01*
X337152Y19303D01*
X335582Y18653D01*
X334132Y17764D01*
X332840Y16660D01*
X331736Y15368D01*
X330847Y13918D01*
X330197Y12348D01*
X329800Y10695D01*
X329667Y9000D01*
X329800Y7305D01*
X330197Y5652D01*
X330847Y4082D01*
X331736Y2632D01*
X331851Y2497D01*
X331642Y2043D01*
X249328D01*
X249137Y2505D01*
X253589Y6957D01*
X262999D01*
X263737Y6391D01*
X264953Y5887D01*
X266258Y5715D01*
X267500Y5879D01*
X268742Y5715D01*
X270047Y5887D01*
X271263Y6391D01*
X272001Y6957D01*
X286608D01*
X286904Y6898D01*
X287191Y6706D01*
X287192Y6692D01*
Y6692D01*
X288237Y5891D01*
X289453Y5387D01*
X290758Y5215D01*
X292064Y5387D01*
X292143Y5420D01*
X293293Y5268D01*
X294598Y5440D01*
X295814Y5944D01*
X296582Y6533D01*
X297305Y6629D01*
X298522Y7132D01*
X299566Y7934D01*
X320089Y28457D01*
X352528D01*
X352629Y27695D01*
X353133Y26478D01*
X353934Y25434D01*
X354978Y24633D01*
X356195Y24129D01*
X357500Y23957D01*
X361989D01*
X362203Y23505D01*
X361691Y22881D01*
X361045Y21674D01*
X360648Y20363D01*
X360514Y19000D01*
X360648Y17637D01*
X361045Y16326D01*
X361691Y15119D01*
X362560Y14060D01*
X363619Y13191D01*
X364826Y12545D01*
X366137Y12148D01*
X367500Y12014D01*
X368863Y12148D01*
X370174Y12545D01*
X371381Y13191D01*
X372440Y14060D01*
X373309Y15119D01*
X373955Y16326D01*
X374352Y17637D01*
X374486Y19000D01*
X374352Y20363D01*
X373955Y21674D01*
X373309Y22881D01*
X372440Y23940D01*
X371381Y24809D01*
X371105Y24957D01*
X371066Y25434D01*
X371867Y26478D01*
X372371Y27695D01*
X372543Y29000D01*
X372371Y30305D01*
X371867Y31522D01*
X371066Y32566D01*
X371105Y33043D01*
X371381Y33191D01*
X372440Y34060D01*
X373309Y35119D01*
X373955Y36326D01*
X374352Y37637D01*
X374486Y39000D01*
X374352Y40363D01*
X373955Y41674D01*
X373309Y42881D01*
X372440Y43940D01*
X372438Y43942D01*
Y44062D01*
X373307Y45120D01*
X373952Y46327D01*
X374349Y47638D01*
X374484Y49000D01*
X374349Y50362D01*
X373952Y51673D01*
X373307Y52880D01*
X372438Y53938D01*
Y54062D01*
X373307Y55120D01*
X373952Y56327D01*
X374349Y57638D01*
X374484Y59000D01*
X374349Y60362D01*
X373952Y61673D01*
X373353Y62794D01*
X373706Y63147D01*
X374828Y62548D01*
X376138Y62151D01*
X377500Y62016D01*
X378862Y62151D01*
X380172Y62548D01*
X381380Y63193D01*
X382438Y64062D01*
X383307Y65120D01*
X383952Y66328D01*
X384349Y67638D01*
X384457Y68734D01*
X384957Y68710D01*
D02*
G37*
G36*
X23244Y102926D02*
Y100287D01*
X23828D01*
X24158Y99911D01*
X24133Y99723D01*
X24305Y98418D01*
X24809Y97202D01*
X24957Y97008D01*
Y89500D01*
X25129Y88195D01*
X25633Y86978D01*
X26434Y85934D01*
X35868Y76500D01*
X28911Y69543D01*
X20011D01*
X19797Y69995D01*
X20309Y70619D01*
X20955Y71826D01*
X21352Y73137D01*
X21486Y74500D01*
X21352Y75863D01*
X20955Y77174D01*
X20309Y78381D01*
X19623Y79217D01*
X19543Y79321D01*
Y93179D01*
X19623Y93283D01*
X20309Y94119D01*
X20955Y95326D01*
X21352Y96637D01*
X21486Y98000D01*
X21352Y99363D01*
X20955Y100674D01*
X20309Y101881D01*
X19797Y102505D01*
X20011Y102957D01*
X23008D01*
X23244Y102926D01*
D02*
G37*
G36*
X214957Y112671D02*
Y81089D01*
X202933Y69065D01*
X202439Y69139D01*
X202309Y69381D01*
X201440Y70440D01*
Y70560D01*
X202309Y71619D01*
X202955Y72826D01*
X203352Y74137D01*
X203486Y75500D01*
X203352Y76863D01*
X202955Y78174D01*
X202309Y79381D01*
X201440Y80440D01*
X200381Y81309D01*
X199174Y81955D01*
X199123Y81970D01*
X199034Y82462D01*
X199319Y82681D01*
X199953Y83507D01*
X200351Y84468D01*
X200421Y85000D01*
X192579D01*
X192649Y84468D01*
X193047Y83507D01*
X193681Y82681D01*
X193966Y82462D01*
X193877Y81970D01*
X193826Y81955D01*
X192619Y81309D01*
X191560Y80440D01*
X190691Y79381D01*
X190528Y79077D01*
X190043Y79198D01*
Y88411D01*
X214495Y112863D01*
X214957Y112671D01*
D02*
G37*
G36*
X70822Y87633D02*
X71682Y87276D01*
X72038Y87129D01*
X73343Y86957D01*
X75638D01*
X75968Y86581D01*
X75961Y86532D01*
X75957Y86500D01*
Y67043D01*
X72220D01*
X71493Y67139D01*
X70652Y67487D01*
X69949Y68027D01*
X69947Y68057D01*
Y68057D01*
X68902Y68858D01*
X67686Y69362D01*
X67110Y69438D01*
X67143Y69937D01*
X71953D01*
Y83843D01*
X70043D01*
Y87807D01*
X70594D01*
X70822Y87633D01*
D02*
G37*
G36*
X170957Y149276D02*
X170457Y149251D01*
X170406Y149774D01*
X170034Y150999D01*
X169431Y152129D01*
X168618Y153118D01*
X167629Y153931D01*
X166499Y154534D01*
X165274Y154906D01*
X164000Y155031D01*
X162726Y154906D01*
X161501Y154534D01*
X160371Y153931D01*
X159899Y153543D01*
X159500D01*
X158195Y153371D01*
X156978Y152867D01*
X155934Y152066D01*
X155434Y151566D01*
X154632Y150522D01*
X154129Y149305D01*
X153957Y148000D01*
Y135328D01*
X153495Y135137D01*
X133066Y155566D01*
X132022Y156368D01*
X131783Y156466D01*
X131880Y156957D01*
X170957D01*
Y149276D01*
D02*
G37*
G36*
X243957Y447000D02*
X243957Y447000D01*
X243957D01*
X244129Y445695D01*
X244633Y444478D01*
X245434Y443434D01*
X253457Y435411D01*
Y413829D01*
X252995Y413637D01*
X247066Y419566D01*
X246022Y420367D01*
X244805Y420871D01*
X243500Y421043D01*
X238011D01*
X237797Y421495D01*
X238309Y422119D01*
X238955Y423326D01*
X239352Y424637D01*
X239486Y426000D01*
X239352Y427363D01*
X238955Y428674D01*
X238309Y429881D01*
X237440Y430940D01*
X236381Y431809D01*
X235174Y432455D01*
X235123Y432470D01*
X235034Y432962D01*
X235319Y433181D01*
X235953Y434007D01*
X236351Y434968D01*
X236421Y435500D01*
X228579D01*
X228649Y434968D01*
X229047Y434007D01*
X229681Y433181D01*
X229966Y432962D01*
X229877Y432470D01*
X229826Y432455D01*
X228619Y431809D01*
X227560Y430940D01*
X226691Y429881D01*
X226045Y428674D01*
X225648Y427363D01*
X225514Y426000D01*
X225648Y424637D01*
X226045Y423326D01*
X226691Y422119D01*
X227560Y421060D01*
Y420940D01*
X226691Y419881D01*
X226045Y418674D01*
X225648Y417363D01*
X225514Y416000D01*
X225648Y414637D01*
X226037Y413354D01*
X225739Y412953D01*
X225547D01*
Y399047D01*
X239453D01*
Y410957D01*
X241411D01*
X248457Y403911D01*
Y347101D01*
X248069Y346629D01*
X247466Y345499D01*
X247094Y344274D01*
X246969Y343000D01*
X247094Y341726D01*
X247466Y340500D01*
X248069Y339371D01*
X248882Y338382D01*
X249871Y337569D01*
X251000Y336966D01*
X252226Y336594D01*
X253500Y336469D01*
X254774Y336594D01*
X255999Y336966D01*
X257129Y337569D01*
X258118Y338382D01*
X258931Y339371D01*
X259534Y340500D01*
X259906Y341726D01*
X260031Y343000D01*
X259906Y344274D01*
X259534Y345499D01*
X258931Y346629D01*
X258543Y347101D01*
Y353968D01*
X258972Y354225D01*
X259902Y353728D01*
X261176Y353342D01*
X262500Y353211D01*
X263824Y353342D01*
X265098Y353728D01*
X266271Y354356D01*
X267300Y355200D01*
X268144Y356228D01*
X268772Y357402D01*
X269158Y358676D01*
X269289Y360000D01*
X269158Y361324D01*
X268772Y362598D01*
X268144Y363772D01*
X267543Y364504D01*
Y373411D01*
X271657Y377525D01*
X271786Y377542D01*
X272863Y377648D01*
X274174Y378045D01*
X275381Y378691D01*
X276005Y379203D01*
X276457Y378989D01*
Y371000D01*
X276629Y369695D01*
X277133Y368478D01*
X277934Y367434D01*
X285687Y359681D01*
X285591Y358951D01*
X285186Y357974D01*
X284672Y357304D01*
X246343Y318975D01*
X245195Y318824D01*
X243978Y318320D01*
X242934Y317519D01*
X242228Y316598D01*
X241900Y316593D01*
X241543Y316943D01*
Y379000D01*
X241543Y379000D01*
X241543Y379000D01*
Y379000D01*
X241543D01*
X241543Y379000D01*
X241371Y380305D01*
X241224Y380662D01*
X240867Y381522D01*
X240066Y382566D01*
X220543Y402089D01*
Y442000D01*
X220371Y443305D01*
X219867Y444522D01*
X219066Y445566D01*
X209637Y454995D01*
X209828Y455457D01*
X243957D01*
Y447000D01*
D02*
G37*
G36*
X178457Y205601D02*
X178069Y205129D01*
X177466Y203999D01*
X177094Y202774D01*
X176969Y201500D01*
X177094Y200226D01*
X177466Y199001D01*
X178069Y197871D01*
X178882Y196882D01*
X179871Y196069D01*
X181000Y195466D01*
X182226Y195094D01*
X183500Y194969D01*
X184774Y195094D01*
X184900Y195013D01*
X184990Y194334D01*
X185493Y193117D01*
X186295Y192073D01*
X186895Y191613D01*
X187014Y191457D01*
X187355Y191012D01*
X187434Y190934D01*
X188478Y190132D01*
X189695Y189629D01*
X191000Y189457D01*
X192305Y189629D01*
X193522Y190132D01*
X194008Y190506D01*
X194457Y190285D01*
Y158589D01*
X190834Y154966D01*
X190226Y154906D01*
X189000Y154534D01*
X187871Y153931D01*
X186882Y153118D01*
X186069Y152129D01*
X185466Y150999D01*
X185094Y149774D01*
X184969Y148500D01*
X185094Y147226D01*
X185466Y146001D01*
X186069Y144871D01*
X186882Y143882D01*
X187871Y143069D01*
X189000Y142466D01*
X190226Y142094D01*
X191500Y141969D01*
X192774Y142094D01*
X193495Y142313D01*
X193752Y141884D01*
X184434Y132566D01*
X183633Y131522D01*
X183129Y130305D01*
X182957Y129000D01*
Y116043D01*
X113601D01*
X113129Y116431D01*
X111999Y117034D01*
X111807Y117093D01*
X111758Y117590D01*
X112881Y118191D01*
X113940Y119060D01*
X114060D01*
X115119Y118191D01*
X116326Y117545D01*
X117637Y117148D01*
X119000Y117014D01*
X120363Y117148D01*
X121674Y117545D01*
X122881Y118191D01*
X123940Y119060D01*
X124060D01*
X125119Y118191D01*
X126326Y117545D01*
X127637Y117148D01*
X129000Y117014D01*
X130363Y117148D01*
X131674Y117545D01*
X132881Y118191D01*
X133940Y119060D01*
X134060D01*
X135119Y118191D01*
X136326Y117545D01*
X137637Y117148D01*
X139000Y117014D01*
X140363Y117148D01*
X141674Y117545D01*
X142881Y118191D01*
X143940Y119060D01*
X144060D01*
X145119Y118191D01*
X146326Y117545D01*
X147637Y117148D01*
X149000Y117014D01*
X150363Y117148D01*
X151674Y117545D01*
X152881Y118191D01*
X153940Y119060D01*
X154060D01*
X155119Y118191D01*
X156326Y117545D01*
X157637Y117148D01*
X159000Y117014D01*
X160363Y117148D01*
X161674Y117545D01*
X162881Y118191D01*
X163940Y119060D01*
X164060D01*
X165119Y118191D01*
X166326Y117545D01*
X167637Y117148D01*
X169000Y117014D01*
X170363Y117148D01*
X171674Y117545D01*
X172881Y118191D01*
X173940Y119060D01*
X174809Y120119D01*
X175455Y121326D01*
X175852Y122637D01*
X175958Y123714D01*
X175975Y123843D01*
X179566Y127434D01*
X180368Y128478D01*
X180724Y129339D01*
X180871Y129695D01*
X181043Y131000D01*
Y162000D01*
X180871Y163305D01*
X180368Y164522D01*
X179566Y165566D01*
X178522Y166367D01*
X177305Y166871D01*
X176000Y167043D01*
X130876D01*
X129809Y168109D01*
X128869Y168831D01*
X128416Y169019D01*
X127775Y169284D01*
X126600Y169439D01*
X119334D01*
Y172200D01*
X88718D01*
X88557Y172673D01*
X88709Y172791D01*
X94812Y178893D01*
X95508Y179800D01*
X119334D01*
Y182561D01*
X126600D01*
X127775Y182716D01*
X128416Y182981D01*
X128869Y183169D01*
X129809Y183891D01*
X129809Y183891D01*
X129809Y183891D01*
X131219Y185300D01*
X132022Y185633D01*
X133066Y186434D01*
X169157Y222525D01*
X169328Y222547D01*
X175953D01*
Y236453D01*
X162047D01*
Y236261D01*
X161646Y235963D01*
X160363Y236352D01*
X159294Y236457D01*
X159318Y236957D01*
X178457D01*
Y205601D01*
D02*
G37*
G36*
X61863Y181505D02*
X61672Y181043D01*
X53500D01*
X52195Y180871D01*
X50978Y180368D01*
X49934Y179566D01*
X31933Y161565D01*
X31439Y161639D01*
X31309Y161881D01*
X30440Y162940D01*
Y163060D01*
X31309Y164119D01*
X31955Y165326D01*
X32352Y166637D01*
X32486Y168000D01*
X32352Y169363D01*
X31955Y170674D01*
X31309Y171881D01*
X30440Y172940D01*
Y173060D01*
X31309Y174119D01*
X31955Y175326D01*
X32352Y176637D01*
X32458Y177714D01*
X32475Y177843D01*
X37085Y182453D01*
X37547Y182262D01*
Y181807D01*
X51453D01*
Y189681D01*
Y191394D01*
X51974D01*
X61863Y181505D01*
D02*
G37*
G36*
X179363Y454995D02*
X171934Y447566D01*
X171133Y446522D01*
X170629Y445305D01*
X170457Y444000D01*
Y430453D01*
X167500D01*
Y426500D01*
X167000D01*
Y426000D01*
X163047D01*
Y422547D01*
X163059D01*
X163119Y422309D01*
X162060Y421440D01*
X161514Y420775D01*
X161043Y420943D01*
Y449899D01*
X161431Y450371D01*
X162034Y451501D01*
X162406Y452726D01*
X162531Y454000D01*
X162425Y455086D01*
X162760Y455457D01*
X179172D01*
X179363Y454995D01*
D02*
G37*
G36*
X226557Y231894D02*
X226569Y231871D01*
X226957Y231399D01*
Y198338D01*
X226508Y198117D01*
X226017Y198494D01*
X225044Y198897D01*
X224500Y198969D01*
Y195000D01*
X224000D01*
Y194500D01*
X220031D01*
X220103Y193956D01*
X220506Y192983D01*
X221147Y192147D01*
X221346Y191995D01*
X221305Y191497D01*
X220092Y190849D01*
X219026Y189974D01*
X218974D01*
X217908Y190849D01*
X216695Y191497D01*
X216654Y191995D01*
X216853Y192147D01*
X217494Y192983D01*
X217897Y193956D01*
X217969Y194500D01*
X210031D01*
X210103Y193956D01*
X210506Y192983D01*
X211147Y192147D01*
X211346Y191995D01*
X211305Y191497D01*
X210092Y190849D01*
X209026Y189974D01*
X208152Y188908D01*
X207502Y187692D01*
X207101Y186372D01*
X206966Y185000D01*
X207101Y183628D01*
X207502Y182308D01*
X208152Y181092D01*
X209026Y180026D01*
Y179974D01*
X208152Y178908D01*
X207502Y177692D01*
X207101Y176372D01*
X206966Y175000D01*
X207101Y173628D01*
X207502Y172308D01*
X208152Y171092D01*
X209026Y170026D01*
Y169974D01*
X208152Y168908D01*
X207502Y167692D01*
X207101Y166372D01*
X206966Y165000D01*
X207101Y163628D01*
X207502Y162308D01*
X208152Y161092D01*
X209026Y160026D01*
Y159974D01*
X208152Y158908D01*
X207502Y157692D01*
X207101Y156372D01*
X206994Y155280D01*
X206970Y155102D01*
X198116Y146248D01*
X197687Y146505D01*
X197906Y147226D01*
X197966Y147834D01*
X203066Y152934D01*
X203868Y153978D01*
X204371Y155195D01*
X204543Y156500D01*
Y210411D01*
X226066Y231934D01*
X226557Y231894D01*
D02*
G37*
G36*
X384957Y169800D02*
X384457Y169776D01*
X384399Y170372D01*
X383998Y171692D01*
X383348Y172908D01*
X382474Y173974D01*
X381408Y174848D01*
X380192Y175498D01*
X378872Y175899D01*
X377500Y176034D01*
X376128Y175899D01*
X374808Y175498D01*
X373828Y174975D01*
X373475Y175328D01*
X373998Y176308D01*
X374399Y177628D01*
X374534Y179000D01*
X374399Y180372D01*
X373998Y181692D01*
X373348Y182908D01*
X372474Y183974D01*
Y184026D01*
X373348Y185092D01*
X373998Y186308D01*
X374399Y187628D01*
X374534Y189000D01*
X374399Y190372D01*
X373998Y191692D01*
X373348Y192908D01*
X372474Y193974D01*
X371408Y194849D01*
X370192Y195499D01*
X368872Y195899D01*
X367500Y196034D01*
X366128Y195899D01*
X364808Y195499D01*
X363592Y194849D01*
X362526Y193974D01*
X361651Y192908D01*
X361001Y191692D01*
X360601Y190372D01*
X360466Y189000D01*
X360601Y187628D01*
X361001Y186308D01*
X361651Y185092D01*
X362526Y184026D01*
Y183974D01*
X361651Y182908D01*
X361001Y181692D01*
X360601Y180372D01*
X360466Y179000D01*
X360601Y177628D01*
X361001Y176308D01*
X361651Y175092D01*
X362526Y174026D01*
Y173974D01*
X361651Y172908D01*
X361001Y171692D01*
X360601Y170372D01*
X360466Y169000D01*
X360601Y167628D01*
X361001Y166308D01*
X361651Y165092D01*
X362526Y164026D01*
Y163974D01*
X361651Y162908D01*
X361001Y161692D01*
X360601Y160372D01*
X360466Y159000D01*
X360601Y157628D01*
X361001Y156308D01*
X361651Y155092D01*
X362526Y154026D01*
Y153974D01*
X361651Y152908D01*
X361001Y151692D01*
X360601Y150372D01*
X360466Y149000D01*
X360601Y147628D01*
X361001Y146308D01*
X361651Y145092D01*
X362526Y144026D01*
Y143974D01*
X361651Y142908D01*
X361001Y141692D01*
X360601Y140372D01*
X360466Y139000D01*
X360601Y137628D01*
X361001Y136308D01*
X361651Y135092D01*
X362526Y134026D01*
Y133974D01*
X361651Y132908D01*
X361001Y131692D01*
X360601Y130372D01*
X360466Y129000D01*
X360601Y127628D01*
X361001Y126308D01*
X361651Y125092D01*
X362526Y124026D01*
Y123974D01*
X361651Y122908D01*
X361001Y121692D01*
X360601Y120372D01*
X360466Y119000D01*
X360601Y117628D01*
X361001Y116308D01*
X361651Y115092D01*
X362526Y114026D01*
Y113974D01*
X361651Y112908D01*
X361001Y111692D01*
X360601Y110372D01*
X360466Y109000D01*
X360601Y107628D01*
X361001Y106308D01*
X361651Y105092D01*
X362526Y104026D01*
Y103974D01*
X361651Y102908D01*
X361001Y101692D01*
X360601Y100372D01*
X360466Y99000D01*
X360601Y97628D01*
X361001Y96308D01*
X361651Y95092D01*
X362526Y94026D01*
Y93974D01*
X361651Y92908D01*
X361001Y91692D01*
X360601Y90372D01*
X360466Y89000D01*
X360601Y87628D01*
X361001Y86308D01*
X361651Y85092D01*
X362526Y84026D01*
X362558Y84000D01*
Y83500D01*
X362526Y83474D01*
X361651Y82408D01*
X361001Y81192D01*
X360601Y79872D01*
X360466Y78500D01*
X360601Y77128D01*
X361001Y75808D01*
X361651Y74592D01*
X362343Y73750D01*
X361651Y72908D01*
X361001Y71692D01*
X360601Y70372D01*
X360466Y69000D01*
X360601Y67628D01*
X361001Y66308D01*
X361651Y65092D01*
X362526Y64026D01*
X362562Y63938D01*
X362562D01*
X362562Y63938D01*
X361693Y62880D01*
X361048Y61673D01*
X360651Y60362D01*
X360516Y59000D01*
X360651Y57638D01*
X361048Y56327D01*
X361693Y55120D01*
X361796Y54995D01*
X361582Y54543D01*
X251543D01*
Y117141D01*
X251914Y117477D01*
X252000Y117469D01*
X253274Y117594D01*
X254500Y117966D01*
X255629Y118569D01*
X256618Y119382D01*
X257431Y120371D01*
X258034Y121501D01*
X258406Y122726D01*
X258531Y124000D01*
X258406Y125274D01*
X258034Y126499D01*
X257431Y127629D01*
X257043Y128101D01*
Y252411D01*
X269067Y264435D01*
X269561Y264361D01*
X269691Y264119D01*
X270560Y263060D01*
Y262940D01*
X269691Y261881D01*
X269045Y260674D01*
X268648Y259363D01*
X268514Y258000D01*
X268648Y256637D01*
X269045Y255326D01*
X269691Y254119D01*
X270560Y253060D01*
Y252940D01*
X269691Y251881D01*
X269045Y250674D01*
X268648Y249363D01*
X268514Y248000D01*
X268648Y246637D01*
X269045Y245326D01*
X269691Y244119D01*
X270560Y243060D01*
Y242940D01*
X269691Y241881D01*
X269045Y240674D01*
X268648Y239363D01*
X268514Y238000D01*
X268648Y236637D01*
X269045Y235326D01*
X269691Y234119D01*
X270560Y233060D01*
X271619Y232191D01*
X272826Y231545D01*
X274137Y231148D01*
X275500Y231014D01*
X276863Y231148D01*
X278174Y231545D01*
X279381Y232191D01*
X280440Y233060D01*
X280560D01*
X281619Y232191D01*
X282826Y231545D01*
X284137Y231148D01*
X285213Y231042D01*
X285233Y231039D01*
X285299Y230974D01*
X285331Y230934D01*
X285335Y230938D01*
X310893Y205380D01*
X310892Y205378D01*
X310904Y205368D01*
X311095Y205178D01*
Y199192D01*
X330906D01*
Y200905D01*
X340158D01*
Y199047D01*
X354063D01*
Y206619D01*
X354562Y206651D01*
X354638Y206076D01*
X355141Y204859D01*
X355943Y203815D01*
X356724Y203215D01*
X356937Y202938D01*
Y202047D01*
X357828D01*
X358368Y201632D01*
X359584Y201129D01*
X360890Y200957D01*
X362195Y201129D01*
X363411Y201632D01*
X363952Y202047D01*
X364843D01*
Y202938D01*
X365055Y203215D01*
X365837Y203815D01*
X366638Y204859D01*
X367142Y206076D01*
X367314Y207381D01*
X367142Y208686D01*
X366638Y209902D01*
X365933Y210821D01*
Y222043D01*
X366638Y222962D01*
X367142Y224179D01*
X367314Y225484D01*
X367142Y226789D01*
X367111Y226865D01*
X367142Y226940D01*
X367314Y228245D01*
X367142Y229551D01*
X366638Y230767D01*
X365933Y231686D01*
Y242908D01*
X366638Y243827D01*
X367142Y245043D01*
X367314Y246348D01*
X367142Y247654D01*
X367111Y247729D01*
X367142Y247805D01*
X367314Y249110D01*
X367142Y250415D01*
X366638Y251632D01*
X365933Y252551D01*
Y263772D01*
X366638Y264691D01*
X367142Y265908D01*
X367314Y267213D01*
X367142Y268518D01*
X367111Y268594D01*
X367142Y268669D01*
X367314Y269974D01*
X367142Y271280D01*
X366638Y272496D01*
X365933Y273415D01*
Y284637D01*
X366638Y285556D01*
X367142Y286772D01*
X367314Y288077D01*
X367142Y289383D01*
X367111Y289458D01*
X367142Y289534D01*
X367314Y290839D01*
X367142Y292144D01*
X366638Y293361D01*
X365933Y294280D01*
Y305502D01*
X366638Y306420D01*
X367142Y307637D01*
X367314Y308942D01*
X367142Y310247D01*
X367111Y310323D01*
X367142Y310398D01*
X367314Y311704D01*
X367142Y313009D01*
X366638Y314225D01*
X365933Y315144D01*
Y326366D01*
X366638Y327285D01*
X367142Y328501D01*
X367314Y329807D01*
X367142Y331112D01*
X367111Y331187D01*
X367142Y331263D01*
X367314Y332568D01*
X367142Y333874D01*
X366638Y335090D01*
X365933Y336009D01*
Y347231D01*
X366638Y348150D01*
X367142Y349366D01*
X367314Y350671D01*
X367142Y351976D01*
X367111Y352052D01*
X367142Y352128D01*
X367314Y353433D01*
X367142Y354738D01*
X366638Y355954D01*
X365933Y356873D01*
Y359110D01*
X365761Y360416D01*
X365257Y361632D01*
X364456Y362676D01*
X363566Y363566D01*
X362522Y364368D01*
X361305Y364871D01*
X360000Y365043D01*
X297001D01*
X296263Y365609D01*
X295047Y366113D01*
X295033Y366115D01*
X295022Y366123D01*
X293805Y366627D01*
X292883Y366748D01*
X286543Y373089D01*
Y379679D01*
X287248Y380598D01*
X287752Y381814D01*
X287924Y383119D01*
X287752Y384424D01*
X287721Y384500D01*
X287752Y384576D01*
X287924Y385881D01*
X287752Y387186D01*
X287248Y388402D01*
X286447Y389447D01*
X286447D01*
X286407Y389448D01*
X285222Y390835D01*
X284254Y392416D01*
X283544Y394128D01*
X283112Y395930D01*
X282996Y397403D01*
Y401370D01*
X283144Y401564D01*
X283648Y402780D01*
X283820Y404085D01*
X283648Y405391D01*
X283603Y405500D01*
X283648Y405609D01*
X283820Y406915D01*
X283648Y408220D01*
X283144Y409436D01*
X282996Y409629D01*
Y431129D01*
X283095Y431367D01*
X283127Y431373D01*
X283127D01*
X283928Y432418D01*
X284432Y433634D01*
X284604Y434939D01*
X284432Y436245D01*
X283928Y437461D01*
X283127Y438505D01*
X282526Y438966D01*
X282066Y439566D01*
X281022Y440368D01*
X279805Y440871D01*
X278500Y441043D01*
X277195Y440871D01*
X275978Y440368D01*
X274934Y439566D01*
X274387Y439019D01*
X273585Y437974D01*
X273081Y436758D01*
X272910Y435453D01*
Y412256D01*
X265882D01*
Y398744D01*
X266457D01*
Y397328D01*
X265995Y397137D01*
X263543Y399589D01*
Y437500D01*
X263371Y438805D01*
X262867Y440022D01*
X262066Y441066D01*
X254043Y449089D01*
Y460500D01*
X253871Y461805D01*
X253367Y463022D01*
X252566Y464066D01*
X251522Y464867D01*
X250305Y465371D01*
X249000Y465543D01*
X50118D01*
X49821Y465945D01*
X49906Y466226D01*
X50032Y467500D01*
X49906Y468774D01*
X49534Y470000D01*
X48931Y471129D01*
X48118Y472118D01*
X47129Y472931D01*
X46000Y473534D01*
X44774Y473906D01*
X43500Y474031D01*
X42226Y473906D01*
X41001Y473534D01*
X39871Y472931D01*
X39399Y472543D01*
X15500D01*
X15500Y472543D01*
X14195Y472371D01*
X12978Y471868D01*
X11934Y471066D01*
X-10566Y448566D01*
X-11367Y447522D01*
X-11871Y446305D01*
X-12043Y445000D01*
Y373222D01*
X-12043Y373222D01*
X-12043D01*
X-11871Y371917D01*
X-11367Y370700D01*
X-10566Y369656D01*
X-8043Y367133D01*
Y318309D01*
X-8414Y317974D01*
X-9000Y318031D01*
X-10274Y317906D01*
X-11500Y317534D01*
X-12629Y316931D01*
X-13101Y316543D01*
X-19899D01*
X-20371Y316931D01*
X-21500Y317534D01*
X-22726Y317906D01*
X-24000Y318031D01*
X-25274Y317906D01*
X-25841Y317734D01*
X-26242Y318032D01*
X-26403Y464112D01*
X-25913Y464210D01*
X-25653Y463582D01*
X-24764Y462132D01*
X-23660Y460840D01*
X-22368Y459736D01*
X-20918Y458847D01*
X-19348Y458197D01*
X-17695Y457800D01*
X-16000Y457667D01*
X-14305Y457800D01*
X-12652Y458197D01*
X-11082Y458847D01*
X-9632Y459736D01*
X-8340Y460840D01*
X-7236Y462132D01*
X-6347Y463582D01*
X-5697Y465152D01*
X-5300Y466805D01*
X-5167Y468500D01*
X-5300Y470195D01*
X-5697Y471848D01*
X-6347Y473418D01*
X-7236Y474868D01*
X-8340Y476160D01*
X-9632Y477264D01*
X-11082Y478153D01*
X-12652Y478803D01*
X-14305Y479200D01*
X-16000Y479333D01*
X-17695Y479200D01*
X-19348Y478803D01*
X-20918Y478153D01*
X-22368Y477264D01*
X-23660Y476160D01*
X-24764Y474868D01*
X-25653Y473418D01*
X-25922Y472767D01*
X-26413Y472865D01*
X-26427Y485603D01*
X-26073Y485957D01*
X384957D01*
Y169800D01*
D02*
G37*
G36*
X221308Y178501D02*
X222628Y178101D01*
X224000Y177966D01*
X225372Y178101D01*
X226577Y178467D01*
X226781Y178335D01*
X227043Y177844D01*
X227129Y177195D01*
X227632Y175978D01*
X228434Y174934D01*
X234957Y168411D01*
Y159796D01*
X234581Y159467D01*
X234000Y159543D01*
X232695Y159371D01*
X231478Y158868D01*
X230434Y158066D01*
X229632Y157022D01*
X229129Y155805D01*
X228957Y154500D01*
X229129Y153195D01*
X229457Y152402D01*
Y57009D01*
X229028Y56752D01*
X228500Y57034D01*
X227274Y57406D01*
X226000Y57531D01*
X224726Y57406D01*
X223500Y57034D01*
X222371Y56431D01*
X221382Y55618D01*
X220569Y54629D01*
X219966Y53500D01*
X219594Y52274D01*
X219469Y51000D01*
X219594Y49726D01*
X219966Y48500D01*
X220515Y47472D01*
X220258Y47043D01*
X202000D01*
X200695Y46871D01*
X199478Y46367D01*
X198434Y45566D01*
X195334Y42466D01*
X194726Y42406D01*
X193500Y42034D01*
X192371Y41431D01*
X191382Y40618D01*
X190569Y39629D01*
X190528Y39552D01*
X190043Y39673D01*
Y48547D01*
X203453D01*
Y55172D01*
X203475Y55343D01*
X223566Y75434D01*
X224367Y76478D01*
X224871Y77695D01*
X225043Y79000D01*
Y157485D01*
X224871Y158791D01*
X224367Y160007D01*
X223566Y161051D01*
X220907Y163710D01*
X221034Y165000D01*
X220899Y166372D01*
X220498Y167692D01*
X219848Y168908D01*
X218974Y169974D01*
Y170026D01*
X219848Y171092D01*
X220498Y172308D01*
X220899Y173628D01*
X221034Y175000D01*
X220899Y176372D01*
X220498Y177692D01*
X219974Y178672D01*
X220328Y179025D01*
X221308Y178501D01*
D02*
G37*
G36*
X384957Y158200D02*
Y129800D01*
X384457Y129776D01*
X384399Y130372D01*
X383998Y131692D01*
X383348Y132908D01*
X382474Y133974D01*
X381408Y134848D01*
X380192Y135498D01*
X378872Y135899D01*
X377500Y136034D01*
X376128Y135899D01*
X374808Y135498D01*
X373828Y134975D01*
X373475Y135328D01*
X373998Y136308D01*
X374399Y137628D01*
X374534Y139000D01*
X374399Y140372D01*
X373998Y141692D01*
X373348Y142908D01*
X372474Y143974D01*
Y144026D01*
X373348Y145092D01*
X373998Y146308D01*
X374399Y147628D01*
X374534Y149000D01*
X374399Y150372D01*
X373998Y151692D01*
X373475Y152672D01*
X373828Y153025D01*
X374808Y152501D01*
X376128Y152101D01*
X377500Y151966D01*
X378872Y152101D01*
X380192Y152501D01*
X381408Y153152D01*
X382474Y154026D01*
X383348Y155092D01*
X383998Y156308D01*
X384399Y157628D01*
X384457Y158224D01*
X384957Y158200D01*
D02*
G37*
G36*
X76666Y166639D02*
X71565D01*
X71564Y166639D01*
X70390Y166484D01*
X69295Y166031D01*
X69076Y165863D01*
X68355Y165309D01*
X68355Y165309D01*
X66781Y163736D01*
X66316Y163543D01*
X65843D01*
X64538Y163371D01*
X63322Y162867D01*
X62277Y162066D01*
X35434Y135223D01*
X34633Y134178D01*
X34129Y132962D01*
X33957Y131657D01*
Y130953D01*
X32047D01*
Y124328D01*
X32004Y124000D01*
X32004D01*
X32023Y123979D01*
X31913Y123142D01*
X31582Y122343D01*
X31155Y121787D01*
X26434Y117066D01*
X25633Y116022D01*
X25129Y114805D01*
X24957Y113500D01*
Y113043D01*
X21453D01*
Y124953D01*
X20543D01*
Y141047D01*
X32453D01*
Y147672D01*
X32475Y147843D01*
X55589Y170957D01*
X68500D01*
X69805Y171129D01*
X70608Y171461D01*
X76666D01*
Y166639D01*
D02*
G37*
%LPC*%
G36*
X38453Y452953D02*
X24547D01*
Y439047D01*
X24739D01*
X25037Y438646D01*
X24648Y437363D01*
X24514Y436000D01*
X24648Y434637D01*
X25045Y433326D01*
X25691Y432119D01*
X26560Y431060D01*
Y430940D01*
X25691Y429881D01*
X25045Y428674D01*
X24648Y427363D01*
X24514Y426000D01*
X24648Y424637D01*
X25045Y423326D01*
X25691Y422119D01*
X26560Y421060D01*
Y420940D01*
X25691Y419881D01*
X25045Y418674D01*
X24648Y417363D01*
X24514Y416000D01*
X24648Y414637D01*
X25045Y413326D01*
X25691Y412119D01*
X26560Y411060D01*
Y410940D01*
X25691Y409881D01*
X25045Y408674D01*
X24648Y407363D01*
X24514Y406000D01*
X24648Y404637D01*
X25045Y403326D01*
X25691Y402119D01*
X26560Y401060D01*
Y400940D01*
X25691Y399881D01*
X25045Y398674D01*
X24648Y397363D01*
X24514Y396000D01*
X24648Y394637D01*
X25045Y393326D01*
X25691Y392119D01*
X26560Y391060D01*
Y390940D01*
X25691Y389881D01*
X25045Y388674D01*
X24648Y387363D01*
X24514Y386000D01*
X24648Y384637D01*
X25045Y383326D01*
X25691Y382119D01*
X26560Y381060D01*
X27619Y380191D01*
X28826Y379545D01*
X28877Y379530D01*
X28966Y379038D01*
X28681Y378819D01*
X28047Y377993D01*
X27649Y377032D01*
X27579Y376500D01*
X35421D01*
X35351Y377032D01*
X34953Y377993D01*
X34319Y378819D01*
X34034Y379038D01*
X34123Y379530D01*
X34174Y379545D01*
X35381Y380191D01*
X36440Y381060D01*
X37309Y382119D01*
X37955Y383326D01*
X38352Y384637D01*
X38486Y386000D01*
X38352Y387363D01*
X37955Y388674D01*
X37309Y389881D01*
X36440Y390940D01*
Y391060D01*
X37309Y392119D01*
X37955Y393326D01*
X38352Y394637D01*
X38486Y396000D01*
X38352Y397363D01*
X37955Y398674D01*
X37309Y399881D01*
X36440Y400940D01*
Y401060D01*
X37309Y402119D01*
X37955Y403326D01*
X38352Y404637D01*
X38486Y406000D01*
X38352Y407363D01*
X37955Y408674D01*
X37309Y409881D01*
X36440Y410940D01*
Y411060D01*
X37309Y412119D01*
X37955Y413326D01*
X38352Y414637D01*
X38486Y416000D01*
X38352Y417363D01*
X37955Y418674D01*
X37309Y419881D01*
X36440Y420940D01*
Y421060D01*
X37309Y422119D01*
X37955Y423326D01*
X38352Y424637D01*
X38486Y426000D01*
X38352Y427363D01*
X37955Y428674D01*
X37309Y429881D01*
X36440Y430940D01*
Y431060D01*
X37309Y432119D01*
X37955Y433326D01*
X38352Y434637D01*
X38486Y436000D01*
X38352Y437363D01*
X37963Y438646D01*
X38261Y439047D01*
X38453D01*
Y452953D01*
D02*
G37*
G36*
X223500Y198969D02*
X222956Y198897D01*
X221983Y198494D01*
X221147Y197853D01*
X220506Y197017D01*
X220103Y196044D01*
X220031Y195500D01*
X223500D01*
Y198969D01*
D02*
G37*
G36*
X35421Y375500D02*
X32000D01*
Y372079D01*
X32532Y372149D01*
X33493Y372547D01*
X34319Y373181D01*
X34953Y374007D01*
X35351Y374968D01*
X35421Y375500D01*
D02*
G37*
G36*
X-6500Y32833D02*
X-8195Y32700D01*
X-9848Y32303D01*
X-11418Y31653D01*
X-12868Y30764D01*
X-14160Y29660D01*
X-15264Y28368D01*
X-16153Y26918D01*
X-16803Y25348D01*
X-17200Y23695D01*
X-17333Y22000D01*
X-17200Y20305D01*
X-16803Y18652D01*
X-16153Y17082D01*
X-15264Y15632D01*
X-14160Y14340D01*
X-12868Y13236D01*
X-11418Y12347D01*
X-9848Y11697D01*
X-8195Y11300D01*
X-6500Y11167D01*
X-4805Y11300D01*
X-3152Y11697D01*
X-1582Y12347D01*
X-132Y13236D01*
X1160Y14340D01*
X2264Y15632D01*
X3153Y17082D01*
X3803Y18652D01*
X4200Y20305D01*
X4333Y22000D01*
X4200Y23695D01*
X3803Y25348D01*
X3153Y26918D01*
X2264Y28368D01*
X1160Y29660D01*
X-132Y30764D01*
X-1582Y31653D01*
X-3152Y32303D01*
X-4805Y32700D01*
X-6500Y32833D01*
D02*
G37*
G36*
X364500Y481833D02*
X362805Y481700D01*
X361152Y481303D01*
X359582Y480653D01*
X358132Y479764D01*
X356840Y478660D01*
X355736Y477368D01*
X354847Y475918D01*
X354197Y474348D01*
X353800Y472695D01*
X353667Y471000D01*
X353800Y469305D01*
X353987Y468527D01*
X353677Y468134D01*
X313300D01*
X312256Y467997D01*
X311700Y467767D01*
X311144Y467997D01*
X310100Y468134D01*
X298100D01*
X297056Y467997D01*
X296083Y467594D01*
X295247Y466953D01*
X294606Y466117D01*
X294203Y465144D01*
X294065Y464100D01*
Y417700D01*
X294203Y416656D01*
X294606Y415683D01*
X294865Y415345D01*
Y413655D01*
X294606Y413317D01*
X294203Y412344D01*
X294065Y411300D01*
Y373700D01*
X294203Y372656D01*
X294606Y371683D01*
X295247Y370847D01*
X296083Y370206D01*
X297056Y369803D01*
X298100Y369666D01*
X325300D01*
X326344Y369803D01*
X327317Y370206D01*
X328153Y370847D01*
X328250Y370974D01*
X328750D01*
X328847Y370847D01*
X329683Y370206D01*
X330656Y369803D01*
X331700Y369666D01*
X354100D01*
X355144Y369803D01*
X356117Y370206D01*
X356953Y370847D01*
X357594Y371683D01*
X357997Y372656D01*
X358135Y373700D01*
Y404100D01*
X357997Y405144D01*
X357601Y406100D01*
X357997Y407056D01*
X358135Y408100D01*
Y427300D01*
X357997Y428344D01*
X357594Y429317D01*
X357334Y429655D01*
Y429700D01*
X357330Y429738D01*
X357594Y430083D01*
X357997Y431056D01*
X358135Y432100D01*
Y461723D01*
X358571Y461967D01*
X359582Y461347D01*
X361152Y460697D01*
X362805Y460300D01*
X364500Y460167D01*
X366195Y460300D01*
X367848Y460697D01*
X369418Y461347D01*
X370868Y462236D01*
X372160Y463340D01*
X373264Y464632D01*
X374153Y466082D01*
X374803Y467652D01*
X375200Y469305D01*
X375333Y471000D01*
X375200Y472695D01*
X374803Y474348D01*
X374153Y475918D01*
X373264Y477368D01*
X372160Y478660D01*
X370868Y479764D01*
X369418Y480653D01*
X367848Y481303D01*
X366195Y481700D01*
X364500Y481833D01*
D02*
G37*
G36*
X31000Y375500D02*
X27579D01*
X27649Y374968D01*
X28047Y374007D01*
X28681Y373181D01*
X29507Y372547D01*
X30468Y372149D01*
X31000Y372079D01*
Y375500D01*
D02*
G37*
G36*
X275500Y154531D02*
X274226Y154406D01*
X273001Y154034D01*
X271871Y153431D01*
X270882Y152618D01*
X270069Y151629D01*
X269466Y150499D01*
X269094Y149274D01*
X268969Y148000D01*
X269094Y146726D01*
X269466Y145501D01*
X270069Y144371D01*
X270457Y143899D01*
Y130500D01*
X270629Y129195D01*
X271132Y127978D01*
X271934Y126934D01*
X282025Y116843D01*
X282047Y116672D01*
Y110047D01*
X282239D01*
X282537Y109646D01*
X282148Y108363D01*
X282014Y107000D01*
X282148Y105637D01*
X282545Y104326D01*
X283191Y103119D01*
X284060Y102060D01*
X285119Y101191D01*
X286326Y100545D01*
X287637Y100148D01*
X289000Y100014D01*
X290363Y100148D01*
X291674Y100545D01*
X292881Y101191D01*
X293940Y102060D01*
X294809Y103119D01*
X295455Y104326D01*
X295852Y105637D01*
X295986Y107000D01*
X295852Y108363D01*
X295463Y109646D01*
X295761Y110047D01*
X295953D01*
Y123953D01*
X289328D01*
X289157Y123975D01*
X280543Y132589D01*
Y143899D01*
X280931Y144371D01*
X281534Y145501D01*
X281906Y146726D01*
X282031Y148000D01*
X281906Y149274D01*
X281534Y150499D01*
X280931Y151629D01*
X280118Y152618D01*
X279129Y153431D01*
X277999Y154034D01*
X276774Y154406D01*
X275500Y154531D01*
D02*
G37*
G36*
X166500Y430453D02*
X163047D01*
Y427000D01*
X166500D01*
Y430453D01*
D02*
G37*
G36*
X232000Y439921D02*
X231468Y439851D01*
X230507Y439453D01*
X229681Y438819D01*
X229047Y437993D01*
X228649Y437032D01*
X228579Y436500D01*
X232000D01*
Y439921D01*
D02*
G37*
G36*
X294000Y202034D02*
X292628Y201899D01*
X291308Y201499D01*
X290092Y200849D01*
X289026Y199974D01*
X288152Y198908D01*
X287502Y197692D01*
X287101Y196372D01*
X286966Y195000D01*
X287101Y193628D01*
X287502Y192308D01*
X288152Y191092D01*
X289026Y190026D01*
Y189974D01*
X288152Y188908D01*
X287502Y187692D01*
X287101Y186372D01*
X286966Y185000D01*
X287101Y183628D01*
X287502Y182308D01*
X288152Y181092D01*
X289026Y180026D01*
Y179974D01*
X288152Y178908D01*
X287502Y177692D01*
X287101Y176372D01*
X286966Y175000D01*
X287101Y173628D01*
X287502Y172308D01*
X288152Y171092D01*
X289026Y170026D01*
Y169974D01*
X288152Y168908D01*
X287502Y167692D01*
X287101Y166372D01*
X286966Y165000D01*
X287101Y163628D01*
X287502Y162308D01*
X288152Y161092D01*
X289026Y160026D01*
Y159974D01*
X288152Y158908D01*
X287502Y157692D01*
X287101Y156372D01*
X286966Y155000D01*
X287101Y153628D01*
X287502Y152308D01*
X288152Y151092D01*
X289026Y150026D01*
X290092Y149152D01*
X291308Y148502D01*
X292628Y148101D01*
X294000Y147966D01*
X295372Y148101D01*
X296692Y148502D01*
X297908Y149152D01*
X298974Y150026D01*
X299849Y151092D01*
X300499Y152308D01*
X300899Y153628D01*
X301034Y155000D01*
X300899Y156372D01*
X300499Y157692D01*
X299849Y158908D01*
X298974Y159974D01*
Y160026D01*
X299849Y161092D01*
X300499Y162308D01*
X300899Y163628D01*
X301034Y165000D01*
X300899Y166372D01*
X300499Y167692D01*
X299849Y168908D01*
X298974Y169974D01*
Y170026D01*
X299849Y171092D01*
X300499Y172308D01*
X300899Y173628D01*
X301034Y175000D01*
X300899Y176372D01*
X300499Y177692D01*
X299849Y178908D01*
X298974Y179974D01*
Y180026D01*
X299849Y181092D01*
X300499Y182308D01*
X300899Y183628D01*
X301034Y185000D01*
X300899Y186372D01*
X300499Y187692D01*
X299849Y188908D01*
X298974Y189974D01*
Y190026D01*
X299849Y191092D01*
X300499Y192308D01*
X300899Y193628D01*
X301034Y195000D01*
X300899Y196372D01*
X300499Y197692D01*
X299849Y198908D01*
X298974Y199974D01*
X297908Y200849D01*
X296692Y201499D01*
X295372Y201899D01*
X294000Y202034D01*
D02*
G37*
G36*
X233000Y439921D02*
Y436500D01*
X236421D01*
X236351Y437032D01*
X235953Y437993D01*
X235319Y438819D01*
X234493Y439453D01*
X233532Y439851D01*
X233000Y439921D01*
D02*
G37*
G36*
X213500Y198969D02*
X212956Y198897D01*
X211983Y198494D01*
X211147Y197853D01*
X210506Y197017D01*
X210103Y196044D01*
X210031Y195500D01*
X213500D01*
Y198969D01*
D02*
G37*
G36*
X214500D02*
Y195500D01*
X217969D01*
X217897Y196044D01*
X217494Y197017D01*
X216853Y197853D01*
X216017Y198494D01*
X215044Y198897D01*
X214500Y198969D01*
D02*
G37*
G36*
X196000Y89421D02*
X195468Y89351D01*
X194507Y88953D01*
X193681Y88319D01*
X193047Y87493D01*
X192649Y86532D01*
X192579Y86000D01*
X196000D01*
Y89421D01*
D02*
G37*
G36*
X141921Y452000D02*
X138500D01*
Y448579D01*
X139032Y448649D01*
X139993Y449047D01*
X140819Y449681D01*
X141453Y450507D01*
X141851Y451468D01*
X141921Y452000D01*
D02*
G37*
G36*
X197000Y89421D02*
Y86000D01*
X200421D01*
X200351Y86532D01*
X199953Y87493D01*
X199319Y88319D01*
X198493Y88953D01*
X197532Y89351D01*
X197000Y89421D01*
D02*
G37*
%LPD*%
G36*
X298900Y408900D02*
X299700D01*
Y407300D01*
X298900D01*
Y398500D01*
X299700D01*
Y396100D01*
X300500D01*
Y394500D01*
X301300D01*
Y396100D01*
X300500D01*
Y398500D01*
X299700D01*
Y406500D01*
X300500D01*
Y398500D01*
X301300D01*
Y397700D01*
X302100D01*
Y396100D01*
X302900D01*
Y394500D01*
X304500D01*
Y393700D01*
X305300D01*
Y392900D01*
X306100D01*
Y392100D01*
X307700D01*
Y391300D01*
X308500D01*
Y389700D01*
X309300D01*
Y388100D01*
X310100D01*
Y386500D01*
X310900D01*
Y385700D01*
X311700D01*
Y384900D01*
X312500D01*
Y383300D01*
X313300D01*
Y382500D01*
X314100D01*
Y381700D01*
X314900D01*
Y380900D01*
X315700D01*
Y380100D01*
X316500D01*
Y379300D01*
X317300D01*
Y378500D01*
X318900D01*
Y377700D01*
X320500D01*
Y376900D01*
X322100D01*
Y376100D01*
X325300D01*
Y375300D01*
X322900D01*
Y374500D01*
X325300D01*
Y373700D01*
X298100D01*
Y411300D01*
X298900D01*
Y408900D01*
D02*
G37*
G36*
X322100Y428900D02*
X323700D01*
Y428100D01*
X324500D01*
Y427300D01*
X322100D01*
Y425700D01*
X320500D01*
Y427300D01*
X319700D01*
Y430500D01*
X322100D01*
Y428900D01*
D02*
G37*
G36*
X302900Y420900D02*
X302100D01*
Y428900D01*
X302900D01*
Y420900D01*
D02*
G37*
G36*
X325300Y422500D02*
X326100D01*
Y420100D01*
X324500D01*
Y420900D01*
X323700D01*
Y423300D01*
X325300D01*
Y422500D01*
D02*
G37*
G36*
X333300Y433700D02*
X332500D01*
Y431300D01*
X331700D01*
Y432900D01*
X328500D01*
Y433700D01*
X329300D01*
Y434500D01*
X333300D01*
Y433700D01*
D02*
G37*
G36*
X342100Y432900D02*
X341300D01*
Y433700D01*
X340500D01*
Y434500D01*
X341300D01*
Y437700D01*
X342100D01*
Y432900D01*
D02*
G37*
G36*
X330100Y440100D02*
X331700D01*
Y439300D01*
X332500D01*
Y437700D01*
X333300D01*
Y436900D01*
X331700D01*
Y436100D01*
X329300D01*
Y435300D01*
X328500D01*
Y434500D01*
X327700D01*
Y432900D01*
X328500D01*
Y432100D01*
X329300D01*
Y431300D01*
X330100D01*
Y430500D01*
X331700D01*
Y429700D01*
X330900D01*
Y428900D01*
X328500D01*
Y427300D01*
X330100D01*
Y424100D01*
X328500D01*
Y424900D01*
X327700D01*
Y425700D01*
X328500D01*
Y427300D01*
X326100D01*
Y425700D01*
X325300D01*
Y432900D01*
X323700D01*
Y433700D01*
X320500D01*
Y435300D01*
X321300D01*
Y436900D01*
X323700D01*
Y434500D01*
X325300D01*
Y432900D01*
X326100D01*
Y434500D01*
X326900D01*
Y436100D01*
X327700D01*
Y436900D01*
X328500D01*
Y439300D01*
X329300D01*
Y440900D01*
X330100D01*
Y440100D01*
D02*
G37*
G36*
X354100Y432100D02*
X353300D01*
Y433700D01*
X352500D01*
Y429700D01*
X353300D01*
Y427300D01*
X354100D01*
Y408100D01*
X353300D01*
Y405700D01*
X352500D01*
Y429700D01*
X351700D01*
Y431300D01*
X350900D01*
Y436900D01*
X350100D01*
Y439300D01*
X349300D01*
Y440100D01*
X348500D01*
Y443300D01*
X347700D01*
Y444100D01*
X346900D01*
Y446500D01*
X346100D01*
Y447300D01*
X345300D01*
Y448100D01*
X344500D01*
Y450500D01*
X342900D01*
Y452100D01*
X342100D01*
Y452900D01*
X340500D01*
Y453700D01*
X339700D01*
Y455300D01*
X338900D01*
Y456900D01*
X337300D01*
Y457700D01*
X334900D01*
Y458500D01*
X334100D01*
Y459300D01*
X333300D01*
Y460100D01*
X334900D01*
Y460900D01*
X332500D01*
Y461700D01*
X322900D01*
Y460900D01*
X321300D01*
Y461700D01*
X319700D01*
Y462500D01*
X318100D01*
Y463300D01*
X314900D01*
Y462500D01*
X318100D01*
Y461700D01*
X319700D01*
Y460900D01*
X320500D01*
Y460100D01*
X318900D01*
Y460900D01*
X318100D01*
Y461700D01*
X314900D01*
Y462500D01*
X313300D01*
Y464100D01*
X354100D01*
Y432100D01*
D02*
G37*
G36*
X332500Y417700D02*
X330100D01*
Y418500D01*
X332500D01*
Y417700D01*
D02*
G37*
G36*
X342900Y429700D02*
X343700D01*
Y427300D01*
X344500D01*
Y428900D01*
X345300D01*
Y426500D01*
X344500D01*
Y423300D01*
X345300D01*
Y422500D01*
X344500D01*
Y420900D01*
X343700D01*
Y420100D01*
X342900D01*
Y418500D01*
X343700D01*
Y419300D01*
X344500D01*
Y420100D01*
X345300D01*
Y416900D01*
X346100D01*
Y408900D01*
X344500D01*
Y413700D01*
X343700D01*
Y414500D01*
X342900D01*
Y416100D01*
X342100D01*
Y416900D01*
X341300D01*
Y430500D01*
X342900D01*
Y429700D01*
D02*
G37*
G36*
X306100Y407300D02*
X305300D01*
Y408100D01*
X306100D01*
Y407300D01*
D02*
G37*
G36*
X305300Y406500D02*
X304500D01*
Y407300D01*
X305300D01*
Y406500D01*
D02*
G37*
G36*
X334900Y411300D02*
X335700D01*
Y409700D01*
X334100D01*
Y410500D01*
X332500D01*
Y412100D01*
X334100D01*
Y412900D01*
X334900D01*
Y411300D01*
D02*
G37*
G36*
X325300Y424100D02*
X328500D01*
Y423300D01*
X330100D01*
Y420900D01*
X331700D01*
Y420100D01*
X330100D01*
Y419300D01*
X329300D01*
Y417700D01*
X326900D01*
Y416900D01*
X327700D01*
Y415300D01*
X328500D01*
Y414500D01*
X325300D01*
Y417700D01*
X326100D01*
Y418500D01*
X325300D01*
Y419300D01*
X328500D01*
Y421700D01*
X327700D01*
Y423300D01*
X325300D01*
Y424100D01*
X324500D01*
Y425700D01*
X325300D01*
Y424100D01*
D02*
G37*
G36*
X331700Y415300D02*
X334100D01*
Y414500D01*
X334900D01*
Y413700D01*
X332500D01*
Y412900D01*
X331700D01*
Y411300D01*
X330100D01*
Y409700D01*
X333300D01*
Y408900D01*
X334100D01*
Y408100D01*
X334900D01*
Y407300D01*
X334100D01*
Y408100D01*
X331700D01*
Y407300D01*
X329300D01*
Y409700D01*
X328500D01*
Y411300D01*
X327700D01*
Y412100D01*
X326900D01*
Y412900D01*
X326100D01*
Y413700D01*
X328500D01*
Y412900D01*
X329300D01*
Y413700D01*
X330100D01*
Y414500D01*
X329300D01*
Y416100D01*
X331700D01*
Y415300D01*
D02*
G37*
G36*
X307700D02*
X306100D01*
Y412900D01*
X305300D01*
Y414500D01*
X304500D01*
Y415300D01*
X305300D01*
Y416900D01*
X306100D01*
Y418500D01*
X306900D01*
Y419300D01*
X307700D01*
Y415300D01*
D02*
G37*
G36*
X318900Y458500D02*
X319700D01*
Y457700D01*
X321300D01*
Y456900D01*
X322900D01*
Y456100D01*
X321300D01*
Y456900D01*
X318900D01*
Y457700D01*
X316500D01*
Y459300D01*
X315700D01*
Y460100D01*
X318900D01*
Y458500D01*
D02*
G37*
G36*
X325300Y454500D02*
X323700D01*
Y455300D01*
X325300D01*
Y454500D01*
D02*
G37*
G36*
X334100Y453700D02*
X331700D01*
Y455300D01*
X334100D01*
Y453700D01*
D02*
G37*
G36*
X322100Y457700D02*
X321300D01*
Y460100D01*
X322100D01*
Y457700D01*
D02*
G37*
G36*
X310100Y462500D02*
X309300D01*
Y463300D01*
X308500D01*
Y462500D01*
X309300D01*
Y460900D01*
X308500D01*
Y462500D01*
X307700D01*
Y461700D01*
X306900D01*
Y460900D01*
X306100D01*
Y460100D01*
X307700D01*
Y457700D01*
X306100D01*
Y456900D01*
X304500D01*
Y457700D01*
X305300D01*
Y458500D01*
X306100D01*
Y460100D01*
X304500D01*
Y458500D01*
X303700D01*
Y457700D01*
X302900D01*
Y456900D01*
X304500D01*
Y455300D01*
X303700D01*
Y452100D01*
X304500D01*
Y450500D01*
X303700D01*
Y451300D01*
X302900D01*
Y444900D01*
X303700D01*
Y444100D01*
X304500D01*
Y444900D01*
X305300D01*
Y444100D01*
X306100D01*
Y440900D01*
X306900D01*
Y440100D01*
X306100D01*
Y437700D01*
X305300D01*
Y436900D01*
X304500D01*
Y439300D01*
X303700D01*
Y438500D01*
X302900D01*
Y435300D01*
X303700D01*
Y436900D01*
X304500D01*
Y432900D01*
X303700D01*
Y430500D01*
X302900D01*
Y432900D01*
X302100D01*
Y429700D01*
X301300D01*
Y427300D01*
X300500D01*
Y420900D01*
X302100D01*
Y420100D01*
X301300D01*
Y419300D01*
X300500D01*
Y420900D01*
X299700D01*
Y420100D01*
X298900D01*
Y417700D01*
X299700D01*
Y419300D01*
X300500D01*
Y416900D01*
X299700D01*
Y412100D01*
X300500D01*
Y409700D01*
X301300D01*
Y408900D01*
X302100D01*
Y408100D01*
X301300D01*
Y406500D01*
X300500D01*
Y409700D01*
X299700D01*
Y411300D01*
X298900D01*
Y417700D01*
X298100D01*
Y464100D01*
X310100D01*
Y462500D01*
D02*
G37*
G36*
X331700Y460100D02*
X323700D01*
Y460900D01*
X331700D01*
Y460100D01*
D02*
G37*
G36*
X308500D02*
X307700D01*
Y460900D01*
X308500D01*
Y460100D01*
D02*
G37*
G36*
X318100Y456100D02*
X319700D01*
Y455300D01*
X321300D01*
Y454500D01*
X322100D01*
Y453700D01*
X323700D01*
Y452100D01*
X322100D01*
Y453700D01*
X315700D01*
Y456900D01*
X318100D01*
Y456100D01*
D02*
G37*
G36*
X323700Y443300D02*
X324500D01*
Y442500D01*
X325300D01*
Y440900D01*
X326100D01*
Y440100D01*
X322100D01*
Y442500D01*
X321300D01*
Y443300D01*
X320500D01*
Y444100D01*
X323700D01*
Y443300D01*
D02*
G37*
G36*
X334100Y442500D02*
X334900D01*
Y437700D01*
X334100D01*
Y439300D01*
X333300D01*
Y440100D01*
X332500D01*
Y440900D01*
X331700D01*
Y442500D01*
X330900D01*
Y443300D01*
X334100D01*
Y442500D01*
D02*
G37*
G36*
X312500Y460100D02*
X314100D01*
Y458500D01*
X314900D01*
Y450500D01*
X315700D01*
Y447300D01*
X316500D01*
Y446500D01*
X318100D01*
Y444100D01*
X318900D01*
Y440900D01*
X319700D01*
Y436900D01*
X318900D01*
Y433700D01*
X318100D01*
Y427300D01*
X318900D01*
Y424900D01*
X319700D01*
Y424100D01*
X320500D01*
Y423300D01*
X321300D01*
Y422500D01*
X322100D01*
Y420100D01*
X322900D01*
Y419300D01*
X323700D01*
Y417700D01*
X324500D01*
Y414500D01*
X325300D01*
Y412900D01*
X324500D01*
Y411300D01*
X323700D01*
Y408100D01*
X322900D01*
Y405700D01*
X322100D01*
Y400900D01*
X322900D01*
Y400100D01*
X323700D01*
Y398500D01*
X325300D01*
Y396900D01*
X326100D01*
Y396100D01*
X333300D01*
Y395300D01*
X334100D01*
Y394500D01*
X332500D01*
Y393700D01*
X330900D01*
Y392900D01*
X330100D01*
Y393700D01*
X328500D01*
Y394500D01*
X325300D01*
Y393700D01*
X326900D01*
Y392900D01*
X327700D01*
Y392100D01*
X329300D01*
Y391300D01*
X332500D01*
Y392100D01*
X334900D01*
Y392900D01*
X337300D01*
Y395300D01*
X336500D01*
Y396100D01*
X334900D01*
Y398500D01*
X334100D01*
Y404100D01*
X334900D01*
Y406500D01*
X335700D01*
Y407300D01*
X336500D01*
Y408100D01*
X337300D01*
Y414500D01*
X335700D01*
Y415300D01*
X334900D01*
Y417700D01*
X334100D01*
Y419300D01*
X333300D01*
Y420900D01*
X332500D01*
Y421700D01*
X331700D01*
Y427300D01*
X330100D01*
Y428100D01*
X331700D01*
Y427300D01*
X332500D01*
Y428900D01*
X333300D01*
Y430500D01*
X334100D01*
Y432900D01*
X334900D01*
Y436900D01*
X335700D01*
Y437700D01*
X336500D01*
Y442500D01*
X337300D01*
Y446500D01*
X336500D01*
Y450500D01*
X335700D01*
Y452100D01*
X334900D01*
Y456900D01*
X336500D01*
Y456100D01*
X337300D01*
Y455300D01*
X338100D01*
Y453700D01*
X338900D01*
Y451300D01*
X339700D01*
Y446500D01*
X338900D01*
Y429700D01*
X339700D01*
Y416100D01*
X340500D01*
Y415300D01*
X341300D01*
Y412900D01*
X342100D01*
Y412100D01*
X342900D01*
Y408900D01*
X343700D01*
Y408100D01*
X344500D01*
Y399300D01*
X343700D01*
Y398500D01*
X342900D01*
Y395300D01*
X342100D01*
Y394500D01*
X341300D01*
Y392100D01*
X339700D01*
Y391300D01*
X338900D01*
Y390500D01*
X338100D01*
Y389700D01*
X337300D01*
Y388900D01*
X334900D01*
Y388100D01*
X327700D01*
Y388900D01*
X325300D01*
Y389700D01*
X324500D01*
Y390500D01*
X322100D01*
Y392100D01*
X320500D01*
Y392900D01*
X319700D01*
Y393700D01*
X318900D01*
Y396100D01*
X313300D01*
Y397700D01*
X314100D01*
Y398500D01*
X310900D01*
Y397700D01*
X309300D01*
Y398500D01*
X306100D01*
Y406500D01*
X306900D01*
Y407300D01*
X307700D01*
Y408100D01*
X309300D01*
Y409700D01*
X310100D01*
Y411300D01*
X310900D01*
Y412900D01*
X311700D01*
Y413700D01*
X310100D01*
Y412100D01*
X309300D01*
Y411300D01*
X308500D01*
Y409700D01*
X307700D01*
Y412900D01*
X308500D01*
Y415300D01*
X309300D01*
Y424100D01*
X310100D01*
Y437700D01*
X310900D01*
Y436900D01*
X312500D01*
Y438500D01*
X311700D01*
Y439300D01*
X310100D01*
Y440100D01*
X309300D01*
Y442500D01*
X308500D01*
Y443300D01*
X307700D01*
Y444100D01*
X306900D01*
Y444900D01*
X306100D01*
Y449700D01*
X306900D01*
Y450500D01*
X308500D01*
Y451300D01*
X309300D01*
Y452900D01*
X310100D01*
Y456100D01*
X310900D01*
Y456900D01*
X309300D01*
Y453700D01*
X308500D01*
Y452900D01*
X307700D01*
Y452100D01*
X306100D01*
Y456100D01*
X306900D01*
Y456900D01*
X308500D01*
Y457700D01*
X309300D01*
Y460100D01*
X310100D01*
Y460900D01*
X312500D01*
Y460100D01*
D02*
G37*
G36*
X332500Y444900D02*
X333300D01*
Y444100D01*
X330900D01*
Y444900D01*
X331700D01*
Y446500D01*
X332500D01*
Y444900D01*
D02*
G37*
G36*
X334100Y451300D02*
X334900D01*
Y450500D01*
X331700D01*
Y452100D01*
X334100D01*
Y451300D01*
D02*
G37*
G36*
X318100Y452100D02*
X321300D01*
Y451300D01*
X322100D01*
Y450500D01*
X323700D01*
Y449700D01*
X325300D01*
Y447300D01*
X322900D01*
Y448100D01*
X318100D01*
Y450500D01*
X316500D01*
Y451300D01*
X315700D01*
Y452900D01*
X318100D01*
Y452100D01*
D02*
G37*
G36*
X334900Y444900D02*
X334100D01*
Y446500D01*
X333300D01*
Y447300D01*
X332500D01*
Y448100D01*
X331700D01*
Y448900D01*
X330900D01*
Y449700D01*
X334900D01*
Y444900D01*
D02*
G37*
G36*
Y381700D02*
X334100D01*
Y382500D01*
X334900D01*
Y381700D01*
D02*
G37*
G36*
X339700Y388100D02*
X338900D01*
Y388900D01*
X339700D01*
Y388100D01*
D02*
G37*
G36*
X340500Y388900D02*
X339700D01*
Y389700D01*
X340500D01*
Y388900D01*
D02*
G37*
G36*
X316500Y393700D02*
X318100D01*
Y392100D01*
X317300D01*
Y391300D01*
X314900D01*
Y392100D01*
X314100D01*
Y392900D01*
X313300D01*
Y394500D01*
X316500D01*
Y393700D01*
D02*
G37*
G36*
X342100Y389700D02*
X340500D01*
Y390500D01*
X342100D01*
Y389700D01*
D02*
G37*
G36*
X332500Y385700D02*
X331700D01*
Y384900D01*
X327700D01*
Y386500D01*
X332500D01*
Y385700D01*
D02*
G37*
G36*
X337300Y386500D02*
X335700D01*
Y387300D01*
X337300D01*
Y386500D01*
D02*
G37*
G36*
X322900Y384900D02*
X320500D01*
Y385700D01*
X322900D01*
Y384900D01*
D02*
G37*
G36*
X335700Y382500D02*
X334900D01*
Y383300D01*
X335700D01*
Y382500D01*
D02*
G37*
G36*
X320500Y389700D02*
X322100D01*
Y387300D01*
X321300D01*
Y388100D01*
X319700D01*
Y390500D01*
X320500D01*
Y389700D01*
D02*
G37*
G36*
X330100Y381700D02*
X328500D01*
Y382500D01*
X330100D01*
Y381700D01*
D02*
G37*
G36*
X306100Y397700D02*
X305300D01*
Y398500D01*
X306100D01*
Y397700D01*
D02*
G37*
G36*
X334100Y405700D02*
X333300D01*
Y404900D01*
X330900D01*
Y405700D01*
X332500D01*
Y406500D01*
X333300D01*
Y407300D01*
X334100D01*
Y405700D01*
D02*
G37*
G36*
X327700Y409700D02*
X328500D01*
Y408100D01*
X326900D01*
Y407300D01*
X329300D01*
Y406500D01*
X328500D01*
Y405700D01*
X329300D01*
Y404100D01*
X331700D01*
Y402500D01*
X329300D01*
Y401700D01*
X332500D01*
Y399300D01*
X331700D01*
Y400100D01*
X330100D01*
Y400900D01*
X329300D01*
Y401700D01*
X328500D01*
Y404900D01*
X325300D01*
Y408100D01*
X326100D01*
Y408900D01*
X325300D01*
Y411300D01*
X327700D01*
Y409700D01*
D02*
G37*
G36*
Y401700D02*
X328500D01*
Y400100D01*
X329300D01*
Y399300D01*
X330900D01*
Y398500D01*
X331700D01*
Y397700D01*
X329300D01*
Y398500D01*
X325300D01*
Y400100D01*
X326100D01*
Y400900D01*
X327700D01*
Y401700D01*
X325300D01*
Y400900D01*
X323700D01*
Y404100D01*
X327700D01*
Y401700D01*
D02*
G37*
G36*
X323700Y380900D02*
X322100D01*
Y381700D01*
X323700D01*
Y380900D01*
D02*
G37*
G36*
X312500Y392900D02*
X311700D01*
Y393700D01*
X310900D01*
Y394500D01*
X312500D01*
Y392900D01*
D02*
G37*
G36*
X352500Y401700D02*
X353300D01*
Y404100D01*
X354100D01*
Y373700D01*
X331700D01*
Y374500D01*
X332500D01*
Y375300D01*
X330900D01*
Y376100D01*
X333300D01*
Y376900D01*
X334900D01*
Y376100D01*
X334100D01*
Y375300D01*
X335700D01*
Y376100D01*
X337300D01*
Y376900D01*
X334900D01*
Y377700D01*
X336500D01*
Y378500D01*
X338100D01*
Y377700D01*
X339700D01*
Y378500D01*
X338100D01*
Y379300D01*
X338900D01*
Y380900D01*
X340500D01*
Y381700D01*
X341300D01*
Y380900D01*
X342900D01*
Y381700D01*
X341300D01*
Y382500D01*
X342100D01*
Y383300D01*
X342900D01*
Y384900D01*
X344500D01*
Y384100D01*
X345300D01*
Y384900D01*
X344500D01*
Y387300D01*
X345300D01*
Y388100D01*
X346100D01*
Y388900D01*
X346900D01*
Y391300D01*
X347700D01*
Y392100D01*
X348500D01*
Y390500D01*
X349300D01*
Y391300D01*
X350100D01*
Y392900D01*
X350900D01*
Y394500D01*
X350100D01*
Y393700D01*
X349300D01*
Y392100D01*
X348500D01*
Y394500D01*
X349300D01*
Y396100D01*
X350100D01*
Y398500D01*
X350900D01*
Y396900D01*
X351700D01*
Y398500D01*
X352500D01*
Y400900D01*
X351700D01*
Y399300D01*
X350900D01*
Y404100D01*
X351700D01*
Y405700D01*
X352500D01*
Y401700D01*
D02*
G37*
%LPC*%
G36*
X338100Y460100D02*
X336500D01*
Y459300D01*
X337300D01*
Y458500D01*
X338100D01*
Y457700D01*
X338900D01*
Y456900D01*
X340500D01*
Y456100D01*
X341300D01*
Y453700D01*
X342900D01*
Y452900D01*
X343700D01*
Y452100D01*
X344500D01*
Y450500D01*
X345300D01*
Y449700D01*
X346100D01*
Y448100D01*
X346900D01*
Y447300D01*
X347700D01*
Y445700D01*
X348500D01*
Y447300D01*
X347700D01*
Y448100D01*
X346900D01*
Y450500D01*
X345300D01*
Y452100D01*
X344500D01*
Y453700D01*
X342900D01*
Y455300D01*
X342100D01*
Y456100D01*
X341300D01*
Y456900D01*
X340500D01*
Y457700D01*
X338900D01*
Y458500D01*
X338100D01*
Y460100D01*
D02*
G37*
G36*
X306100Y392100D02*
X304500D01*
Y391300D01*
X305300D01*
Y390500D01*
X306100D01*
Y388900D01*
X306900D01*
Y388100D01*
X308500D01*
Y386500D01*
X309300D01*
Y384900D01*
X310100D01*
Y383300D01*
X310900D01*
Y382500D01*
X311700D01*
Y381700D01*
X312500D01*
Y380900D01*
X313300D01*
Y380100D01*
X314100D01*
Y378500D01*
X315700D01*
Y377700D01*
X316500D01*
Y376900D01*
X318100D01*
Y376100D01*
X318900D01*
Y375300D01*
X322100D01*
Y376100D01*
X319700D01*
Y376900D01*
X318100D01*
Y377700D01*
X317300D01*
Y378500D01*
X315700D01*
Y379300D01*
X314900D01*
Y380900D01*
X313300D01*
Y381700D01*
X312500D01*
Y383300D01*
X311700D01*
Y384100D01*
X310900D01*
Y384900D01*
X310100D01*
Y386500D01*
X309300D01*
Y388100D01*
X308500D01*
Y388900D01*
X307700D01*
Y390500D01*
X306900D01*
Y391300D01*
X306100D01*
Y392100D01*
D02*
G37*
G36*
X338100Y377700D02*
X337300D01*
Y376900D01*
X338100D01*
Y377700D01*
D02*
G37*
G36*
X341300Y380100D02*
X340500D01*
Y379300D01*
X339700D01*
Y378500D01*
X341300D01*
Y380100D01*
D02*
G37*
G36*
X344500Y383300D02*
X343700D01*
Y382500D01*
X342900D01*
Y381700D01*
X344500D01*
Y383300D01*
D02*
G37*
G36*
X302900Y455300D02*
X302100D01*
Y453700D01*
X302900D01*
Y455300D01*
D02*
G37*
G36*
X303700Y392900D02*
X302900D01*
Y392100D01*
X303700D01*
Y392900D01*
D02*
G37*
G36*
X348500Y390500D02*
X347700D01*
Y388100D01*
X348500D01*
Y390500D01*
D02*
G37*
G36*
X302900Y394500D02*
X302100D01*
Y393700D01*
X302900D01*
Y394500D01*
D02*
G37*
G36*
X314100Y412900D02*
X312500D01*
Y408100D01*
X311700D01*
Y407300D01*
X310100D01*
Y405700D01*
X309300D01*
Y404900D01*
X308500D01*
Y401700D01*
X309300D01*
Y400100D01*
X310100D01*
Y401700D01*
X314900D01*
Y403300D01*
X315700D01*
Y404100D01*
X316500D01*
Y401700D01*
X318100D01*
Y407300D01*
X317300D01*
Y408100D01*
X315700D01*
Y409700D01*
X314900D01*
Y411300D01*
X314100D01*
Y412900D01*
D02*
G37*
G36*
X319700Y396900D02*
X318900D01*
Y396100D01*
X319700D01*
Y396900D01*
D02*
G37*
G36*
X351700Y438500D02*
X350900D01*
Y436900D01*
X351700D01*
Y434500D01*
X352500D01*
Y437700D01*
X351700D01*
Y438500D01*
D02*
G37*
G36*
X312500Y452100D02*
X311700D01*
Y451300D01*
X310900D01*
Y449700D01*
X310100D01*
Y448100D01*
X309300D01*
Y444900D01*
X310100D01*
Y444100D01*
X312500D01*
Y446500D01*
X310900D01*
Y448100D01*
X312500D01*
Y452100D01*
D02*
G37*
G36*
X346900Y386500D02*
X345300D01*
Y384900D01*
X346900D01*
Y386500D01*
D02*
G37*
G36*
X349300Y444900D02*
X348500D01*
Y443300D01*
X349300D01*
Y442500D01*
X350100D01*
Y440100D01*
X350900D01*
Y442500D01*
X350100D01*
Y444100D01*
X349300D01*
Y444900D01*
D02*
G37*
G36*
X347700Y388100D02*
X346900D01*
Y387300D01*
X347700D01*
Y388100D01*
D02*
G37*
G36*
X305300Y442500D02*
X304500D01*
Y440100D01*
X305300D01*
Y442500D01*
D02*
G37*
%LPD*%
G36*
X314900Y404100D02*
X310900D01*
Y404900D01*
X312500D01*
Y405700D01*
X313300D01*
Y404900D01*
X314100D01*
Y407300D01*
X313300D01*
Y408100D01*
X314900D01*
Y404100D01*
D02*
G37*
D10*
X90000Y105500D02*
G03*
X92561Y106561I0J3621D01*
G01*
D02*
G03*
X91500Y104000I2561J-2561D01*
G01*
X208561Y17061D02*
G03*
X211121Y16000I2561J2561D01*
G01*
D02*
G03*
X208561Y14939I0J-3621D01*
G01*
X106939Y94939D02*
G03*
X104379Y96000I-2561J-2561D01*
G01*
D02*
G03*
X106939Y97061I0J3621D01*
G01*
X227061Y52061D02*
G03*
X229621Y51000I2561J2561D01*
G01*
D02*
G03*
X227061Y49939I0J-3621D01*
G01*
X110561Y112061D02*
G03*
X113121Y111000I2561J2561D01*
G01*
D02*
G03*
X110561Y109939I0J-3621D01*
G01*
X79000Y109414D02*
G03*
X80146Y106647I3914J0D01*
G01*
X79000Y114243D02*
G03*
X81561Y108061I8743J0D01*
G01*
X250939Y125061D02*
G03*
X252000Y127621I-2561J2561D01*
G01*
D02*
G03*
X253061Y125061I3621J0D01*
G01*
X196000Y37500D02*
G03*
X198561Y38561I0J3621D01*
G01*
D02*
G03*
X197500Y36000I2561J-2561D01*
G01*
X20061Y270061D02*
G03*
X22621Y269000I2561J2561D01*
G01*
D02*
G03*
X20061Y267939I0J-3621D01*
G01*
X279561Y434939D02*
G03*
X277953Y431058I3882J-3882D01*
G01*
X13061Y352561D02*
G03*
X15621Y351500I2561J2561D01*
G01*
D02*
G03*
X13061Y350439I0J-3621D01*
G01*
X32000Y339500D02*
G03*
X30939Y342061I-3621J0D01*
G01*
D02*
G03*
X33500Y341000I2561J2561D01*
G01*
X275500Y328000D02*
G03*
X272939Y326939I0J-3621D01*
G01*
D02*
G03*
X274000Y329500I-2561J2561D01*
G01*
X299061Y347939D02*
G03*
X298000Y345379I2561J-2561D01*
G01*
D02*
G03*
X296939Y347939I-3621J0D01*
G01*
X-0Y375474D02*
G03*
X1000Y373000I3416J-59D01*
G01*
D02*
G03*
X-1474Y374000I-2416J-2416D01*
G01*
X49439Y347561D02*
G03*
X50500Y350121I-2561J2561D01*
G01*
D02*
G03*
X51561Y347561I3621J0D01*
G01*
X69939Y257439D02*
G03*
X67379Y258500I-2561J-2561D01*
G01*
D02*
G03*
X69939Y259561I0J3621D01*
G01*
X42439Y466439D02*
G03*
X39879Y467500I-2561J-2561D01*
G01*
D02*
G03*
X42439Y468561I0J3621D01*
G01*
X16000Y390172D02*
G03*
X14439Y393939I-5328J0D01*
G01*
X162939Y147439D02*
G03*
X160379Y148500I-2561J-2561D01*
G01*
D02*
G03*
X162939Y149561I0J3621D01*
G01*
X191500Y150000D02*
G03*
X194061Y151061I0J3621D01*
G01*
D02*
G03*
X193000Y148500I2561J-2561D01*
G01*
X246500Y244586D02*
G03*
X245354Y247354I-3914J0D01*
G01*
X246500Y239757D02*
G03*
X243939Y245939I-8743J0D01*
G01*
X246500Y243646D02*
G03*
X244833Y245509I-1875J0D01*
G01*
X246473Y246717D02*
G03*
X247000Y245000I1882J-362D01*
G01*
X247000Y245000D02*
G03*
X245283Y245527I-1355J-1355D01*
G01*
X182439Y202561D02*
G03*
X183500Y205121I-2561J2561D01*
G01*
D02*
G03*
X184561Y202561I3621J0D01*
G01*
X276561Y146939D02*
G03*
X275500Y144379I2561J-2561D01*
G01*
D02*
G03*
X274439Y146939I-3621J0D01*
G01*
X252439Y344061D02*
G03*
X253500Y346621I-2561J2561D01*
G01*
D02*
G03*
X254561Y344061I3621J0D01*
G01*
X233061Y234439D02*
G03*
X232000Y231879I2561J-2561D01*
G01*
D02*
G03*
X230939Y234439I-3621J0D01*
G01*
X238939Y95061D02*
G03*
X240000Y97621I-2561J2561D01*
G01*
D02*
G03*
X241061Y95061I3621J0D01*
G01*
X135439Y337061D02*
G03*
X136500Y339621I-2561J2561D01*
G01*
D02*
G03*
X137561Y337061I3621J0D01*
G01*
X127000Y337000D02*
G03*
X125939Y339561I-3621J0D01*
G01*
D02*
G03*
X128500Y338500I2561J2561D01*
G01*
X82061Y370561D02*
G03*
X84621Y369500I2561J2561D01*
G01*
D02*
G03*
X82061Y368439I0J-3621D01*
G01*
X157061Y452939D02*
G03*
X156000Y450379I2561J-2561D01*
G01*
D02*
G03*
X154939Y452939I-3621J0D01*
G01*
X147000Y406500D02*
G03*
X149561Y407561I0J3621D01*
G01*
D02*
G03*
X148500Y405000I2561J-2561D01*
G01*
X191939Y268561D02*
G03*
X193000Y271121I-2561J2561D01*
G01*
D02*
G03*
X194061Y268561I3621J0D01*
G01*
X213061Y266939D02*
G03*
X212000Y264379I2561J-2561D01*
G01*
D02*
G03*
X210939Y266939I-3621J0D01*
G01*
X189861Y195639D02*
G03*
X190922Y198200I-2561J2561D01*
G01*
D02*
G03*
X191982Y195639I3621J0D01*
G01*
X191061Y447439D02*
G03*
X189500Y443672I3768J-3768D01*
G01*
X-22939Y312561D02*
G03*
X-20379Y311500I2561J2561D01*
G01*
D02*
G03*
X-22939Y310439I0J-3621D01*
G01*
X-10061D02*
G03*
X-12621Y311500I-2561J-2561D01*
G01*
D02*
G03*
X-10061Y312561I0J3621D01*
G01*
X316095Y227206D02*
G03*
X315410Y228860I-2338J0D01*
G01*
X314459Y229810D02*
G03*
X317457Y228569I2998J2998D01*
G01*
X325507Y227776D02*
G03*
X327832Y226813I2325J2325D01*
G01*
D02*
G03*
X325507Y225849I0J-3289D01*
G01*
X316095Y248071D02*
G03*
X315410Y249724I-2338J0D01*
G01*
X314459Y250675D02*
G03*
X317457Y249433I2998J2998D01*
G01*
X325507Y248640D02*
G03*
X327832Y247677I2325J2325D01*
G01*
D02*
G03*
X325507Y246714I0J-3289D01*
G01*
X316494Y267185D02*
G03*
X314526Y268000I-1968J-1968D01*
G01*
X313811D02*
G03*
X316494Y269111I0J3794D01*
G01*
X325507Y269505D02*
G03*
X327832Y268542I2325J2325D01*
G01*
D02*
G03*
X325507Y267579I0J-3289D01*
G01*
X317457Y287650D02*
G03*
X314459Y286409I0J-4239D01*
G01*
X315410Y287359D02*
G03*
X316095Y289013I-1653J1653D01*
G01*
X325507Y290370D02*
G03*
X327832Y289406I2325J2325D01*
G01*
D02*
G03*
X325507Y288443I0J-3289D01*
G01*
X317457Y308515D02*
G03*
X314459Y307273I0J-4239D01*
G01*
X315410Y308224D02*
G03*
X316095Y309877I-1653J1653D01*
G01*
X325507Y311234D02*
G03*
X327832Y310271I2325J2325D01*
G01*
D02*
G03*
X325507Y309308I0J-3289D01*
G01*
X314576Y327076D02*
G03*
X316095Y330742I-3665J3665D01*
G01*
X325507Y332099D02*
G03*
X327832Y331135I2325J2325D01*
G01*
D02*
G03*
X325507Y330172I0J-3289D01*
G01*
X317457Y350244D02*
G03*
X314459Y349003I0J-4239D01*
G01*
X315410Y349953D02*
G03*
X316095Y351606I-1653J1653D01*
G01*
X325507Y352963D02*
G03*
X327832Y352000I2325J2325D01*
G01*
D02*
G03*
X325507Y351037I0J-3289D01*
G01*
X66242Y93321D02*
G03*
X65000Y90324I2998J-2998D01*
G01*
D02*
G03*
X63758Y93321I-4239J0D01*
G01*
X63047Y102437D02*
G03*
X61666Y105771I-4714J0D01*
G01*
X62142Y105295D02*
G03*
X64803Y104193I2661J2661D01*
G01*
X65015Y102274D02*
G03*
X67867Y101000I2852J2554D01*
G01*
X66505Y103609D02*
G03*
X72343Y101000I5838J5229D01*
G01*
X69179Y245242D02*
G03*
X72176Y244000I2998J2998D01*
G01*
D02*
G03*
X69179Y242758I0J-4239D01*
G01*
X58307Y244197D02*
G03*
X57205Y246858I-3764J0D01*
G01*
X56729Y247334D02*
G03*
X60063Y245953I3334J3334D01*
G01*
X43062Y187321D02*
G03*
X40064Y188563I-2998J-2998D01*
G01*
D02*
G03*
X43062Y189805I0J4239D01*
G01*
Y195195D02*
G03*
X40064Y196437I-2998J-2998D01*
G01*
D02*
G03*
X43062Y197679I0J4239D01*
G01*
X45939D02*
G03*
X48936Y196437I2998J2998D01*
G01*
D02*
G03*
X45939Y195195I0J-4239D01*
G01*
X359509Y207381D02*
G03*
X360890Y210714I-3334J3334D01*
G01*
D02*
G03*
X362271Y207381I4714J0D01*
G01*
X345729Y204619D02*
G03*
X342521Y205948I-3208J-3208D01*
G01*
X342270D02*
G03*
X345729Y207381I0J4892D01*
G01*
X362271Y225484D02*
G03*
X360890Y222150I3334J-3334D01*
G01*
D02*
G03*
X359509Y225484I-4714J0D01*
G01*
Y228245D02*
G03*
X360890Y231579I-3334J3334D01*
G01*
D02*
G03*
X362271Y228245I4714J0D01*
G01*
X345729Y225484D02*
G03*
X342521Y226813I-3208J-3208D01*
G01*
X342270D02*
G03*
X345729Y228245I0J4892D01*
G01*
X359509Y249110D02*
G03*
X360890Y252444I-3334J3334D01*
G01*
D02*
G03*
X362271Y249110I4714J0D01*
G01*
Y246348D02*
G03*
X360890Y243015I3334J-3334D01*
G01*
D02*
G03*
X359509Y246348I-4714J0D01*
G01*
X345729D02*
G03*
X342521Y247677I-3208J-3208D01*
G01*
X342270D02*
G03*
X345729Y249110I0J4892D01*
G01*
X359509Y269974D02*
G03*
X360890Y273308I-3334J3334D01*
G01*
D02*
G03*
X362271Y269974I4714J0D01*
G01*
Y267213D02*
G03*
X360890Y263879I3334J-3334D01*
G01*
D02*
G03*
X359509Y267213I-4714J0D01*
G01*
X345729D02*
G03*
X342521Y268542I-3209J-3209D01*
G01*
X342271D02*
G03*
X345729Y269974I0J4891D01*
G01*
X362271Y288077D02*
G03*
X360890Y284744I3334J-3334D01*
G01*
D02*
G03*
X359509Y288077I-4714J0D01*
G01*
Y290839D02*
G03*
X360890Y294173I-3334J3334D01*
G01*
D02*
G03*
X362271Y290839I4714J0D01*
G01*
X345729Y288077D02*
G03*
X342521Y289406I-3209J-3209D01*
G01*
X342271D02*
G03*
X345729Y290839I0J4891D01*
G01*
X359509Y311704D02*
G03*
X360890Y315037I-3334J3334D01*
G01*
D02*
G03*
X362271Y311704I4714J0D01*
G01*
Y308942D02*
G03*
X360890Y305608I3334J-3334D01*
G01*
D02*
G03*
X359509Y308942I-4714J0D01*
G01*
X345729D02*
G03*
X342521Y310271I-3208J-3208D01*
G01*
X342270D02*
G03*
X345729Y311704I0J4892D01*
G01*
X362271Y329807D02*
G03*
X360890Y326473I3334J-3334D01*
G01*
D02*
G03*
X359509Y329807I-4714J0D01*
G01*
Y332568D02*
G03*
X360890Y335902I-3334J3334D01*
G01*
D02*
G03*
X362271Y332568I4714J0D01*
G01*
X345729Y329807D02*
G03*
X342521Y331135I-3208J-3208D01*
G01*
X342270D02*
G03*
X345729Y332568I0J4892D01*
G01*
X359509Y353433D02*
G03*
X360890Y356766I-3334J3334D01*
G01*
D02*
G03*
X362271Y353433I4714J0D01*
G01*
Y350671D02*
G03*
X360890Y347338I3334J-3334D01*
G01*
D02*
G03*
X359509Y350671I-4714J0D01*
G01*
X345729D02*
G03*
X342521Y352000I-3208J-3208D01*
G01*
X342270D02*
G03*
X345729Y353433I0J4892D01*
G01*
X31415Y107277D02*
G03*
X33290Y106500I1875J1875D01*
G01*
X33518D02*
G03*
X31415Y105629I0J-2974D01*
G01*
X30000Y107043D02*
G03*
X27689Y108000I-2310J-2310D01*
G01*
X28585Y105629D02*
G03*
X22861Y108000I-5725J-5725D01*
G01*
X29176Y107277D02*
G03*
X30000Y109266I-1989J1989D01*
G01*
D02*
G03*
X30824Y107277I2813J0D01*
G01*
Y99723D02*
G03*
X30000Y97734I1989J-1989D01*
G01*
D02*
G03*
X29176Y99723I-2813J0D01*
G01*
X78223Y243176D02*
G03*
X76234Y244000I-1989J-1989D01*
G01*
D02*
G03*
X78223Y244824I0J2813D01*
G01*
X79871Y242585D02*
G03*
X79047Y240596I1989J-1989D01*
G01*
D02*
G03*
X78223Y242585I-2813J0D01*
G01*
X84129Y245415D02*
G03*
X84953Y247404I-1989J1989D01*
G01*
D02*
G03*
X85777Y245415I2813J0D01*
G01*
X316095Y206342D02*
G03*
X315410Y207995I-2338J0D01*
G01*
X314459Y208945D02*
G03*
X317457Y207704I2998J2998D01*
G01*
X325507Y206911D02*
G03*
X327832Y205948I2325J2325D01*
G01*
D02*
G03*
X325507Y204985I0J-3289D01*
G01*
X277129Y406915D02*
G03*
X277953Y408904I-1989J1989D01*
G01*
D02*
G03*
X278777Y406915I2813J0D01*
G01*
Y404085D02*
G03*
X277953Y402096I1989J-1989D01*
G01*
D02*
G03*
X277129Y404085I-2813J0D01*
G01*
X272871D02*
G03*
X271500Y400775I3310J-3310D01*
G01*
X63619Y61729D02*
G03*
X60286Y63110I-3334J-3334D01*
G01*
D02*
G03*
X63619Y64491I0J4714D01*
G01*
X66381D02*
G03*
X72395Y62000I6014J6014D01*
G01*
X63619Y78271D02*
G03*
X65000Y81604I-3334J3334D01*
G01*
D02*
G03*
X66381Y78271I4714J0D01*
G01*
X136881Y54119D02*
G03*
X135500Y50786I3334J-3334D01*
G01*
D02*
G03*
X134119Y54119I-4714J0D01*
G01*
X137453Y75500D02*
G03*
X138833Y72166I4714J0D01*
G01*
X138834Y72166D02*
G03*
X135500Y73547I-3334J-3334D01*
G01*
X133547Y85500D02*
G03*
X132167Y88834I-4714J0D01*
G01*
X132166Y88834D02*
G03*
X135500Y87453I3334J3334D01*
G01*
X104119Y54119D02*
G03*
X100786Y55500I-3334J-3334D01*
G01*
D02*
G03*
X104119Y56881I0J4714D01*
G01*
X135500Y22629D02*
G03*
X137881Y16881I8129J0D01*
G01*
X150033Y259533D02*
G03*
X146379Y261047I-3655J-3655D01*
G01*
X148619Y258119D02*
G03*
X141550Y261047I-7069J-7069D01*
G01*
X148047Y279500D02*
G03*
X146667Y282834I-4714J0D01*
G01*
X146666Y282834D02*
G03*
X150000Y281453I3334J3334D01*
G01*
X148047Y289500D02*
G03*
X146667Y292834I-4714J0D01*
G01*
X146666Y292834D02*
G03*
X150000Y291453I3334J3334D01*
G01*
X148047Y299500D02*
G03*
X146667Y302834I-4714J0D01*
G01*
X146666Y302834D02*
G03*
X150000Y301453I3334J3334D01*
G01*
X151953Y319500D02*
G03*
X153333Y316166I4714J0D01*
G01*
X153334Y316166D02*
G03*
X150000Y317547I-3334J-3334D01*
G01*
X148619Y328119D02*
G03*
X145286Y329500I-3334J-3334D01*
G01*
D02*
G03*
X148619Y330881I0J4714D01*
G01*
X64553Y329651D02*
G03*
X63500Y332500I-3621J281D01*
G01*
X63500Y332500D02*
G03*
X66349Y331447I2568J2568D01*
G01*
X66500Y321453D02*
G03*
X69834Y322834I0J4714D01*
G01*
X69834Y322834D02*
G03*
X68453Y319500I3334J-3334D01*
G01*
X64547Y309500D02*
G03*
X63166Y312834I-4714J0D01*
G01*
X63166Y312834D02*
G03*
X66500Y311453I3334J3334D01*
G01*
X67881Y300881D02*
G03*
X71214Y299500I3334J3334D01*
G01*
D02*
G03*
X67881Y298119I0J-4714D01*
G01*
X64547Y289500D02*
G03*
X63166Y292834I-4714J0D01*
G01*
X63166Y292834D02*
G03*
X66500Y291453I3334J3334D01*
G01*
X68453Y279500D02*
G03*
X69834Y276166I4714J0D01*
G01*
X69834Y276166D02*
G03*
X66500Y277547I-3334J-3334D01*
G01*
X98447Y289349D02*
G03*
X99500Y286500I3621J-281D01*
G01*
X99500Y286500D02*
G03*
X96651Y287553I-2568J-2568D01*
G01*
X198381Y407881D02*
G03*
X204129Y405500I5748J5748D01*
G01*
X168381Y357881D02*
G03*
X171714Y356500I3334J3334D01*
G01*
D02*
G03*
X168381Y355119I0J-4714D01*
G01*
X165619Y375119D02*
G03*
X162286Y376500I-3334J-3334D01*
G01*
D02*
G03*
X165619Y377881I0J4714D01*
G01*
X168381Y387881D02*
G03*
X171714Y386500I3334J3334D01*
G01*
D02*
G03*
X168381Y385119I0J-4714D01*
G01*
X167000Y398453D02*
G03*
X170334Y399834I0J4714D01*
G01*
X170334Y399834D02*
G03*
X168953Y396500I3334J-3334D01*
G01*
X61500Y384047D02*
G03*
X58166Y382666I0J-4714D01*
G01*
X58166Y382666D02*
G03*
X59547Y386000I-3334J3334D01*
G01*
X62881Y377381D02*
G03*
X66214Y376000I3334J3334D01*
G01*
D02*
G03*
X62881Y374619I0J-4714D01*
G01*
X215200Y163400D02*
G03*
X214000Y161000I1800J-2400D01*
G01*
D02*
G03*
X212800Y163400I-3000J0D01*
G01*
X215200D02*
G03*
X214000Y161000I1800J-2400D01*
G01*
D02*
G03*
X212800Y163400I-3000J0D01*
G01*
X214000Y153000D02*
G03*
X210586Y151586I0J-4828D01*
G01*
X210586Y151586D02*
G03*
X212000Y155000I-3414J3414D01*
G01*
X215414Y143586D02*
G03*
X214000Y140172I3414J-3414D01*
G01*
D02*
G03*
X212586Y143586I-4828J0D01*
G01*
X366121Y47621D02*
G03*
X361585Y49500I-4536J-4536D01*
G01*
X363999D02*
G03*
X366121Y50379I0J3001D01*
G01*
X367533Y39033D02*
G03*
X361578Y41500I-5955J-5955D01*
G01*
X366119Y37619D02*
G03*
X356750Y41500I-9369J-9369D01*
G01*
X365596Y39434D02*
G03*
X365000Y41500I-2168J494D01*
G01*
X365000Y41500D02*
G03*
X367066Y40904I1573J1573D01*
G01*
X366119Y27619D02*
G03*
X362786Y29000I-3334J-3334D01*
G01*
D02*
G03*
X366119Y30381I0J4714D01*
G01*
X233881Y417381D02*
G03*
X237214Y416000I3334J3334D01*
G01*
D02*
G03*
X233881Y414619I0J-4714D01*
G01*
X246500Y313953D02*
G03*
X249834Y315334I0J4714D01*
G01*
X249834Y315334D02*
G03*
X248453Y312000I3334J-3334D01*
G01*
X235119Y313381D02*
G03*
X236500Y316714I-3334J3334D01*
G01*
D02*
G03*
X237881Y313381I4714J0D01*
G01*
X15119Y300619D02*
G03*
X11786Y302000I-3334J-3334D01*
G01*
D02*
G03*
X15119Y303381I0J4714D01*
G01*
X18447Y321849D02*
G03*
X19500Y319000I3621J-281D01*
G01*
X19500Y319000D02*
G03*
X16651Y320053I-2568J-2568D01*
G01*
X14547Y332000D02*
G03*
X13167Y335334I-4714J0D01*
G01*
X13166Y335334D02*
G03*
X16500Y333953I3334J3334D01*
G01*
X129381Y451119D02*
G03*
X128000Y447786I3334J-3334D01*
G01*
D02*
G03*
X126619Y451119I-4714J0D01*
G01*
X106619Y453881D02*
G03*
X108000Y457214I-3334J3334D01*
G01*
D02*
G03*
X109381Y453881I4714J0D01*
G01*
X40381Y228119D02*
G03*
X39000Y224786I3334J-3334D01*
G01*
D02*
G03*
X37619Y228119I-4714J0D01*
G01*
X50381D02*
G03*
X49000Y224786I3334J-3334D01*
G01*
D02*
G03*
X47619Y228119I-4714J0D01*
G01*
Y230881D02*
G03*
X49000Y234214I-3334J3334D01*
G01*
D02*
G03*
X50381Y230881I4714J0D01*
G01*
X60381Y228119D02*
G03*
X59000Y224786I3334J-3334D01*
G01*
D02*
G03*
X57619Y228119I-4714J0D01*
G01*
X70381D02*
G03*
X69000Y224786I3334J-3334D01*
G01*
D02*
G03*
X67619Y228119I-4714J0D01*
G01*
X80381D02*
G03*
X79000Y224786I3334J-3334D01*
G01*
D02*
G03*
X77619Y228119I-4714J0D01*
G01*
Y230881D02*
G03*
X79047Y234328I-3447J3447D01*
G01*
Y234100D02*
G03*
X80381Y230881I4553J0D01*
G01*
X90000Y222371D02*
G03*
X87619Y228119I-8129J0D01*
G01*
X100381D02*
G03*
X99000Y224786I3334J-3334D01*
G01*
D02*
G03*
X97619Y228119I-4714J0D01*
G01*
X110381D02*
G03*
X109000Y224786I3334J-3334D01*
G01*
D02*
G03*
X107619Y228119I-4714J0D01*
G01*
X120381D02*
G03*
X119000Y224786I3334J-3334D01*
G01*
D02*
G03*
X117619Y228119I-4714J0D01*
G01*
X130381D02*
G03*
X129000Y224786I3334J-3334D01*
G01*
D02*
G03*
X127619Y228119I-4714J0D01*
G01*
X136606Y223606D02*
G03*
X139047Y229500I-5894J5894D01*
G01*
X133192Y220192D02*
G03*
X137047Y229500I-9308J9308D01*
G01*
X140026Y227838D02*
G03*
X139000Y226000I1134J-1838D01*
G01*
D02*
G03*
X137974Y227838I-2160J0D01*
G01*
X149000Y227547D02*
G03*
X145666Y226166I0J-4714D01*
G01*
X145667Y226166D02*
G03*
X147047Y229500I-3334J3334D01*
G01*
X147619Y230881D02*
G03*
X149000Y234214I-3334J3334D01*
G01*
D02*
G03*
X150381Y230881I4714J0D01*
G01*
X159000Y227547D02*
G03*
X155666Y226166I0J-4714D01*
G01*
X155666Y226166D02*
G03*
X157047Y229500I-3334J3334D01*
G01*
X169000Y227547D02*
G03*
X165666Y226166I0J-4714D01*
G01*
X165666Y226166D02*
G03*
X167047Y229500I-3334J3334D01*
G01*
X169000Y125953D02*
G03*
X172334Y127333I0J4714D01*
G01*
X172334Y127334D02*
G03*
X170953Y124000I3334J-3334D01*
G01*
X153106Y128394D02*
G03*
X159000Y125953I5894J5894D01*
G01*
X157619Y125381D02*
G03*
X159000Y128714I-3334J3334D01*
G01*
D02*
G03*
X160381Y125381I4714J0D01*
G01*
X143106Y128394D02*
G03*
X149000Y125953I5894J5894D01*
G01*
X139047Y124000D02*
G03*
X137666Y127334I-4714J0D01*
G01*
X137047Y124000D02*
G03*
X134252Y130748I-9543J0D01*
G01*
X129047Y124000D02*
G03*
X126678Y129719I-8089J0D01*
G01*
X127047Y124000D02*
G03*
X123264Y133134I-12917J0D01*
G01*
X128017Y125687D02*
G03*
X129000Y127398I-996J1710D01*
G01*
D02*
G03*
X129983Y125687I1979J0D01*
G01*
X117619Y125381D02*
G03*
X119000Y128714I-3334J3334D01*
G01*
D02*
G03*
X120381Y125381I4714J0D01*
G01*
X107619D02*
G03*
X109000Y128714I-3334J3334D01*
G01*
D02*
G03*
X110381Y125381I4714J0D01*
G01*
X97619D02*
G03*
X99000Y128714I-3334J3334D01*
G01*
D02*
G03*
X100381Y125381I4714J0D01*
G01*
Y122619D02*
G03*
X99000Y119286I3334J-3334D01*
G01*
D02*
G03*
X97619Y122619I-4714J0D01*
G01*
X100381D02*
G03*
X99000Y119286I3334J-3334D01*
G01*
D02*
G03*
X97619Y122619I-4714J0D01*
G01*
X87619Y125381D02*
G03*
X90000Y131129I-5748J5748D01*
G01*
X77619Y125381D02*
G03*
X79000Y128714I-3334J3334D01*
G01*
D02*
G03*
X80381Y125381I4714J0D01*
G01*
Y122619D02*
G03*
X79000Y119286I3334J-3334D01*
G01*
D02*
G03*
X77619Y122619I-4714J0D01*
G01*
X67619Y125381D02*
G03*
X69000Y128714I-3334J3334D01*
G01*
D02*
G03*
X70381Y125381I4714J0D01*
G01*
Y122619D02*
G03*
X69500Y120493I2127J-2127D01*
G01*
Y118078D02*
G03*
X67619Y122619I-6421J0D01*
G01*
X57619Y125381D02*
G03*
X59000Y128714I-3334J3334D01*
G01*
D02*
G03*
X60381Y125381I4714J0D01*
G01*
X47619D02*
G03*
X49000Y128714I-3334J3334D01*
G01*
D02*
G03*
X50381Y125381I4714J0D01*
G01*
X34606Y118106D02*
G03*
X37047Y124000I-5894J5894D01*
G01*
X37619Y125381D02*
G03*
X39000Y128714I-3334J3334D01*
G01*
D02*
G03*
X40381Y125381I4714J0D01*
G01*
X287047Y117000D02*
G03*
X285666Y120334I-4714J0D01*
G01*
X285666Y120334D02*
G03*
X289000Y118953I3334J3334D01*
G01*
X274119Y309381D02*
G03*
X275000Y311507I-2127J2127D01*
G01*
Y313921D02*
G03*
X276881Y309381I6421J0D01*
G01*
X284119D02*
G03*
X285500Y312714I-3334J3334D01*
G01*
D02*
G03*
X286881Y309381I4714J0D01*
G01*
X274119Y296619D02*
G03*
X270786Y298000I-3334J-3334D01*
G01*
D02*
G03*
X274119Y299381I0J4714D01*
G01*
X285500Y299953D02*
G03*
X288834Y301334I0J4714D01*
G01*
X288834Y301334D02*
G03*
X287453Y298000I3334J-3334D01*
G01*
X274119Y286619D02*
G03*
X270786Y288000I-3334J-3334D01*
G01*
D02*
G03*
X274119Y289381I0J4714D01*
G01*
X286881D02*
G03*
X290214Y288000I3334J3334D01*
G01*
D02*
G03*
X286881Y286619I0J-4714D01*
G01*
X275500Y276047D02*
G03*
X272166Y274666I0J-4714D01*
G01*
X272166Y274666D02*
G03*
X273547Y278000I-3334J3334D01*
G01*
X286881Y279381D02*
G03*
X290214Y278000I3334J3334D01*
G01*
D02*
G03*
X286881Y276619I0J-4714D01*
G01*
Y269381D02*
G03*
X290214Y268000I3334J3334D01*
G01*
D02*
G03*
X286881Y266619I0J-4714D01*
G01*
Y259381D02*
G03*
X290214Y258000I3334J3334D01*
G01*
D02*
G03*
X286881Y256619I0J-4714D01*
G01*
Y249381D02*
G03*
X290214Y248000I3334J3334D01*
G01*
D02*
G03*
X286881Y246619I0J-4714D01*
G01*
X287453Y238000D02*
G03*
X288901Y234504I4944J0D01*
G01*
X288671Y234734D02*
G03*
X285500Y236047I-3171J-3171D01*
G01*
X279547Y384500D02*
G03*
X278166Y387834I-4714J0D01*
G01*
X278166Y387834D02*
G03*
X281500Y386453I3334J3334D01*
G01*
X282881Y383119D02*
G03*
X281500Y379786I3334J-3334D01*
G01*
D02*
G03*
X280119Y383119I-4714J0D01*
G01*
X277953Y388121D02*
G03*
X280052Y383052I7168J0D01*
G01*
X277953Y392950D02*
G03*
X281467Y384467I11997J0D01*
G01*
X277953Y397778D02*
G03*
X282881Y385881I16825J0D01*
G01*
X269547Y384500D02*
G03*
X268166Y387834I-4714J0D01*
G01*
X268166Y387834D02*
G03*
X271500Y386453I3334J3334D01*
G01*
Y382547D02*
G03*
X268166Y381166I0J-4714D01*
G01*
X268166Y381166D02*
G03*
X269547Y384500I-3334J3334D01*
G01*
X270119Y385881D02*
G03*
X271500Y389214I-3334J3334D01*
G01*
D02*
G03*
X272881Y385881I4714J0D01*
G01*
X15881Y65881D02*
G03*
X19214Y64500I3334J3334D01*
G01*
D02*
G03*
X15881Y63119I0J-4714D01*
G01*
X13119Y75881D02*
G03*
X14500Y79214I-3334J3334D01*
G01*
D02*
G03*
X15881Y75881I4714J0D01*
G01*
X13119Y119381D02*
G03*
X15500Y125129I-5748J5748D01*
G01*
X15881Y109381D02*
G03*
X19214Y108000I3334J3334D01*
G01*
D02*
G03*
X15881Y106619I0J-4714D01*
G01*
X12547Y98000D02*
G03*
X11874Y99626I-2300J0D01*
G01*
X9459Y102041D02*
G03*
X14500Y99953I5041J5041D01*
G01*
X15881Y96619D02*
G03*
X14500Y93286I3334J-3334D01*
G01*
D02*
G03*
X13119Y96619I-4714J0D01*
G01*
X25500Y149953D02*
G03*
X28834Y151333I0J4714D01*
G01*
X28834Y151334D02*
G03*
X27453Y148000I3334J-3334D01*
G01*
X16881Y146619D02*
G03*
X15500Y143286I3334J-3334D01*
G01*
D02*
G03*
X14119Y146619I-4714J0D01*
G01*
X15500Y156047D02*
G03*
X10459Y153959I0J-7129D01*
G01*
X12874Y156374D02*
G03*
X13547Y158000I-1626J1626D01*
G01*
X25500Y179953D02*
G03*
X28834Y181333I0J4714D01*
G01*
X28834Y181334D02*
G03*
X27453Y178000I3334J-3334D01*
G01*
X13547D02*
G03*
X12520Y180480I-3507J0D01*
G01*
X11313Y181687D02*
G03*
X15500Y179953I4187J4187D01*
G01*
X43000Y74744D02*
G03*
X40003Y73502I0J-4239D01*
G01*
D02*
G03*
X41244Y76500I-2998J2998D01*
G01*
D02*
G03*
X40003Y79497I-4239J0D01*
G01*
D02*
G03*
X43000Y78256I2998J2998D01*
G01*
X41758Y105258D02*
G03*
X38761Y106500I-2998J-2998D01*
G01*
D02*
G03*
X41758Y107742I0J4239D01*
G01*
X44242D02*
G03*
X47239Y106500I2998J2998D01*
G01*
D02*
G03*
X44242Y105258I0J-4239D01*
G01*
X293242Y42742D02*
G03*
X296239Y41500I2998J2998D01*
G01*
D02*
G03*
X293242Y40258I0J-4239D01*
G01*
X290758D02*
G03*
X286554Y42000I-4205J-4205D01*
G01*
X288968D02*
G03*
X290758Y42742I0J2532D01*
G01*
Y10258D02*
G03*
X286554Y12000I-4205J-4205D01*
G01*
X288968D02*
G03*
X290758Y12742I0J2532D01*
G01*
X293293Y12688D02*
G03*
X296000Y11500I2707J2489D01*
G01*
D02*
G03*
X293293Y10311I0J-3678D01*
G01*
X266258Y10758D02*
G03*
X263261Y12000I-2998J-2998D01*
G01*
D02*
G03*
X266258Y13242I0J4239D01*
G01*
X268742D02*
G03*
X271739Y12000I2998J2998D01*
G01*
D02*
G03*
X268742Y10758I0J-4239D01*
G01*
X266258Y40758D02*
G03*
X263261Y42000I-2998J-2998D01*
G01*
D02*
G03*
X266258Y43242I0J4239D01*
G01*
X268742D02*
G03*
X271739Y42000I2998J2998D01*
G01*
D02*
G03*
X268742Y40758I0J-4239D01*
G01*
X261258Y361242D02*
G03*
X262500Y364239I-2998J2998D01*
G01*
D02*
G03*
X263742Y361242I4239J0D01*
G01*
X293742D02*
G03*
X296739Y360000I2998J2998D01*
G01*
D02*
G03*
X293742Y358758I0J-4239D01*
G01*
X291502Y357002D02*
G03*
X292744Y360000I-2998J2998D01*
G01*
X288088Y353588D02*
G03*
X290744Y360000I-6412J6412D01*
G01*
D02*
G03*
X289503Y362998I-4239J0D01*
G01*
D02*
G03*
X292500Y361756I2998J2998D01*
G01*
X20381Y254381D02*
G03*
X23714Y253000I3334J3334D01*
G01*
D02*
G03*
X20381Y251619I0J-4714D01*
G01*
X162174Y67245D02*
G03*
X166500Y65453I4326J4326D01*
G01*
X158759Y70659D02*
G03*
X166500Y67453I7741J7741D01*
G01*
X167881Y54119D02*
G03*
X166500Y50786I3334J-3334D01*
G01*
D02*
G03*
X165119Y54119I-4714J0D01*
G01*
X196500Y57453D02*
G03*
X199834Y58834I0J4714D01*
G01*
X199834Y58834D02*
G03*
X198453Y55500I3334J-3334D01*
G01*
X2500Y302000D02*
X16500D01*
X1000Y303500D02*
X2500Y302000D01*
X-7000Y373222D02*
X-3000Y369222D01*
Y289500D02*
Y369222D01*
Y289500D02*
X30500D01*
X1000Y303500D02*
Y373000D01*
X4500Y375157D02*
Y407500D01*
Y375157D02*
X5000Y374657D01*
Y343500D02*
Y374657D01*
Y343500D02*
X16500Y332000D01*
X-1500Y375500D02*
X1000Y373000D01*
X-24000Y311500D02*
X-11000D01*
X189500Y389500D02*
Y446500D01*
X186500Y386500D02*
X189500Y389500D01*
X167000Y386500D02*
X186500D01*
X202000Y455500D02*
X215500Y442000D01*
X187000Y455500D02*
X202000D01*
X175500Y444000D02*
X187000Y455500D01*
X16500Y460500D02*
X249000D01*
X148453Y261047D02*
X150000Y259500D01*
X84953Y261047D02*
X148453D01*
X190922Y194578D02*
X191000Y194500D01*
X199500Y212500D02*
X222500Y235500D01*
X199500Y156500D02*
Y212500D01*
X191500Y148500D02*
X199500Y156500D01*
X190922Y194578D02*
Y218422D01*
X212000Y239500D01*
Y268000D01*
X193000Y267500D02*
Y338000D01*
X174500Y356500D02*
X193000Y338000D01*
X167000Y356500D02*
X174500D01*
X147000Y405000D02*
X156000Y414000D01*
Y454000D01*
X81000Y369500D02*
X96000D01*
X128500Y337000D01*
X107500Y342000D02*
Y344343D01*
X94243Y357600D02*
X107500Y344343D01*
X90000Y357600D02*
X94243D01*
X128000Y329500D02*
X150000D01*
X94100Y363400D02*
X128000Y329500D01*
X73900Y363400D02*
X94100D01*
X102500Y337000D02*
Y343000D01*
X100000Y345500D02*
X102500Y343000D01*
X90500Y345500D02*
X100000D01*
X107500Y342000D02*
X150000Y299500D01*
X102500Y337000D02*
X150000Y289500D01*
X72453Y340053D02*
X90000Y357600D01*
X76453Y331453D02*
X90500Y345500D01*
X61500Y376000D02*
X116000D01*
X136500Y355500D01*
Y336000D02*
Y355500D01*
X245000Y247000D02*
X247000Y245000D01*
X246500Y48500D02*
Y244000D01*
X247000Y49500D02*
X367000D01*
X240000Y94000D02*
Y170500D01*
X232000Y178500D02*
X240000Y170500D01*
X232000Y178500D02*
Y235500D01*
X253500Y343000D02*
Y406000D01*
Y342500D02*
Y343000D01*
X243500Y416000D02*
X253500Y406000D01*
X232500Y416000D02*
X243500D01*
X275500Y130500D02*
X289000Y117000D01*
X275500Y130500D02*
Y148000D01*
X183500Y202500D02*
Y242000D01*
X152000D02*
X183500D01*
X149000Y239000D02*
X152000Y242000D01*
X149000Y229500D02*
Y239000D01*
X367000Y49500D02*
X367500Y49000D01*
X240000Y288000D02*
X275500D01*
X222500Y270500D02*
X240000Y288000D01*
X222500Y235500D02*
Y270500D01*
X129500Y152000D02*
X158250Y123250D01*
X159500Y148500D02*
X164000D01*
X159000Y148000D02*
X159500Y148500D01*
X159000Y124000D02*
Y148000D01*
X140500Y376500D02*
X167000D01*
X140500D02*
Y427000D01*
X128000Y439500D02*
X140500Y427000D01*
X128000Y439500D02*
Y452500D01*
X44500Y331500D02*
X66500Y309500D01*
X44500Y331500D02*
Y342500D01*
X16000Y371000D02*
X44500Y342500D01*
X16000Y371000D02*
Y394500D01*
X15500Y395000D02*
X16000Y394500D01*
X43500Y467500D02*
X44000Y468000D01*
X15500Y467500D02*
X43500D01*
X-7000Y445000D02*
X15500Y467500D01*
X-7000Y373222D02*
Y445000D01*
X30500Y289500D02*
X61500Y258500D01*
X71000D01*
X150000Y319500D02*
X169500Y300000D01*
Y254000D02*
Y300000D01*
Y254000D02*
X173000Y250500D01*
X205000D01*
Y405500D01*
X198000D02*
X205000D01*
X197000Y406500D02*
X198000Y405500D01*
X50500Y375000D02*
X61500Y386000D01*
X50500Y346500D02*
Y375000D01*
X129500Y162000D02*
X176000D01*
Y131000D02*
Y162000D01*
X169000Y124000D02*
X176000Y131000D01*
X275000Y308500D02*
X275500Y308000D01*
X275000Y308500D02*
Y317500D01*
X298000Y340500D01*
Y349000D01*
X255000Y298000D02*
X275500D01*
X255000D02*
Y309000D01*
X275500Y329500D01*
X236500Y312000D02*
Y379000D01*
X215500Y400000D02*
X236500Y379000D01*
X215500Y400000D02*
Y442000D01*
X175500Y405000D02*
Y444000D01*
X167000Y396500D02*
X175500Y405000D01*
X249000Y447000D02*
Y460500D01*
X292500Y358000D02*
Y360000D01*
X246500Y312000D02*
X292500Y358000D01*
X21500Y351500D02*
X33500Y339500D01*
X12000Y351500D02*
X21500D01*
X4500Y407500D02*
X16500Y419500D01*
X8547Y152047D02*
X14500Y158000D01*
X8547Y102953D02*
Y152047D01*
Y102953D02*
X13500Y98000D01*
X9547Y183453D02*
X15250Y177750D01*
X9547Y183453D02*
Y210466D01*
X13034Y213953D01*
X16500Y418500D02*
Y419500D01*
Y460500D01*
X258500Y397500D02*
Y437500D01*
X249000Y447000D02*
X258500Y437500D01*
Y397500D02*
X271500Y384500D01*
X277953Y435453D02*
X278500Y436000D01*
X277953Y405500D02*
Y435453D01*
Y388047D02*
X281500Y384500D01*
X277953Y388047D02*
Y405500D01*
X271500Y404953D02*
X272047Y405500D01*
X271500Y384500D02*
Y404953D01*
X108000Y452500D02*
Y460000D01*
X99000Y113000D02*
Y121500D01*
Y113000D02*
Y122500D01*
X65000Y76890D02*
Y94500D01*
X89000Y122500D02*
X90000Y123500D01*
Y152000D01*
X214000Y161000D02*
X216485D01*
X148250Y123250D02*
X149000Y122500D01*
X29953Y106500D02*
X30000D01*
X43000D01*
X29953D02*
X30000Y106453D01*
X84953Y244000D02*
Y261047D01*
X66500Y279500D02*
X84953Y261047D01*
X60500Y350000D02*
X73900Y363400D01*
X60500Y335000D02*
Y350000D01*
Y335000D02*
X63000Y332500D01*
X63500D01*
X66500Y329500D01*
X76453Y319547D02*
Y331453D01*
X75400Y318494D02*
X76453Y319547D01*
X75400Y300900D02*
Y318494D01*
X74000Y299500D02*
X75400Y300900D01*
X66500Y299500D02*
X74000D01*
X72453Y325453D02*
Y340053D01*
X66500Y319500D02*
X72453Y325453D01*
X37000Y319000D02*
X66500Y289500D01*
X19500Y319000D02*
X37000D01*
X16500Y322000D02*
X19500Y319000D01*
X96500Y289500D02*
X99500Y286500D01*
X143000D01*
X150000Y279500D01*
X262500Y360000D02*
Y375500D01*
X14500Y108000D02*
X28453D01*
X30000Y106453D02*
Y106500D01*
Y113500D01*
X39000Y122500D02*
Y124000D01*
X43000Y106500D02*
X60937D01*
X65000Y102437D01*
X19000Y269000D02*
X35063D01*
X39000Y131657D02*
X65843Y158500D01*
X67964D02*
X68500Y159036D01*
X66437Y101000D02*
X72343D01*
X166500Y32000D02*
Y55500D01*
Y32000D02*
X177500D01*
X196000Y36000D02*
X202000Y42000D01*
X267500D01*
X291500D01*
X292000Y41500D02*
X365000D01*
X367500Y39000D01*
X13500Y98000D02*
X14500D01*
Y158000D02*
X15500D01*
X54063Y196437D02*
X67250Y183250D01*
X69000Y207143D02*
X76143Y200000D01*
X27966Y213953D02*
X31453Y210466D01*
X15250Y177750D02*
X15500Y178000D01*
X25500Y148000D02*
X53500Y176000D01*
X79000Y229500D02*
X79047Y229547D01*
X99000Y206157D02*
X109000Y216157D01*
X129000Y224602D02*
Y229500D01*
X129500Y190000D02*
X169000Y229500D01*
X252000Y124000D02*
Y254500D01*
X275500Y278000D01*
X99000Y145843D02*
X109000Y135843D01*
Y122500D02*
Y124000D01*
X103000Y147500D02*
Y151780D01*
X119000Y124000D02*
Y131500D01*
Y122500D02*
Y124000D01*
X59000Y211487D02*
Y229500D01*
Y211487D02*
X70487Y200000D01*
X110457Y197457D02*
X139000Y226000D01*
Y229500D01*
X119500Y200000D02*
X149000Y229500D01*
X119500Y152000D02*
X147500Y124000D01*
X139000Y122500D02*
Y124000D01*
X107000Y149398D02*
X129000Y127398D01*
X95000Y208000D02*
X99000Y212000D01*
Y229500D01*
X216485Y161000D02*
X220000Y157485D01*
Y79000D02*
Y157485D01*
X79000Y108500D02*
X80500Y107000D01*
X79000Y108500D02*
Y124000D01*
Y145000D01*
X86000Y152000D01*
X69000Y144857D02*
X76143Y152000D01*
X69000Y122500D02*
Y124000D01*
Y122500D02*
X69500Y122000D01*
Y109500D02*
Y122000D01*
X83000Y96000D02*
X92343D01*
X96500Y100157D02*
Y102000D01*
X100000Y105500D01*
X113439D01*
X123418Y106000D02*
X163918Y65500D01*
X59000Y140513D02*
X70487Y152000D01*
X187000Y111000D02*
X188000Y112000D01*
Y129000D01*
X234000Y154500D02*
X234500Y154000D01*
X49000Y124000D02*
Y136000D01*
X285500Y237905D02*
Y238000D01*
Y237905D02*
X317457Y205948D01*
X316915Y268000D02*
X317457Y268542D01*
Y329957D02*
Y331135D01*
X285500Y308000D02*
Y320043D01*
X317457Y352000D01*
X14500Y118000D02*
X15500Y119000D01*
Y148000D01*
X347058Y205948D02*
X347110Y206000D01*
X347058Y226813D02*
X347110Y226865D01*
X347058Y247677D02*
X347110Y247729D01*
X347058Y268542D02*
X347110Y268594D01*
X347058Y289406D02*
X347110Y289458D01*
X347058Y331135D02*
X347110Y331187D01*
X347058Y352000D02*
X347110Y352052D01*
X65000Y94500D02*
Y94563D01*
X31000Y64500D02*
X43000Y76500D01*
X14500Y64500D02*
X31000D01*
X32390Y63110D02*
X65000D01*
X30000Y89500D02*
X43000Y76500D01*
X30000Y89500D02*
Y100547D01*
X70900Y187100D02*
X80500D01*
X97500Y55500D02*
X105500D01*
X81500Y87000D02*
X95000D01*
X66110Y62000D02*
X81000D01*
Y86500D02*
X81500Y87000D01*
X244500Y5000D02*
X251500Y12000D01*
X267500D01*
X207500Y16000D02*
X213500D01*
X214500Y5000D02*
X244500D01*
X267500Y12000D02*
X291500D01*
X292000Y11500D02*
X296000D01*
X357500Y29000D02*
Y33000D01*
Y29000D02*
X367500D01*
X360890Y289458D02*
Y310323D01*
Y268594D02*
Y289458D01*
Y310323D02*
Y331187D01*
Y247729D02*
Y268594D01*
Y352052D02*
Y359110D01*
X360000Y360000D02*
X360890Y359110D01*
X281500Y371000D02*
X292500Y360000D01*
X281500Y371000D02*
Y384500D01*
X135500Y47640D02*
Y55500D01*
X129744Y41884D02*
X135500Y47640D01*
X129744Y33744D02*
Y41884D01*
Y33744D02*
X135500Y27988D01*
X184500Y23500D02*
X185000Y23000D01*
Y90500D01*
X95000Y144000D02*
X99000Y140000D01*
X95000Y144000D02*
Y152000D01*
X49000Y229500D02*
Y237500D01*
X19000Y253000D02*
X33500D01*
X49000Y216000D02*
X68500Y196500D01*
X347058Y310271D02*
X347110Y310323D01*
X39000Y124000D02*
Y131657D01*
X109000Y124000D02*
Y135843D01*
X139000Y124000D02*
Y126000D01*
X129000Y124000D02*
Y127398D01*
Y122500D02*
Y124000D01*
X69000D02*
Y144857D01*
X59000Y124000D02*
Y140513D01*
Y122500D02*
Y124000D01*
X99000D02*
Y140000D01*
Y122500D02*
Y124000D01*
X135500Y16500D02*
X136500Y15500D01*
X135500Y16500D02*
Y27988D01*
X196500Y55500D02*
X220000Y79000D01*
X214000Y161000D02*
Y165000D01*
X129500Y200000D02*
X159000Y229500D01*
X119000Y220500D02*
Y229500D01*
X109000Y216157D02*
Y229500D01*
X107000Y200000D02*
Y202602D01*
X129000Y224602D01*
X103000Y200220D02*
Y204500D01*
X119000Y220500D01*
X99000Y200000D02*
Y206157D01*
X95000Y200000D02*
Y208000D01*
X69000Y207143D02*
Y229500D01*
X79000Y207000D02*
Y229500D01*
Y207000D02*
X86000Y200000D01*
X49000Y216000D02*
Y229500D01*
X90000Y200000D02*
Y228500D01*
X89000Y229500D02*
X90000Y228500D01*
X65843Y158500D02*
X67964D01*
X49000Y136000D02*
X68500Y155500D01*
X99000Y145843D02*
Y152000D01*
X103000Y147500D02*
X119000Y131500D01*
X107000Y149398D02*
Y152000D01*
X110457Y154543D02*
X139000Y126000D01*
X53500Y176000D02*
X68500D01*
X13034Y213953D02*
X27966D01*
X31453Y202361D02*
Y210466D01*
Y202361D02*
X37377Y196437D01*
X44500D01*
X36063Y188563D02*
X44500D01*
X25500Y178000D02*
X36063Y188563D01*
X79047Y229547D02*
Y244000D01*
X67937D02*
X79047D01*
X28453Y108000D02*
X29953Y106500D01*
X14500Y74500D02*
Y98000D01*
X163918Y65500D02*
X166500D01*
X214000Y119500D02*
Y145000D01*
X185000Y90500D02*
X214000Y119500D01*
X156000Y23500D02*
Y55000D01*
X135500Y75500D02*
X156000Y55000D01*
X324543Y352000D02*
X347058D01*
X324543Y331135D02*
X347058D01*
X324543Y310271D02*
X347058D01*
X324543Y289406D02*
X347058D01*
X324543Y268542D02*
X347058D01*
X324543Y247677D02*
X347058D01*
X324543Y226813D02*
X347058D01*
X324543Y205948D02*
X347058D01*
X285500Y248000D02*
X296269D01*
X317457Y226813D01*
X285500Y258000D02*
X307134D01*
X317457Y247677D01*
X285500Y268000D02*
X316915D01*
X285500Y278000D02*
X306050D01*
X317457Y289406D01*
X285500Y288000D02*
X295186D01*
X317457Y310271D01*
X285500Y298000D02*
X317457Y329957D01*
X31000Y64500D02*
X32390Y63110D01*
X156000Y23500D02*
X184500D01*
X296000Y11500D02*
X318000Y33500D01*
X357000D01*
X357500Y33000D01*
X291500Y12000D02*
X292000Y11500D01*
X291500Y42000D02*
X292000Y41500D01*
X214000Y5500D02*
X214500Y5000D01*
X214000Y5500D02*
Y15500D01*
X213500Y16000D02*
X214000Y15500D01*
X65000Y63110D02*
X66110Y62000D01*
X81000D02*
X91000D01*
X97500Y55500D01*
X177500Y32000D02*
X178000Y31500D01*
X33500Y253000D02*
X49000Y237500D01*
X65000Y102437D02*
X66437Y101000D01*
X105222D02*
X105722Y101500D01*
X119500D01*
X135500Y85500D01*
X104000Y96000D02*
X108000D01*
X95000Y87000D02*
X104000Y96000D01*
X103000Y101000D02*
X105222D01*
X113439Y105500D02*
X113939Y106000D01*
X123418D01*
X94000Y92000D02*
X103000Y101000D01*
X81000Y62000D02*
Y86500D01*
X73343Y92000D02*
X94000D01*
X92343Y96000D02*
X96500Y100157D01*
X90000Y104000D02*
X99000Y113000D01*
X234500Y51000D02*
Y154000D01*
X226000Y51000D02*
X234500D01*
X30000Y113500D02*
X39000Y122500D01*
X109500Y111000D02*
X187000D01*
X188000Y129000D02*
X214000Y155000D01*
X35063Y269000D02*
X60063Y244000D01*
X262500Y375500D02*
X271500Y384500D01*
X147500Y124000D02*
X149000D01*
X44500Y196437D02*
X54063D01*
X39000Y219000D02*
X70900Y187100D01*
X39000Y219000D02*
Y229500D01*
X72343Y93000D02*
X73343Y92000D01*
X72343Y93000D02*
Y101000D01*
X69500Y109500D02*
X83000Y96000D01*
X360890Y331187D02*
Y352052D01*
Y226865D02*
Y247729D01*
Y206000D02*
Y226865D01*
X292500Y360000D02*
X360000D01*
D11*
X84067Y162159D02*
G03*
X83566Y160951I1208J-1208D01*
G01*
X81909Y162888D02*
G03*
X79302Y162836I-1276J-1382D01*
G01*
X81230Y162153D02*
G03*
X78566Y162100I-1305J-1413D01*
G01*
X71564Y162100D02*
X78566D01*
X81366Y164900D01*
X67250Y183250D02*
X73750D01*
X77000Y180000D02*
X86500D01*
X89043Y182543D02*
Y187100D01*
X85000Y197500D02*
X89043Y193457D01*
X78643Y197500D02*
X85000D01*
X76143Y200000D02*
X78643Y197500D01*
X85500Y176000D02*
X91602Y182102D01*
Y187100D02*
Y194398D01*
X86000Y200000D02*
X91602Y194398D01*
X99000Y200000D02*
X99280D01*
Y187100D02*
Y200000D01*
X101839Y199059D02*
X103000Y200220D01*
X114634Y187100D02*
X126600D01*
X129500Y190000D01*
X112075Y160100D02*
Y164900D01*
X101839Y152941D02*
Y164900D01*
Y152941D02*
X103000Y151780D01*
X70487Y200000D02*
X74987Y195500D01*
X83500D02*
X86484Y192516D01*
X106957Y187100D02*
Y197128D01*
X107285Y197457D01*
X110457D01*
X109516Y187100D02*
Y192169D01*
X111246Y193900D01*
X113400D01*
X112075Y187100D02*
Y191900D01*
X121400D01*
X129500Y200000D01*
X109516Y159831D02*
Y164900D01*
X113400Y158100D02*
X119500Y152000D01*
X106957Y154872D02*
Y164900D01*
Y154872D02*
X107285Y154543D01*
X94161Y187100D02*
Y195839D01*
X96720Y187100D02*
Y198280D01*
X95000Y200000D02*
X96720Y198280D01*
X86000Y152000D02*
X91602Y157602D01*
X85000Y154500D02*
X89043Y158543D01*
X70487Y152000D02*
X74987Y156500D01*
X83500D01*
X73100Y160100D02*
X83566D01*
Y164541D02*
X83925Y164900D01*
X95000Y152000D02*
X96720Y153720D01*
Y164900D01*
X113400Y193900D02*
X119500Y200000D01*
X104398Y187100D02*
X104500Y187202D01*
X101839Y187100D02*
Y199059D01*
X104398Y197398D02*
X107000Y200000D01*
X104398Y187100D02*
Y197398D01*
X90000Y200000D02*
X94161Y195839D01*
X89043Y187100D02*
Y193457D01*
X74987Y195500D02*
X83500D01*
X86484Y187100D02*
Y192516D01*
X68500Y196500D02*
X73100Y191900D01*
X111246Y158100D02*
X113400D01*
X109516Y159831D02*
X111246Y158100D01*
X112075Y160100D02*
X121400D01*
X68500Y159036D02*
X71564Y162100D01*
X68500Y155500D02*
X73100Y160100D01*
X83566D02*
Y164541D01*
X86484Y159484D02*
Y164900D01*
X83500Y156500D02*
X86484Y159484D01*
X78643Y154500D02*
X85000D01*
X89043Y158543D02*
Y164900D01*
X91602Y157602D02*
Y164900D01*
X76143Y152000D02*
X78643Y154500D01*
X90000Y152000D02*
X94161Y156161D01*
Y164900D01*
X99280Y152000D02*
Y164900D01*
X107285Y154543D02*
X110457D01*
X104398Y154602D02*
Y164900D01*
Y154602D02*
X107000Y152000D01*
X104398Y164900D02*
X104500Y164798D01*
X121400Y160100D02*
X129500Y152000D01*
X126600Y164900D02*
X129500Y162000D01*
X114634Y164900D02*
X126600D01*
X68500Y176000D02*
X85500D01*
X91602Y182102D02*
Y187100D01*
X86500Y180000D02*
X89043Y182543D01*
X83925Y187100D02*
Y191900D01*
X73100D02*
X83925D01*
X73750Y183250D02*
X77000Y180000D01*
D12*
X65000Y76890D02*
D03*
Y63110D02*
D03*
X25500Y148000D02*
D03*
X14500Y118000D02*
D03*
Y64500D02*
D03*
X275500Y308000D02*
D03*
X289000Y117000D02*
D03*
X16500Y332000D02*
D03*
X232500Y406000D02*
D03*
D13*
X272047Y405500D02*
D03*
X277953D02*
D03*
X84953Y244000D02*
D03*
X79047D02*
D03*
D14*
X324543Y205948D02*
D03*
X317457D02*
D03*
X324543Y352000D02*
D03*
X317457D02*
D03*
X324543Y331135D02*
D03*
X317457D02*
D03*
X324543Y310271D02*
D03*
X317457D02*
D03*
X324543Y289406D02*
D03*
X317457D02*
D03*
X324543Y268542D02*
D03*
X317457D02*
D03*
X324543Y247677D02*
D03*
X317457D02*
D03*
X324543Y226813D02*
D03*
X317457D02*
D03*
D15*
X30000Y100547D02*
D03*
Y106453D02*
D03*
D16*
X347110Y352052D02*
D03*
X360890D02*
D03*
X347110Y331187D02*
D03*
X360890D02*
D03*
X347110Y310323D02*
D03*
X360890D02*
D03*
X347110Y289458D02*
D03*
X360890D02*
D03*
X347110Y268594D02*
D03*
X360890D02*
D03*
X347110Y247729D02*
D03*
X360890D02*
D03*
X347110Y226865D02*
D03*
X360890D02*
D03*
X347110Y206000D02*
D03*
X360890D02*
D03*
X196500Y55500D02*
D03*
X19000Y253000D02*
D03*
X281500Y384500D02*
D03*
X39000Y124000D02*
D03*
X169000Y229500D02*
D03*
X108000Y452500D02*
D03*
X216500Y312000D02*
D03*
X31500Y446000D02*
D03*
X167000Y426500D02*
D03*
X66500Y339500D02*
D03*
X150000Y329500D02*
D03*
X126500Y15500D02*
D03*
X105500Y85500D02*
D03*
D17*
X44500Y196437D02*
D03*
Y188563D02*
D03*
X65000Y102437D02*
D03*
Y94563D02*
D03*
D18*
X60063Y244000D02*
D03*
X67937D02*
D03*
D19*
X81366Y164900D02*
D03*
X83925D02*
D03*
X86484D02*
D03*
X89043D02*
D03*
X91602D02*
D03*
X94161D02*
D03*
X96720D02*
D03*
X99280D02*
D03*
X101839D02*
D03*
X104398D02*
D03*
X106957D02*
D03*
X109516D02*
D03*
X112075D02*
D03*
X114634D02*
D03*
Y187100D02*
D03*
X112075D02*
D03*
X109516D02*
D03*
X106957D02*
D03*
X104398D02*
D03*
X101839D02*
D03*
X99280D02*
D03*
X96720D02*
D03*
X94161D02*
D03*
X91602D02*
D03*
X89043D02*
D03*
X86484D02*
D03*
X83925D02*
D03*
X81366D02*
D03*
D20*
X196500Y65500D02*
D03*
Y75500D02*
D03*
Y85500D02*
D03*
X166500Y55500D02*
D03*
Y65500D02*
D03*
Y75500D02*
D03*
Y85500D02*
D03*
X15500Y208000D02*
D03*
X25500D02*
D03*
X15500Y198000D02*
D03*
X25500D02*
D03*
X15500Y188000D02*
D03*
X25500D02*
D03*
X15500Y178000D02*
D03*
X25500D02*
D03*
X15500Y168000D02*
D03*
X25500D02*
D03*
X15500Y158000D02*
D03*
X25500D02*
D03*
X15500Y148000D02*
D03*
X14500Y98000D02*
D03*
Y108000D02*
D03*
Y74500D02*
D03*
X271500Y384500D02*
D03*
X285500Y238000D02*
D03*
X275500D02*
D03*
X285500Y248000D02*
D03*
X275500D02*
D03*
X285500Y258000D02*
D03*
X275500D02*
D03*
X285500Y268000D02*
D03*
X275500D02*
D03*
X285500Y278000D02*
D03*
X275500D02*
D03*
X285500Y288000D02*
D03*
X275500D02*
D03*
X285500Y298000D02*
D03*
X275500D02*
D03*
X285500Y308000D02*
D03*
X289000Y107000D02*
D03*
X49000Y124000D02*
D03*
X59000D02*
D03*
X69000D02*
D03*
X79000D02*
D03*
X89000D02*
D03*
X99000D02*
D03*
X109000D02*
D03*
X119000D02*
D03*
X129000D02*
D03*
X139000D02*
D03*
X149000D02*
D03*
X159000D02*
D03*
X169000D02*
D03*
X159000Y229500D02*
D03*
X149000D02*
D03*
X139000D02*
D03*
X129000D02*
D03*
X119000D02*
D03*
X109000D02*
D03*
X99000D02*
D03*
X89000D02*
D03*
X79000D02*
D03*
X69000D02*
D03*
X59000D02*
D03*
X49000D02*
D03*
X39000D02*
D03*
X118000Y452500D02*
D03*
X128000D02*
D03*
X138000D02*
D03*
X16500Y322000D02*
D03*
Y312000D02*
D03*
Y302000D02*
D03*
X226500Y312000D02*
D03*
X236500D02*
D03*
X246500D02*
D03*
X232500Y416000D02*
D03*
Y426000D02*
D03*
Y436000D02*
D03*
X61500Y376000D02*
D03*
Y386000D02*
D03*
Y396000D02*
D03*
Y406000D02*
D03*
Y416000D02*
D03*
Y426000D02*
D03*
Y436000D02*
D03*
Y446000D02*
D03*
X31500Y376000D02*
D03*
Y386000D02*
D03*
Y396000D02*
D03*
Y406000D02*
D03*
Y416000D02*
D03*
Y426000D02*
D03*
Y436000D02*
D03*
X167000Y416500D02*
D03*
Y406500D02*
D03*
Y396500D02*
D03*
Y386500D02*
D03*
Y376500D02*
D03*
Y366500D02*
D03*
Y356500D02*
D03*
X197000Y426500D02*
D03*
Y416500D02*
D03*
Y406500D02*
D03*
Y396500D02*
D03*
Y386500D02*
D03*
Y376500D02*
D03*
Y366500D02*
D03*
Y356500D02*
D03*
X96500Y279500D02*
D03*
Y289500D02*
D03*
Y299500D02*
D03*
Y309500D02*
D03*
Y319500D02*
D03*
Y329500D02*
D03*
Y339500D02*
D03*
X66500Y279500D02*
D03*
Y289500D02*
D03*
Y299500D02*
D03*
Y309500D02*
D03*
Y319500D02*
D03*
Y329500D02*
D03*
X150000Y319500D02*
D03*
Y309500D02*
D03*
Y299500D02*
D03*
Y289500D02*
D03*
Y279500D02*
D03*
Y269500D02*
D03*
Y259500D02*
D03*
X180000Y329500D02*
D03*
Y319500D02*
D03*
Y309500D02*
D03*
Y299500D02*
D03*
Y289500D02*
D03*
Y279500D02*
D03*
Y269500D02*
D03*
Y259500D02*
D03*
X136500Y15500D02*
D03*
X146500D02*
D03*
X156500D02*
D03*
X166500D02*
D03*
X105500Y75500D02*
D03*
Y65500D02*
D03*
Y55500D02*
D03*
X135500Y85500D02*
D03*
Y75500D02*
D03*
Y65500D02*
D03*
Y55500D02*
D03*
D21*
X292500Y360000D02*
D03*
X262500D02*
D03*
X267500Y42000D02*
D03*
Y12000D02*
D03*
X292000Y11500D02*
D03*
Y41500D02*
D03*
X43000Y106500D02*
D03*
Y76500D02*
D03*
D22*
X367500Y19000D02*
D03*
Y29000D02*
D03*
Y39000D02*
D03*
D23*
Y49000D02*
D03*
Y59000D02*
D03*
X377500Y69000D02*
D03*
D24*
X367500D02*
D03*
Y78500D02*
D03*
Y89000D02*
D03*
Y99000D02*
D03*
Y109000D02*
D03*
Y119000D02*
D03*
Y129000D02*
D03*
Y139000D02*
D03*
Y149000D02*
D03*
Y159000D02*
D03*
Y169000D02*
D03*
Y179000D02*
D03*
Y189000D02*
D03*
X377500Y79000D02*
D03*
Y109000D02*
D03*
Y119000D02*
D03*
Y129000D02*
D03*
Y159000D02*
D03*
Y169000D02*
D03*
X294000Y155000D02*
D03*
Y165000D02*
D03*
Y175000D02*
D03*
Y185000D02*
D03*
Y195000D02*
D03*
X224000Y185000D02*
D03*
Y195000D02*
D03*
X214000Y145000D02*
D03*
Y155000D02*
D03*
Y165000D02*
D03*
Y175000D02*
D03*
Y185000D02*
D03*
Y195000D02*
D03*
D25*
X-9000Y311500D02*
D03*
X-24000D02*
D03*
X190000Y448500D02*
D03*
X190922Y194578D02*
D03*
X212000Y268000D02*
D03*
X193000Y267500D02*
D03*
X147000Y405000D02*
D03*
X156000Y454000D02*
D03*
X81000Y369500D02*
D03*
X128500Y337000D02*
D03*
X136500Y336000D02*
D03*
X240000Y94000D02*
D03*
X232000Y235500D02*
D03*
X253500Y343000D02*
D03*
X275500Y148000D02*
D03*
X183500Y201500D02*
D03*
X245000Y247000D02*
D03*
X191500Y148500D02*
D03*
X164000D02*
D03*
X15500Y395000D02*
D03*
X43500Y467500D02*
D03*
X71000Y258500D02*
D03*
X50500Y346500D02*
D03*
X-1500Y375500D02*
D03*
X298000Y349000D02*
D03*
X275500Y329500D02*
D03*
X33500Y339500D02*
D03*
X12000Y351500D02*
D03*
X278500Y436000D02*
D03*
X19000Y269000D02*
D03*
X196000Y36000D02*
D03*
X252000Y124000D02*
D03*
X80500Y107000D02*
D03*
X109500Y111000D02*
D03*
X226000Y51000D02*
D03*
X108000Y96000D02*
D03*
X207500Y16000D02*
D03*
X90000Y104000D02*
D03*
M02*
