M48
;Layer_Color=9474304
;FILE_FORMAT=2:5
INCH,LZ
;TYPE=PLATED
T1F00S00C0.02800
T2F00S00C0.03346
T3F00S00C0.03540
T4F00S00C0.03543
T5F00S00C0.13600
%
T01
X02075Y0016
X0196Y0036
X0226Y0051
X024Y0094
X0252Y0124
X02755Y0148
X01915Y01485
X0164
X01835Y02015
X0190922Y0194578
X01095Y0111
X0108Y0096
X009Y0104
X00805Y0107
X0019Y0269
X-0009Y03115
X-0024
X0012Y03515
X00335Y03395
X00505Y03465
X01285Y0337
X01365Y0336
X0193Y02675
X0212Y0268
X0071Y02585
X0232Y02355
X0245Y0247
X02535Y0343
X02755Y03295
X0298Y0349
X02785Y0436
X019Y04485
X0156Y0454
X0147Y0405
X0081Y03695
X-00015Y03755
X00155Y0395
X00435Y04675
T02
X02675Y0012
X0292Y00115
Y00415
X02675Y0042
X0043Y00765
Y01065
X02625Y036
X02925
T03
X03775Y0069
Y0079
Y0109
Y0119
Y0129
Y0159
Y0169
X03675
Y0159
Y0149
Y0139
Y0129
Y0119
Y0109
Y0099
Y0089
Y00785
Y0069
Y0059
Y0179
Y0189
X0294Y0185
Y0175
Y0165
Y0155
Y0195
X0224
Y0185
X0214
Y0175
Y0165
Y0155
Y0145
Y0195
T04
X01265Y00155
X01365
X01465
X01565
X01665
Y00555
X01965
X01355
X01055
X03675Y0049
Y0039
Y0029
Y0019
X0289Y0107
Y0117
X01965Y00855
Y00755
Y00655
X01665
Y00755
Y00855
X01355
Y00755
Y00655
X01055
Y00755
Y00855
X0109Y0124
X0099
X0089
X0079
X0069
X0059
X0119
X0129
X0139
X0149
X0159
X0169
X0049
X0039
X00145Y0118
Y0108
Y0098
Y00745
Y00645
X00155Y0148
Y0158
Y0168
Y0178
Y0188
Y0198
Y0208
X00255
Y0198
Y0188
Y0178
Y0168
Y0158
Y0148
X0039Y02295
X0049
X0019Y0253
X00165Y0302
Y0312
Y0322
Y0332
X00665Y03295
Y03195
Y03095
Y02995
Y02895
Y02795
X00965
Y02895
Y02995
Y03095
Y03195
Y03295
Y03395
X00665
X015Y03295
Y03195
Y03095
Y02995
Y02895
Y02795
Y02695
Y02595
X018
Y02695
Y02795
Y02895
Y02995
Y03095
Y03195
Y03295
X0167Y03565
Y03665
X0197
Y03565
X0169Y02295
X0159
X0149
X0139
X0129
X0119
X0109
X0099
X0089
X0079
X0069
X0059
X02755Y0238
X02855
Y0248
X02755
Y0258
X02855
Y0268
X02755
Y0278
X02855
Y0288
X02755
Y0298
X02855
Y0308
X02755
X02465Y0312
X02365
X02265
X02165
X02325Y0406
Y0416
Y0426
Y0436
X02715Y03845
X02815
X0197Y03865
Y03965
Y04065
Y04165
Y04265
X0167
Y04165
Y04065
Y03965
Y03865
Y03765
X0197
X0138Y04525
X0128
X0118
X0108
X00615Y0446
Y0436
Y0426
Y0416
Y0406
Y0396
Y0386
Y0376
X00315
Y0386
Y0396
Y0406
Y0416
Y0426
Y0436
Y0446
T05
X-00065Y0022
X03405Y0009
X03645Y0471
X-0016Y04685
M30
